<svg xmlns="http://www.w3.org/2000/svg" width="397.597" height="255.689" viewBox="0 0 397.597 255.689">
  <g id="Component_117_1" data-name="Component 117 – 1" transform="translate(0.597 0.515)">
    <g id="Component_115_1" data-name="Component 115 – 1" transform="translate(328 146.311)">
      <text id="Abu_Dhabi" data-name="Abu Dhabi" transform="translate(49 11)" fill="#101010" font-size="10" font-family="SegoeUI-Bold, Segoe UI" font-weight="700" letter-spacing="-0.005em"><tspan x="-49.458" y="0">Abu Dhabi</tspan></text>
      <text id="_95" data-name="95" transform="translate(52 11)" fill="#101010" font-size="10" font-family="SegoeUI, Segoe UI" letter-spacing="-0.005em"><tspan x="0" y="0">95</tspan></text>
      <text id="Dubai" transform="translate(49 41)" fill="#101010" font-size="10" font-family="SegoeUI-Bold, Segoe UI" font-weight="700" letter-spacing="-0.005em"><tspan x="-27.549" y="0">Dubai</tspan></text>
      <text id="_125" data-name="125" transform="translate(52 41)" fill="#101010" font-size="10" font-family="SegoeUI, Segoe UI" letter-spacing="-0.005em"><tspan x="0" y="0">125</tspan></text>
      <text id="Ajman" transform="translate(49 26)" fill="#101010" font-size="10" font-family="SegoeUI-Bold, Segoe UI" font-weight="700" letter-spacing="-0.005em"><tspan x="-30.264" y="0">Ajman</tspan></text>
      <text id="_12" data-name="12" transform="translate(52 26)" fill="#101010" font-size="10" font-family="SegoeUI, Segoe UI" letter-spacing="-0.005em"><tspan x="0" y="0">12</tspan></text>
      <text id="Sharjah" transform="translate(49 86)" fill="#101010" font-size="10" font-family="SegoeUI-Bold, Segoe UI" font-weight="700" letter-spacing="-0.005em"><tspan x="-34.929" y="0">Sharjah</tspan></text>
      <text id="_32" data-name="32" transform="translate(52 86)" fill="#101010" font-size="10" font-family="SegoeUI, Segoe UI" letter-spacing="-0.005em"><tspan x="0" y="0">32</tspan></text>
      <text id="Fujairah" transform="translate(49 56)" fill="#101010" font-size="10" font-family="SegoeUI-Bold, Segoe UI" font-weight="700" letter-spacing="-0.005em"><tspan x="-37.345" y="0">Fujairah</tspan></text>
      <text id="_65" data-name="65" transform="translate(52 56)" fill="#101010" font-size="10" font-family="SegoeUI, Segoe UI" letter-spacing="-0.005em"><tspan x="0" y="0">65</tspan></text>
      <text id="RAK" transform="translate(49 71)" fill="#101010" font-size="10" font-family="SegoeUI-Bold, Segoe UI" font-weight="700" letter-spacing="-0.005em"><tspan x="-19.949" y="0">RAK</tspan></text>
      <text id="_65-2" data-name="65" transform="translate(52 71)" fill="#101010" font-size="10" font-family="SegoeUI, Segoe UI" letter-spacing="-0.005em"><tspan x="0" y="0">65</tspan></text>
      <text id="UAQ" transform="translate(49 101)" fill="#101010" font-size="10" font-family="SegoeUI-Bold, Segoe UI" font-weight="700" letter-spacing="-0.005em"><tspan x="-21.526" y="0">UAQ</tspan></text>
      <text id="_65-3" data-name="65" transform="translate(52 101)" fill="#101010" font-size="10" font-family="SegoeUI, Segoe UI" letter-spacing="-0.005em"><tspan x="0" y="0">65</tspan></text>
    </g>
    <g id="Component_116_1" data-name="Component 116 – 1">
      <g id="Component_114_1" data-name="Component 114 – 1">
        <g id="Group_579" data-name="Group 579" transform="translate(0)">
          <path id="AE-AJ" d="M3021.358,4878.087l.87-1.094.487-.914.184.12.037.221.346-.3.345.056.054.339-.184.677-.016.736.092.1.487.058.071-.079-.054-.12h-.379l-.017-.379.254-.222-.054-.1-.182-.022-.039-.357.217-.059.162.338.108-.079-.038-.279-.324-.4.615-.4.707.4.163-.041.291.1.179-.179-.016-.08h-.3l-.108-.121-.308.058-.345-.14-.016-.321.291-.258-.237-.179-.163.241-.037.337-.724.3-.4-.058-.108-.2.924-1.114v-.221l.291-.1.724-1.178-.325-.321.125-.636-.07.578.053.059.2-.059-.017.16.146.079.2-.379-.345-.242.125-.12.346.1.216-.279.108.322-.162.041.017.241.2.121.345.986.388.378h.432l.326-.158.324.041.379.242,1.394,1.255.615.122,2.913-.1.507.12,1.431.615.07.179-.233.916-.67,1.834-.653,1.174-.307.337-.379.041-.687-.22-.615-.059-.886.042-1.864-.158-1.772.042h0l-.4-.1h0l-.508-.238-1.249-.178-.885-.359h0l-1.015-.32h0Zm36.18,8.193-.524-.437-.234-.378-.291-.778v-.335l.308-.74.325-.356.794-.537,1.3.677.146.2.2.815-.038.358-.653.714-.345-.02-.254.121Z" transform="translate(-2767.894 -4828.989)" fill="#7c7d7d" stroke="#f9f9f9" stroke-width="1"/>
          <path id="AE-AZ" d="M-65.681,5387.072l.2,1.37-.978.195-1.061-.885-1.282.008-.682-.487L-69,5386.2l1.369.1,1.173.194Zm-34.207-1.407.362.189.037.654.108.136-.071.139-.324-.021-.308-.179-.017-.732Zm35.755,1.691h-.6l-1-1.853,1,.351.8.6Zm-43.81-3.292.345.036.454.535.2.711.037.749-.458.059-.624-.059-.786.2-.886-.728-.379-.613.054-.236.516-.4Zm45.761,1.943-.149.7-1.1-.151-1.473-1.688-.878-.212-.05-.85h1.452l.549.7.6.547.5.2Zm-17.016-2.072.67.916.6-.112.757.284,2.363.237,1.086.328,1.56,1.889-.046.758-.9,1.843-1.464.377-.9.33-1.181-.33-1.369-.191-.237-.565-1.748-.1-.141-1.039-.283-.475-.849-.423-.52.706-.237,1.183.1,1.181-1.652.329-2.55-.1-1.464-.191-.757-.565-1.04-.565-1.323-1.042h-.849l-.616.566-.99.1-.849-.1-.424-.475-.379-.8.99-1.087,1.748-.8,1.4-.047,1.011-.473.457-.942,1.906-1.14.716.691,2.829-1.307h1.04l.72-.844.932-.434.187-.8,1.136-.046.8.475-.475.423-.566.188-.1.989Zm-42.949-6.095.6.48.017.294.108.158.616.237.087.636-.071.167-1.049.1-.253-.313-.055-.216-.453-.434-.071-.688Zm8.924-.357.832.374.616.693-.308.139-.453-.017-.167-.123-.249.043-.416.892-.054.588.183.4-.037.474.2.653-.633-.236-.453-1.026-.345-.08-.27-.237-.87-.08-.453-.451-.254-.1-.454.059-.254.195-.108.158-.25,1.166-.166.079-1.177-.1-.179-.4-.291-.336-.345-.058-.3-.343-.383,0-.017-.294.179-.42.183.125.4.021.566-.241.487-.013.166-.2h.267l.2.158.125-.135-.162-.139.183-.121,1.972-.39.961-.354,1.069-.037.217-.238Zm18.431,1.386-.878.485-.878-.1-.391-.781.391-.684.978-.39Zm-34.17-3.121h.1l.108.158.432.987-.016.274.108.194.071.021.162-.258.121.037-.013.259-.237.079.2.454-.162-.079-.113-.275-1.048-.178-.524-.317-.146-.216.092-.69Zm77.834,5.554-.7.549-2.3-.5-.953,1-.549-.348-.9-1.054-.2-.849-.549-.9-1.7-.249-.3-.7.2-1.353,2.051-.7.849-1.253,1.652,1.253.05.8.4.9.7,1.21,1.7.991Zm-109.649-7.177.071.263.832-.123.217.179.7.136.507.356.379.537.162.633.179.037.037,1.579-.017.2-.108.058.067-1.523-.087-.258-.054.611-.2.258.108.574-.237.991.1.137-.291.138-.2.554h-.183l.037-.137-.233.1-.453,1.281h-.291l-.362-.236.308.12.166-.059.175-.436-.108-.137-.2.02-.6.5-.037.138.233.092-.271,0,.054.178-.2.2-.108-.042-.345.417-.054.237.037.159.125.021.091-.474.325-.118.133.435-.041.215-.978.432-.4-.238-.071-.373.308-.812.325.375.091-.021-.379-.79-1.161-1.007-.324-.613-.345-1.106v-.79l.108-.508-.071-.045.47-1.087.524-.689.416-.2.163.022.108.157.308-.057.383-.242-.113-.218h.275v0Zm111.75,2.276-.249.748-.7.2-.848-.15-.208-1.086.607.536.549-.049.449-.8-1.061-1.542-1.24-.958v-.854h.8l.9.7,1.452,1.553.1.7Zm-4.252-1.1h-.8l-.7-.848-2.1-.749-1.552-.25-.449-.349,2.65-.151.849-.749.349-.848,1-.3.35,1.152-.52.533-.083.815.807.648Zm-176.229-5.412.183.249.815.121h.162l.037-.083.341.037.075.242-.183.079.017.3.071-.2.237.042-.4.352-.016.417h-.162l.075-.973-.312-.054-.453.178-.108.333.233.458.47.18-.016.079-.579-.181-.308-.474-.362.037.092.437-.146-.394-.4.138-.037.117.108.058-.108.142-.183-.063-.017-.158-.179-.1.108-.357.108-.2.325-.2.379-.591ZM-49.6,5368.3l.091.08-.054.516h-.22l-.179-.516Zm1.173,0,.149.138,0,.157.707.081L-46,5370.02l.433.215.832.232.125.125h.216l1.556.575-.108.293-1.123.418-.4-.2-.362.042-.612-.337-.562-.173-.237-.218-.924-.237-.145-.257-.271-.021-.237.157-.453-.121-.2-.532-.162-1.186-.017-.374Zm-.757.013.167.637-.058.12-.379.021.092-.731Zm12.3-1.106.341.316,1.723.379.183.222,0,.272.162.217-.037.374-.291.159-.2-.016.021-.222-.266-.178-.1.038v.121l-.761.215-.308.553-.957.12.017-.378-1.069-.1-.237-.258-.091-.5.237-.354.162-.552.221-.1.033.239-.287.614.433.18.254-.059.038-.2.125-.041.125.3.4,0,.037-.142-.145-.12-.179-.832Zm-13.293-1.083-.458.337-.054.792.179.178.017.278.4.475-.4.079-.237-.475.129.549-.291.084L-51,5368.2l.054-.611-.162-.079.108-.2.2-.1.071-.811Zm12.677-.178.163.141.886.08.416.278,1.086.212,1.61.615.433.457.217.637-.237.175-.632.138-.325.178h-.325l-.1-.528-.491-.458-1.285-.356-.362-.343-1.082-.469-.2-.2-.108-.4.108-.136Zm-1.319-.334.4.076.2.142.237.4-.017.139-.216.035-.67-.237Zm-2.534-.807.616.154.778.4.778.2.237.889.216.1.183.238-.8.612.2.553-.162-.08-.653-.812-.183-.019-.453-.379-.562.024-.325-.61-.27-.216.145-.4,1.015.337.108.178.091-.236-.994-.4.017-.359-.087-.133Zm-2.064-1.195.179.006.653.453-.071.1-.108-.021-.038.5h.217l.254.632.145.079.162.358-.337.612-.22.137h-.254l-.487-.611-.308-.221-.237-.037-.037-.138-.237-.158.158-.279-.141-.337.179-.232v-.2l-.108-.08.092-.375.183-.041.2.279.183.037-.092-.275Zm10.006-1.584.362.242.433.04.071.138-.054.217-.091.059-.778-.16-.108-.216.054-.32Zm1.177-1.3.162.158.1.432-.216.125-.071.316-.325.12-.179-.157-.125-.474.324-.453Zm-4.015-.245.487.344.474.08.3.378.27-.02.433.22.2.274.033.754-.849-.159-.508.437-.145-.1-.379.02-.886-.91-.071-.317-.237-.021-.179-.3.978-.416Zm.2-1.586,2.026.467.291-.132.325.411.254-.1.216.1.433.021.869-.137.433.2-.253.058-.109.79L-32,5359.8l-.258-.02-.2.1-.037.1.849.734-.091.12-.3-.162-.557-.017-.325-.416-.757-.337-.691.121-.179.3H-34.9l-.27-.163-.254-.017-.216-.237.016-.257-.416-.179.092-.278-.075-.158-.2-.038.017-.1Zm-2.808-.556.22.029.038.083-.325.257-.379.675-.054.316-.453.515-.217.633.017.356.4,1.149.217.338.108.436.4.632.146.655-.216.516-.145.02-.179-.453.05-.3-.087-.159-.125.159-.237.021-2.01-.948-1.211-.258-1.015-.95-.108-.295.091-.079.308.079,1.177-.182.923-.424,1.048-.933Zm5.887-2.334.271.011.433.317.017.595.166.47-.42-.132-.47.02-.037-.178.216-.417-.416-.336-.091-.181.179-.178Zm-.977-1.228.216.091.075.258-.1.316.017.536.47.771-.2.315h-.146l-.615-.516-.466.1-.728.4-.869-.376-.271.117h-.47l-.017-.217.217-.157-.217-.1.271-.155.091.117.287-.042.1.259.633-.317.345-.335.375-.6-.071-.236.054-.1.795-.037Zm4.414-.437.291.233.379.078v.153l.287.242.037.358h-.221l-.012-.216-.275-.037-.254.018-.145.141-.017-.475-.183-.315ZM-45.111,5382.3l.341-.217.054-.217-.329-.29-.217-.379.162-.021-.037.117.2.179h.308l.886-.4.145-.179.416-.08.254-.2-.2-.337.108-.136.2.136.054.22.433-.278.163-.174-.017-.279.778-.417.216-.277.108-.2-.087-.076-.416.438-.253-.021.345-.216.345-.657.179-.055.125-.553.345-.362.4.4.325.078,3.765-.195h.091l.092.195h.362l-.054-.254-.253-.023-4.127.178-.345-.217-.129-.353.254-.948.379.2-.271-.512.017-.293.4-1.508.237.025.054-.121-.054-.968.071-.138.329-.122,1.173.081.541-.137.2.08.579-.122.162.08.308-.026-.092-.291.038-.232-.957-.021-.416.116h-.507l-.146.375-.275-.058-.2-.138-.271-.416.129-.08.4.137.6.021-.071-.1-.633-.044-.108-.1.47-.354.217-.294h.162l-.108-.654-.237-.354-.054.18.071.316-.162.178-.055.474-.253.041-.308-.082.091.242-.141.195-.179-.258-.146.021-.125.337-.345-.08-.47-.274.125-.338.125-.057.653.253.108-.257-2.426-.791-.811-.138.017.121,2.134.69-.158.478-.113.017-1.93-.728-.2-.357-.4-.158-.108-.138-.345.058-.216-.2-.087-.22-1.02-.354-.108.042,1.128.454-.1.316-.308-.059-.379-.275-.379-.079-.524-.338-.437.022-.978-.95-.616-.453.037-.115h.325l-.091-.155-.412-.026-.221.339-.324-.022-.109-.136.433-.1-.017-.1-.433.02-.162-.078v-.2l-.433-.021-.054.178-.325-.12-.179.4-.761-.475.054-.474.524-.1.163.532,2.188-1.269.325-.787,1.232-1.028.487-.685-.47.2-.616-.617.217-.789.179.116.433-.3.125-.136-.071-.218.146-.158-.67.121-.125.137.071-.178.978-.28.108.178.183-.04.2.2-.4.712.724.731.453-.353-.237.353-.383.176-.179.416-.308.374.4.928,1.357,1.207.291.179.487,0-.092.121-.324.041.179.217h.271l.037-.18.2.022.487.357.254-.041.271.437.4.279-.125.236.038.157-.125.1.433.236.416-.12.616.073.27.737.741.433.271.317.4-.279,2.059.12.77-.416.316-.1.2.079.707-.2,3.545-1.127.2-.237.075-.358-.091-.154h-.129l-.291.4-.345.1-.525-.137-.162.258-.237.116-.724.1-.179-.1-.092-.607.87-.89.2-.5-.162-.316-2.118-.079-.453-.138-.308.037-.379.243-.491-.058-.416-.2h-.649l-.4-.317-.67-.058-.362.12-.253-.141-.291.023-.4-.216.091-.374.312-.1.141.141.187-.279-.437-.233-.4-.993-.163-.122.108-.2.125.18.15-.1-.312-.554-.491-.553-.179-.655.017-.372.145-.3.179-.021.071-.237.162-.1.017-.375.379.216.021-.158-.237-.137-.054-.137h1.069l-.146.611.2.532.632,1.009,1.123,1.146.633.217.362-.043,1.21.519,1.1.293,1.1.139.649-.313.345-.316.216-.357.2-.126.287-.569.054-.79.179-.42-.05-.2.287-.133.108-.2-.017-.2h.233l.054.161.087-.116-.017-.163-.707-.493.162-.1.583.507.1-.218.179.059.125-.059.254-.71-.216-.217.562-.778.145-.669-.125-.238-.2-.121-.037-.236-.471-.042-.8.237-.108.1.146.258-.108.079-.686.178-.275.2-.487-.038-.183.238-.146-.057-.254-.534-.3-.178-.2-.3.125-.574-.125-.138.017-.437h-.183l-.2-.337-.071-.4.145-.217.25-.095.15-.32.217-.059.021-.158-.325-.041-.145-.395.129-.412.216-.442.345-.02.308.216-.017.137.254-.021.071-.138.362-.04h.291l.291.135.054.139-.179.12.237.161.037.191-.145.1.108.652.241.278-.042.355-.071.078-.453-.02-.433.12-.054.259.108.157-.071.5.091.358.217.236.125.359.237.1h.071l-.487-.89.27-.553h.2l.582-.337h.811l.162.12,1.3-1.227-.325-.279h-.345l.146-.137-.017-.138-.2-.02-.125-.216.2-.2.371-.083.424.122.616-.18-.2-.12-.237-.432.741.1.125-.157-.271-.038-.125-.175-.416-.062-.054-.158.108-.02.037.078.125-.1-.121-.32-.166-.059-.179.282-.146.791-.686-.116-.055-.1.125-.437-.087-.236.27.158.075-.2-.146-.1h-.47l.291-.314.254-.081h.217l-.091.3.091.12.325-.08.253-.54.362-.253-.075-.616-.466.079-.146-.079.017-.375.254-.122.017-.277.183.02.054.238.2-.042-.162-.949.05-.179-.287-.257-.233.162-.287-.162-.745.021-.324-.316.037-.138.253-.1.1-.184.146.021.146.216h.091l.941-.632v-.138h-.179l-.74.594.054-.573.379-.363.453-.138v-.078l-.458.117-.574.357-.038-.079.578-.317.254-.315.341-.221v-.179l.125-.137.561-.26.163-.335.379-.3.707-.853.795-1.427.271-.811.308.079.4.358.686.357.595.142.308.213.162-.039.017-.337-.233-.119-.453.02-1.086-.636-.2-.237.183-.674.325-.474.778-.538.113.025-.038.215-.253.416.778-.495.345.122.761,0v1.086l.562.752.237.142.362.438.092-.138-.945-.975.162-.021.146-.236-.416-.178-.108-1.428.108-.3-.037-.432h.075l.162.616.108.12.308.02,1.3-.553.058-.136-.112-.278.2.314.541-.078.037-.494.092-.062-.054-.4.1.417-.088.063.017.4,1.248-.774-.2-.337.2-.1-.054.1.113.1.162-.017.2-.458.054.138.162.042.687-.6.017-.117-.449-.26.091-.2.325-.2-.091.314.47.358.308-.615-.291-.179.108-.221.091.054-.108.1.325.359.237-.1-.378-.595.146.021.091.278.146-.02,1.431-.816.383-.478.524.137.757-.673.113-.316.216-.022.923-.716,2.189-2.025.362-.138.487.021,2.042-1.032.087.221h0l.429,1.277h0l7.98,23.074,1.177,2.908,4.631.158,4.182-.057,1.722-.617h0l.141-.024h0l.574-.1,4.182.237,2.754-.133,1.735-.327,1.381-.513h0l.919-.487h0l.795-.575,1.681-1.858,1.755-.179.562-.278,2.209-1.587.795-.316h0l1.61-.137h0l.707-.217.761-.437.487-.611h0l1.21.258,1.14.535.977.338,2.28.475,1.086-.041,1.934-.437,1.223-.794h0l1.265,3.058.108.328-.079.412-.163.367-.37.429-1.331,1.176-.037.9.208,1.215-.1.577-1.747,1.07-.146,1.051.3,1.079.025.815.416,1.053.067,3.668-.171,1.07.025.571.121.573.42.225,1.219,1.066.678.911.212,1.594.037,1.792-.1,1.339-1.39,1.96-1.481,2.354-.728,2.4-.012.391.225.3.37.207.545.137.969-.008,1.011-.154.995.467.965.594.454.017.47-.1.666-.454,2.01-1.01,2.422-.133.611.728-.087.7.221.727.212.325.453.4.416,3.249,1.277,1.6,1.506,2.717.208.9-.362.279-.653.257-7.01,1.8-4.173,2.171-.653.245-.632-.083-1.523-1.107-.353-.549-.674-.087-1.968.836-.782.129-.649-.042-.978-.3-4.443-.17-.819.224-.795.4-1.876,1.4.861.008-2.45,1.127-.795.251-.549.407-.891.25-2.434.213-.778.216.121,1.347.221.913.52.465,1.381.908.824.5.977.323.574.47.637.337.312.595.208.725-.271,3.612.47,3.011-.038.711-.212.7-.882,1.353-2.3,2.787-.466.828-.783,1.884-.324,1.207-.063,1.535-.287,2.213-.545,1.76-.275,1.282-.337.632-.52.636-.982.721-1.527,1.453-1.061,1.317-.366.667-.778,4.505-.911,3.583-.291,1.611-1.461,4.164-.595,1.194-1.327,1.851-.52,1.5-1.389,1.87-1.448,2.692-.562.62-.745,1.332-.324,1.056-.033.771-.208.453-.017.86.117.622-.5.8-.483,1.071-.445,1.16-.137.729.062,3.6-.25,1.387-.054.835.254,2.051.237,5.654.1.58-.4,2.533-.682,3.162-.046.432.233,1.05.066.789L-4.122,5506l-74.269-17.384L-117,5480-161.971,5471l-43.477-52.1-21.364-26.611.5-5.8.47-2.2-.707-.706-.549-.787-.162-.728.919-.434.071-.711.071-.021.054.369.362-1.26-.141-.259-.183-.016-.017-.891-.183-.454.071-.295-.308-.079.15-.6-.221-.569-.037-.433.291-.454-.146-.91-.216-.233-.312.058-.087-.116.033-.216-.163-.238.67-.353-.183-.517.038-.178.291.054.433.337.633,1.144.379-.041.308.315.416,1.028.183.174.071.221-.2.37.366.295.179.039.108.474.233.238-.1.453-.225.018-.017-.121-.217.042.017.215.433.2.021.118-.379-.076-.179.117-.054.295.125.476-.291.216-.071.3.054,1.438.379.729.037.741-.071.444.237.4.379.316.092.276-.2.611-.27-.16-.345.04.037.394.125.138h.4l.217-.1.287-.734.237-.158h.345l.108-.257.4-.18-.037-.475.217-.157.291-.559.054-.9-.071-.338-.237-.236.071-.969-.183-.575v-.433l-.345-.138-.2-.208-.033-.652-.237-.19-.325-.064.017-.158.254.063.071-.079-.054-.458-.162-.317.2-.394.163.116.054.3.254.3v.927l.653.812.058.494-.237.117.145.532.2-.058.2.278.308.987.453.591-.054.4.108.59-.017.67.125.632.271.375.724.212.291-.016.345-.158.379-.433.021-.138-.471-1.3v-.632l.125-.375.324-.12.125-.354.216-.159.237-.553.395-.591.545-.573,0-.121-.221-.07-.037-.337.129-.017.325.374,1.086.529.919.9.2.528-.491,1.228.054.534.416.768-.325.375-.237.632.237,1.54-.254.054-.341.437-.017.769-.237.022-.054.215.163.18.129-.08.145.08-.129.2-.308-.122-.033.67.308.667.291,1.265.325.493.162.788.162.315-.037.533.217.474.091.909-.071,1.281-.254.374.183,1.656.216.475.923,1.362.454.156,1.41,1.181.325.158,1.41.276.687-.021.632.274h.291l.308-.2.745.021,1.048.373.254-.038.037-.115-.183-.155-.32-.081-.291-.313.037-.554.453-.02.271.315.145-.02.433-.591.237-.021.362-.237.832.021.271-.216h.216l.162.2-.091.257.054.217.633.49.815.157.308-.042.887.279,1.032-.258.271-.217-.071-.158.254-.041,1.357,1.419,1.177.553,1.032.1.487.216.237-.057.125-.275.67-.375.466-.02.329.253.562.2.761.1.561.179h.487l.616-.137,2.043.042.9-.157,1.647-.513,1.539-.355,4.452-1.751.433-.3.092-.512.632-.533.687-.294.453-.375,1.739-.922,2.155-.572,2.118-1.2.432-.4.2-.236.221-.633-.075-.354-.994-.791h-.237l-.433-.375-.162-.75.2-.336.507-.117.253.079.163.2-.129.574-.324.217.037.337.994.729.653.019.345-.274.145-.337h1.556l.778-.49.582-.612,2.892-1.167.633-.414.021-.176-.545-.591.253-.77.163-1.109-.038-.509-.146-.179.645-.236.82-.554.653-.179.87.274.2.258.578.138.4-.354.017.071-.416.4.183.275.2.058.071.137.017.886.491.095.957.512.832,1.308.125.476.254.019.345-.137.125-.139-.092-.432.113-.021,1.389-.058.217.217.4.1.183-1.281-.216-.1-.017-.137.237.137.075-.453-.441-.571.059-.082.507.531-.254,1.656.054.237.362.02-.017-1.737.167.023.05.159-.125.037-.017.669.054.888.545-.021-.037-.692.271.059.487.353.179.28.853.822.6.338.741-.1,1.032-.318,2.463-1.064.4-.079.379.042.687.964.378.18.579-.06.524.081.146-.158.291-.1.616-.02,1.123-.732.324-.079.146.116-.071.139.761.71.886-.021,2.026-1.144.2-.195.021-.276.291-.116.2.2.037.234.453.275,1.123.315.233.159.977.239-.017-.179-.507-.138-.507-.633.166.079.071.18.291.258.562.138-.021-.259.113.08.05.353.216.315,1.211.91.832-.038,2.554-.966,1.173.055.453-.142.325-.412-.162-1.622.416-.4h.379l.291.3.487.178.453-.079.167.25h.216l.071-.133.237.117.108.337.27.259,1.086.257.324.216.287.458.112.528.491.155.05.162.378.395.454.417.4.216.345.512,1.194-.1.325.056.017-.451.2,0,.291.24.4-.158.816.316.2-.057-.054-.216.237-.038.47.552.2.118.071.376.125.081.217-.038.416-.512.158-.079-.125.475-.67.647-.162.355.108.078.4-.256.158.431,1.049-.57.6.117.071-.316-.4-.491-.037-.316.325.178.487-.02.2-.275.961-.257.416-.257.4,0,.412.178.291.021h.433l.923-.2,1.123-.808.761-.258.145.021.2.238.329-.2.795.536.233.649.453-.378.071.694.541.237h.254l.054-.433.183-.1-.125.532,1.049.534,1.048.432.433-.2.616.021.241.154.52.791-.125.317.636.825,1.174,1.022.453,0,.325.217.811-.042.47.138h.578l.741-.2,2.5-.375.778-.262.308-.017.977-.475.67-.553.2.237.653.274,1.032.258.995.021.74-.179h.978l.8.076.795.357,1.123-.038,3.3.183,2.833-1.172,2.051-.683,5.176-2.246,1.855-.683,2.734-.1,2.151-1.073,1.856-.782.682-1.759.683-.783,1.464-.391V5385.6l-1.464-1.466-.878-.094-1.074-1.174-1.743-.882-.15-.2-.433-.216-.869-.158-.741.118-.291-.161-.017-.152.075-.064.146.259.145.058.054-.116-.2-.3.017-.225.453-.15.158-.161h.079l.125.22.125-.181-.233-.868-.421-.47v-.179l.4.02,2.75-2.066.279,1.672,1.269,1.761,1.174,1.268,1.66,1.564.978,1.174,1.369.488,2.538-.294,1.564-.586,2.733.586.878-1.759Z" transform="translate(230.556 -5251.379)" fill="#7c7d7d" stroke="#f9f9f9" stroke-width="1"/>
          <path id="AE-DU" d="M2678.351,5047.382l.253.159.217-.159v-.136l.848-.674.238-.379,3.075-3.495.378-.557.724-.636.125-.416.453-.537.346-.2,1.917-2.205,1.465-1.947,2.766-4,.254-.457.017-.3-.163-.078-.074-.2.345.042-.291-.278.183-.238.379.258.092-.436-.378-.359.145-.042.362.4h.125l.453-.581.038-.3.144-.16h-.162l-.145.2-.307.1-.092.137-.125-.058.038-.279.487-.458h.145l.325-.4.162-.042.125.278v.537l-.216.259.017.137.254.06.4-.08.346.159,1.231,1.135.325.815.994.736.054.357-.578.616.037.357-.124.22-.362.042-.686.358-.092.579.378-.259.054-.237.108-.058.217-.041-.038.415.109.122.6-.338.145-.179.291-.1.363-.694-.125-.9.2.079.108-.221-.146-.058-.016.1-.163-.022-.071-.336-.237-.4-.2-.181-.27.059-.163-.1-.362-.794-.453-.3-.957-.935-.254-.157-.76.12-.017-.136.232-.279-.054-.258.525-.221,1.755-1.351.237-.283.808.5,1.7.392.653-.02.849-.141,1.464-.479,1.431-.579.724-.437.761,1.73h0l.671.759h0l1.319.5,1.34.717.561.514.4.679,1.123,1.035,2.389,1.731.707.236h0l1.247.021h0l.254.158.238.336.94,3.542.978,4.75.579,1.69.07.458-.125.437-.325.5-1.7,1.568-.654,1.59-.037.794.162.775.345.792.96,1.112.8.616.216.378.108.974.433,1.25-.178,1.764.125,1.11.633,3.192.379.811.325,2.258v1.488l-.179,1.463-.2.711-.344.653-.487.612-.761.437-.708.218h0l-1.61.135h0l-.795.317-2.2,1.586-.562.278-1.755.18-1.682,1.858-.794.574h0l-.92.487h0l-1.381.511-1.734.328-2.754.134-4.182-.229-.574.1h0l-.141.024h0l-1.722.618-4.182.058-4.631-.158-1.177-2.91-1.069-3.266-.885-2.316-.579-1.865-5.447-15.627h0l-.428-1.278h0l-.088-.239.616-.336.562-.458.707-.3.092.237.454-.336-.037-.316-.416-1.032.145-.218-.091.259.124.4.271.616.325.3.379,1.153-.309.457.254.156.4-.156.324-.3.254-.4.794-.675-.017-.138-.253.042-.325.417-.562.278.109.1-.092.18-.07.021-.038-.138h-.2l-.108-.395,1.177-1.09-.27-.178-.741.672-.162.26-.162.042-.125-.121-.146-.559.054-.136-.291-.695.071-.317h-.237l-.037-.08,1.031-.279Zm73.524,13.964-.325.627-.192.828-.013.786-.22.912-.166.27-1.44.429-.234.616-.27,1.206-.361.281-1.615.514-1.431-.18-.571.042-1.394-.374-.6-.521h0l2-2.27,1.086-2.835h0l1.21-.315,1.195.136,1.573-.238Z" transform="translate(-2448.122 -4971.376)" fill="#7c7d7d" stroke="#f9f9f9" stroke-width="1"/>
          <path id="AE-FU" d="M3496.516,4761.556l-.282.36h0l-.67-1.536-.108-.557-.454-.516h0l-.454-.217h0l.483-.968h0l.2-1.208,1.739-.248,1.7.119,1.091.241h0l.308.233h0l.042,1.452-.37.474-.511.27-2.009.533-.288.883Zm5.788-32.324-.162.416-.072,1.953-.432,1.95-.379,2.9-.054,2.864-.162,1.035.253,4.914h0l-2.138-.112-2.06.121-.969.971v1.333l1.335,2.306v1.7l-.163,2.209h0l-1.169-.392-2.425-.122h0l-1.686-1.658.134-1.711-.632-.631-1.091-1.577-1.457-.608-1.177.171h0l.087-2.109h0v-5.093l.849-2.788.121-1.335,2.392-1.24h0l.066.229.216.22.67.3,2.334.458h.471l.453-.14.887-.875,1.718-1.053.708-.321.432-.614h0l.092-.438h0l.07-.973.254-.479h0l.308-.359.682-.519,1.518-.958h0Zm-12.523-25.2,1.094.912.274.819.458.637.637.544.728.366.885.081,1.514-1.361.108.6.345.659.887.756.162-.043.037-.1-.091-.24.145-.042-.016.242.508-.178-.017-.159-.291-.141.091-.058.453.34.325.021,1.465.641.345-.178.054.2.38.1.236.278.508-.042.125.836-.217,1.615.146,1.077.361.457-.07.339.179.04.071.258.307.1.072.32-.2,1.1-.27.758-.054.58-.162.12-.037.221.2.277.054.338-.071,1.614-.2,1.378.124.577.308.1-.07.337h0l-1.51,1.344h0l-1.069,1.354-.488.38-.578.32-1.88.635-.541.359-.307.437-.146.658h0l-.092,1.334-.217.5h0l-1.627.8-.794.2h-1.086l-.633-.2-.125-.238.4-.678-.053-.158-2.5-.7-.849.08-1.124,1.014-.578.238-.254.4-.037.22.145.08.378.042.924-.179.309.021.216.1.346.616.669.179.941-.1.125.078.038.157-.471.915-.2.222-.67.278-1.411.3-.128.2v.379l.416,1.213-.092.736-.162.138-.541.058-.417,1.037-.47.256-.6.121-.815-.18-.6-.236-.541-.535-.345-.043-.67.158-.632.579-.324.02-.454-.12-.433-.3-.74-.3-1.663.122-.67-.078h0l.037-.636.345-1.154-.323-1.094-.633-1.172h0l.741-.7.253-.12.345.02.654-.715.037-.359-.2-.814-.146-.2-1.3-.677h0l.362-1.194.67-1.435v-.379l.146-.52h0l.469.3.345.4.125.477.345.437.433.221,1.848.322,1.394.677.74.1,1.086-.4.291-.3.237-.7.238-.337.146-.057.993.42.345-.121.233-.538.124-.636-.124-1.893-.108-.121-.325.021-1.464.438-.433-.02-.632-.322-.037-.5-.362-.479v-.357l1.826-1.773.507-.72.254-.657-.017-.4-.362-.3-.794-1.176-.762-.736-.4-.038-.361.158-.9.756-.832.321-1.374-.179-1.685.259-.524-.021-.578-.321-.778-.059-.271-.12-.362-2.355-.524-1.577.238-.478-.563-1.676.071-1.02.324-.441.324-.241.454-.079.541.119.453.3.632-.043.487-.277.454-.059.633-.3.271-.359.271-1,.377-.377.566-.332.778-.758.271-.042.469.6.433.12.433-.12.379-.22.362-.357.416-.2,1.52.078.831-.257.621-.653h0l.037.054.849-.254Z" transform="translate(-3186.736 -4674.002)" fill="#7c7d7d" stroke="#f9f9f9" stroke-width="1"/>
          <path id="AE-RK" d="M3308.979,4380.147l.67.079,1.665-.122.74.3.432.3.454.119.324-.02.633-.578.67-.159.345.041.541.538.6.237.815.179.6-.121.47-.259.416-1.036.541-.058.162-.137.091-.736-.416-1.215v-.379l.128-.2,1.411-.3.669-.28.2-.219.47-.916-.037-.159-.125-.078-.939.1-.67-.18-.346-.616-.217-.1-.308-.02-.923.178-.379-.041-.146-.079.039-.222.253-.4.578-.236,1.124-1.016.848-.078,2.5.7.054.159-.4.678.125.239.632.2h0l-.125.458h0l-.433,1.015.549,3.79h0l-2.392,1.24-.121,1.335-.848,2.787v5.093h0l-.12,2.909h0l.12,1.09.969,1.21.969,1.938-.12,2.305-1.335,1.091v1.09l.969,1.211,2.667.361,2.33.625h0l.67.315h0l.453.516.108.558.669,1.534h0l-.37.392-1.148.362-.848.4-1.086.245-1.135-.095-.4.115-.749.633-1.769-.079-1.573.238-1.194-.137-.454.08-.4.2-.362.04-.325-.1-1.015-1.148-1.448-1.148-.62-.8.116-.179-.449-.831-.307-.986-.084-2.077-.283-1.477-.691-1.51-.657-.412-1.41-.637-1.24-.074h0l0-.883-.27-.716-.832-1.688-.523-.494-.2-.438.145-1.19-.291-1.708,1.539-3.338.179-.616.217-.336.291-.08.071-.158-.687-1.252-1.032-.874-.255-.378.071-1.453.2-.377,1.88-.855.146-.357Zm3.666-50.891-.378.882.092.319-.309.862-.524.919-.128-.1-.072-.241.778-1.66.017-.321.238-.541Zm.561-2.081.238.163.125.341-.092.078-.146-.042-.072.241-.124.08-.092-.32-.4,1.423-.217.1.291-.64.271-1.219.091-.221Zm6.99-8.1.69.9.353,1.636-.278,1.561.021,1.506.282,1.286-.724,5.251-.433,1.014.125.774-.919,2.986-.15,1.157.017,1.307,1.011,2.593-.5,1.294-.2,1.951.1,3.777.158.591.258.374h0l-.619.654-.833.257-1.518-.079-.416.2-.363.357-.379.221-.432.121-.432-.121-.47-.6-.27.042-.791.754-.6.34-.378.379-.271,1-.27.357-.633.3-.453.059-.487.28-.633.041-.453-.3-.541-.12-.452.079-.325.241-.325.44-.07,1.021.562,1.676-.238.479.525,1.576.362,2.356.271.12.778.058.578.321.524.021,1.685-.258,1.372.18.833-.321.9-.757.361-.157.4.037.761.737.795,1.178.363.3.016.4-.254.657-.508.72-1.827,1.771v.359l.362.479.038.5.632.32.432.02,1.465-.437.325-.02.108.121.125,1.893-.125.635-.234.537-.345.122-.994-.42-.146.057-.237.337-.238.7-.291.3-1.086.4-.74-.1-1.393-.679-1.848-.32-.433-.22-.344-.437-.125-.479-.346-.4-.469-.3h0l-.761-.378-.346-.337-.345-.079-.795.079-.217.221-.162.816-.038,1.714-.687,1.393-.361.517-.761-.978-.292-.58h0l-.487-.876-.669-.8-1.394-1.115-1.069-.437-.216-.3.378-.458.578-.4.707-.837-.07-.578h0l-2.9-2.613-.616-.716-.362-.937h0l-.017-1.214.2-1.994-.108-1.076-.362-1.1h0l-.978-1.613h0l-.362-.758-.291-2.134-.146-.5-.291-.357-.562-.078-1.1.177-.537-.133-1.086-1.493,1.319-1.654.309-.621.145-.059.562.279h.254l-.038-.2-.237-.021.054-.379.487.1.2-.059.038-.273-.561-.1-.217-.2-.161.22.037.279-.216.059-.146.242-.125-.022.379-.819.146-.078.146.057.361-.441.488-.819.016-.179.163-.022.091.259-.271.339-.037.2.324.157-.091-.319.453.1.724-.079.94.1.616-.178.108-.143.762-.019.993-.58,1.718-1.439.687-.757.47-.761,1.323-1.361.849-1.361-.054-.28.091-.156h.071l.146.618-.092.28.124.64-.308.18-.253.419-.27.22-.146.321.017.179.308.058-.055-.3.071-.079.27.259.054-.159-.124-.079.054-.121.183-.021.163-.2.253-.079.254.22.363-.08-.093-.457-.578-.158-.07-.2.092-.1.686.2.092-.341-.924-.08-.054-.1.162-.458-.146-.462.217-.02.508-.662.471-.358,1.61-2.3.432-.96.162-.144.072.079-.072.263-.183.158-.108.38-.87,1.06-.232.682-.562.7-.037.2-.417.1-.025.153.216.021.633-.241.054-.178-.071-.159.416-.258.2-.28.146-.518.794-1.539.147-.059.016.122.236-.043.055-.122-.163-.219.071-.1.179.141.092-.421-.092-.12h-.124v-.121l.291-.678.417-.019.178.178.454.08.4-.242.2.04.183.2.2-.2.038-.357-.254.079-.037-.179.215-.057.2-.263v-.141l.237-.142.017-.058-.27.041-.109-.12v-.2l.071-.021.054.22.324-.1-.054-.179-.22-.03.291-.078.055-.262-.237-.542.038-.4-.092-.057.071-.1.125.058.091-.121-.179-.279.162-.18.054-.341.162.021.125-.1.071-.318-.054-.323.2-.057v-.1l-.2-.02-.109-.123-.016-.14.092-.059-.109-.3-.4-.421.053-.5-.4-.142-.016-.64.09-.021.071.2-.09.28.108.121h.378l.071-.2.292-.281.129.042.325-.6.27-.057.125-.72.146-.162.162-.482-.016-.342.2-.682v-.345l.216-.542v-.378l-.146-.178.038-.1.092.18h.108v-.442l.107-.341-.037-.162-.146-.1.071-.12.109.059.037-.059.125-.319v-.38l.416-.5,1.082.17,1.3-.5Z" transform="translate(-3018.758 -4318.796)" fill="#7c7d7d" stroke="#f9f9f9" stroke-width="1"/>
          <path id="AE-SH" d="M3015.99,4875.442l-.47.278v1.074h-.07l.07.379-.07.058-.1-.457-.3-.14.345-.792-.016-.138Zm-7.327,8.732-.482.971h0l-.216-.105h0l-2.33-.623-2.667-.362-.969-1.21v-1.092l1.335-1.087.121-2.306-.969-1.938-.97-1.21-.12-1.091h0l.033-.8h0l1.178-.172,1.455.608,1.091,1.576.632.632-.132,1.711,1.684,1.659h0l.217.012-.945,1.083h0l.121,1.336h0l1.09.361,1.091.607Zm6.258-12.858.237,3.354.309.673.486.021-.562.057-.324,1.1-.125.058v.1l.291.078.146.3v.437l.237.416.308,1.189-1.374.146-.695.262-.321.524-.129.536-.862-.507-1.618-.216h0l.163-2.208v-1.7l-1.336-2.3v-1.335l.969-.971,2.06-.119Zm-4.805-15.023,1.09.486v1.091l-1.09.607h0l-1.09-.489v-.968Zm5.113-9.116.162,1.078-.125,1.093-.346.757-.124.679-.488.1-.125.458.108.6.178.3.326.278.216.1.125-.157.2-.042-.217-.457.217-.159.163.458.507.32-.146.438.091.12.163.021.216.3-.017.1-.237-.057-.054.355.253.238.092.242-.253.121-.163.258-.324.237v.157l.129.121h0l-1.52.958-.681.521-.309.357h0l-.1-1.984h0l-.488-1.577h0l.362-1.817-.2-2.04.89-1.127h0Zm-53.137-4.936,1.177.836.595.322,1.177.378.146.159.146.777.4.379h0l1.464.778h0l4.667,1.416.579.419.508.536.454,1.078,1.031.9,1.735,1.015.688.537h0l.291.418h0l.508,2.568.453.735.253,1.374.649.536.761.279,1.955.12,1.157-.335.832-.579,1.628-.437h0l.344-.258h0l.2-.378.054-.58-.091-.714-.178-.659-.434-.893-.016-.241.233-.219,1.355.136h0l.292.579.761.978.361-.516.688-1.394.037-1.715.162-.815.217-.221.794-.079.345.079.346.336.761.379h0l-.145.52v.38l-.67,1.435-.363,1.194h0l-.795.537-.324.358-.308.736v.337l.292.778.232.377.525.438h0l.632,1.173.324,1.095-.345,1.152-.038.635h0l.017.38-.145.357-1.881.854-.2.376-.071,1.454.254.377,1.032.875.686,1.252-.071.158-.292.079-.216.337-.178.616-1.54,3.337.291,1.709-.146,1.19.2.438.524.495.832,1.689.27.716,0,.881h0l-1.2-.253-1.481.253-2.022.953-1.977,1.227-.49.382-.773.958-2.846,3.845-.2.65-.109,1.464.8,4.463.387,1.193-.03,1.067-.457,2.034.354,1.418h0l-1.223.794-1.934.438-1.086.042-2.281-.474-.977-.337-1.14-.536-1.21-.259h0l.345-.653.2-.711.178-1.464v-1.486l-.325-2.26-.379-.809-.633-3.193-.124-1.11.183-1.765-.434-1.248-.108-.973-.216-.379-.795-.615-.961-1.11-.346-.795-.162-.775.037-.794.652-1.589,1.7-1.569.325-.495.125-.437-.071-.458-.578-1.688-.978-4.751-.941-3.54-.232-.338-.253-.158h0l-1.249-.023h0l-.708-.237-2.387-1.73-1.123-1.035-.4-.679-.561-.516-1.34-.715-1.323-.5h0l-.67-.757h0l-.76-1.73-.724.438-1.431.578-1.465.478-.848.138-.653.021-1.7-.391-.807-.5.146-.512.291-.258.238-.4.231-.041,1.378-2.25.108-.3-.2-.179-.038-.4.471.122.071-.259.328.022.179-.2.092-.335-.129-.042-.345.237h-.2l.017-.079.523-.359.416.18-.253.519-.525.437.017.337.216.237-.254-.021-.054.4.071.138.253-.239-.016.38-.271.079-.018.416.109.437.379.28.324-.042.238-.18.071-.536-.108-.057-.163.057-.124-.1.017-.221.2.042v-.236l-.254-.678-.145-.078-.109.1-.07-.238-.162-.079-.054-.141.27-.04.325-.4.271-.6.145.138.108-.059.125-.278-.253.121-.108-.179.237-.279.542-.22,1.156-.993,1.672,1.184h0l1.015.322h0l.886.356,1.248.179.508.237h0l.4.1h0l1.772-.042,1.865.158.885-.04.615.058.688.22.378-.042.307-.337.653-1.173.67-1.834.232-.916-.07-.178-1.432-.618-.507-.12-2.912.1-.616-.121-1.393-1.256-.378-.236-.325-.043-.325.159h-.433l-.387-.379-.345-.918.092-.046.107.1.072-.2h-.2l-.037-.178.237.021.325-.279.54.378.146-.378.125.12.092.337-.146.521.125-.021.145-.42-.2-.578-.379-.221-.432.058-.453.321-.125-.1.053-.18.108-.021.179-.616.4-.7.708-1.135.786.329.653.519h0Z" transform="translate(-2700.368 -4800.052)" fill="#7c7d7d" stroke="#f9f9f9" stroke-width="1"/>
          <path id="AE-UQ" d="M3107.962,4714.583l-.27-.1-.092-.321.092-.221.4.058-.146-.519.654-.68.125-.521.146-.119.508-.122.523-.379.941-1.334.162-.458.47-.123-.036.142-.18.022-.235.219.361-.141.182.157.254-.021.146-.656.216.1.179-.1-.017-.221-.145.041.037.2-.27-.143.092-.221,1.356-.6.486-.1.778-.636.633-.721,1.1,1.473.536.134,1.1-.179.562.08.291.358.146.5.291,2.132.364.758h0l.977,1.614h0l.361,1.1.109,1.078-.2,1.99.016,1.217h0l.362.936.616.716,2.9,2.611h0l.07.579-.708.837-.578.4-.378.459.216.3,1.069.436,1.394,1.115.67.8.487.877-1.356-.137-.237.22.017.238.432.894.184.657.091.717-.054.578-.2.378h0l-.345.258h0l-1.626.438-.832.578-1.156.338-1.956-.121-.762-.281-.649-.536-.254-1.373-.454-.736-.507-2.568h0l-.291-.419h0l-.687-.536-1.739-1.015-1.032-.9-.454-1.077-.508-.537-.579-.419-4.668-1.415h0l-1.465-.779h0l-.4-.378-.147-.778-.145-.158-1.177-.38-.594-.318-1.178-.838h0l-.67-.637h0l-.654-.52-.781-.312,2.5-4.989.74-.757.217.078.071-.158-.108-.1.47-.376.054-.6.178-.041.054.157.146,1.435-.254.478h-.653l-.091-.241h-.092l-.079.188v.174l.183.284-.038.618-.183.759-.255.479-.037.42.071.519.2.059.091.836.178-.537.217-.079.54.28.417-.06.379-.242.125-.3,1.048.157.162-.142.253.021.379-.42h.2l.27.259.379.079,1.087-.72-.255-.158-.325.241-.453.042-.237-.2.017-.278.254.041Zm.216-2.535-.162-.04-.217-.258-.091-.322-.146-.156-.541.078v-.179l.239-.121-.309-.242-.091.18-.292.041-.415.243-.254.519-.345.279h-.416l-.038.2-.108.021-.2-.158.524-.478.524-.779.487-.159.578-.418.957-.3.309-.178h.253l-.071-.258.487-.058.07.2h.178l.345-.279,1.157-.379,1.01-.957.9-.7.687-.242.037.159-.416.06.092.1-.071.157-.329-.024-.4.242-.686.657-.253.378-.254.12-.707.72-.925.079.184.42.4-.078.125.078v.122l-.217-.1-.271.121-.325-.021-.037-.357-.107-.042v.341l-.092.059-.307-.22h-.146l-.037.22.415.358.037.2-.27.421-.292.179-.379-.457h-.216l-.017.141.486.7.037.14Zm-4.039,3.454-.1-.336.07-.558-.217-.42.091-.138v-.587l.125-.178.037-.479.163-.058.308.537.017.357-.18.08v.142l.18.02.124.32.378.321-.016.621.071.142-.325.242-.145.278.017.24h-.291l-.183-.179.037-.279Zm2.322-3.158.237-.354-.4-.021.037-.18.379.121.216-.1.345-.4.183.02.179.2.017.4.217.041.091.221-.724.637-.146.378-.324.2-.508-.12-.291-.221.037-.221.237-.18Zm.724,1.6.071.06-.761.835-.487-.121-.291-.378-.038-.3.363-.06.6.143Zm-1.648.778.162.18.923.2-.707.378h-.238l-.162-.058-.053-.278-.038-.479Z" transform="translate(-2840.64 -4676.809)" fill="#7c7d7d" stroke="#f9f9f9" stroke-width="1"/>
          <path id="OM-MU" d="M3678.032,4960.457l.1,1.983-.255.479-.069.975h0l-.092.437h0l-.434.615-.707.319-1.719,1.054-.886.873-.453.139h-.47l-2.334-.458-.67-.3-.217-.219-.162-.557-.453-3.463.432-1.015h0l.124-.456h1.086l.8-.2,1.626-.793h0l.216-.5.093-1.335h0l.145-.657.308-.437.541-.358,1.881-.635.578-.321.67-.607.2,2.039-.362,1.817h0Zm-1.938,2.788v-1.091l-1.09-.485h0l-1.09.728v.968l1.09.487Z" transform="translate(-3365.253 -4905.426)" fill="#7c7d7d" stroke="#f9f9f9" stroke-width="1"/>
          <path id="AE-NZ1" d="M3494.849,5421.652l-.254-.242-.079-.6-.154-.108.183-.353-.092-.208-.411-.309-.416-.553-.745-1.519-.117-.4.066-1.349-.142-.221-1.76-1.473-.369-.507-.558-1.036-.087-.441.1-.316.266-.291.74-.3.459-.025.582.154.757.408.312.409,1.4.976.619.8,1.448,1.149,1.011,1.151.329.1h0l-1.085,2.838Z" transform="translate(-3199.93 -5326.24)" fill="#7c7d7d" stroke="#f9f9f9" stroke-width="1"/>
          <path id="AE-NZ2" d="M3705.459,5340.007l-.312-.234h0l-1.09-.241-1.7-.12-1.74.249.042-.249-1.09-.608-1.094-.362h0l-.121-1.335h0l.948-1.079,2.206.11.969.365,1.818.243.862.506Z" transform="translate(-3392.125 -5256.742)" fill="#7c7d7d" stroke="#f9f9f9" stroke-width="1"/>
        </g>
        <g id="Group_580" data-name="Group 580" transform="translate(214.7 67.311)">
          <g id="Ellipse_116" data-name="Ellipse 116" transform="translate(0 0)" fill="#101010" stroke="#101010" stroke-width="1" opacity="0.396">
            <ellipse cx="19.587" cy="19.587" rx="19.587" ry="19.587" stroke="none"/>
            <ellipse cx="19.587" cy="19.587" rx="19.087" ry="19.087" fill="none"/>
          </g>
          <ellipse id="Ellipse_115" data-name="Ellipse 115" cx="5.67" cy="5.67" rx="5.67" ry="5.67" transform="translate(13.917 13.917)" fill="#101010"/>
          <g id="Ellipse_117" data-name="Ellipse 117" transform="translate(0 0)" fill="none" stroke="#101010" stroke-width="1">
            <ellipse cx="19.587" cy="19.587" rx="19.587" ry="19.587" stroke="none"/>
            <ellipse cx="19.587" cy="19.587" rx="19.087" ry="19.087" fill="none"/>
          </g>
        </g>
        <g id="Group_582" data-name="Group 582" transform="translate(284.498 76.574)">
          <g id="Ellipse_116-2" data-name="Ellipse 116" transform="translate(0 0)" fill="#101010" stroke="#101010" stroke-width="1" opacity="0.396">
            <ellipse cx="13.502" cy="13.503" rx="13.502" ry="13.503" stroke="none"/>
            <ellipse cx="13.502" cy="13.503" rx="13.002" ry="13.003" fill="none"/>
          </g>
          <ellipse id="Ellipse_115-2" data-name="Ellipse 115" cx="5.67" cy="5.67" rx="5.67" ry="5.67" transform="translate(7.832 7.832)" fill="#101010"/>
          <g id="Ellipse_117-2" data-name="Ellipse 117" transform="translate(0 0)" fill="none" stroke="#101010" stroke-width="1">
            <ellipse cx="13.502" cy="13.503" rx="13.502" ry="13.503" stroke="none"/>
            <ellipse cx="13.502" cy="13.503" rx="13.002" ry="13.003" fill="none"/>
          </g>
        </g>
        <g id="Group_583" data-name="Group 583" transform="translate(253.875 31.311)">
          <g id="Ellipse_116-3" data-name="Ellipse 116" transform="translate(0 0)" fill="#101010" stroke="#101010" stroke-width="1" opacity="0.396">
            <ellipse cx="13.502" cy="13.503" rx="13.502" ry="13.503" stroke="none"/>
            <ellipse cx="13.502" cy="13.503" rx="13.002" ry="13.003" fill="none"/>
          </g>
          <ellipse id="Ellipse_115-3" data-name="Ellipse 115" cx="5.67" cy="5.67" rx="5.67" ry="5.67" transform="translate(7.832 7.833)" fill="#101010"/>
          <g id="Ellipse_117-3" data-name="Ellipse 117" transform="translate(0 0)" fill="none" stroke="#101010" stroke-width="1">
            <ellipse cx="13.502" cy="13.503" rx="13.502" ry="13.503" stroke="none"/>
            <ellipse cx="13.502" cy="13.503" rx="13.002" ry="13.003" fill="none"/>
          </g>
        </g>
        <g id="Group_581" data-name="Group 581" transform="translate(106.898 121.311)">
          <g id="Ellipse_116-4" data-name="Ellipse 116" transform="translate(0 0)" fill="#101010" stroke="#101010" stroke-width="1" opacity="0.396">
            <ellipse cx="35.051" cy="35.051" rx="35.051" ry="35.051" stroke="none"/>
            <ellipse cx="35.051" cy="35.051" rx="34.551" ry="34.551" fill="none"/>
          </g>
          <ellipse id="Ellipse_115-4" data-name="Ellipse 115" cx="5.67" cy="5.67" rx="5.67" ry="5.67" transform="translate(28.865 29.896)" fill="#101010"/>
          <g id="Ellipse_117-4" data-name="Ellipse 117" transform="translate(0 0)" fill="none" stroke="#101010" stroke-width="1">
            <ellipse cx="35.051" cy="35.051" rx="35.051" ry="35.051" stroke="none"/>
            <ellipse cx="35.051" cy="35.051" rx="34.551" ry="34.551" fill="none"/>
          </g>
        </g>
      </g>
      <text id="USER_MAP" data-name="USER MAP" transform="translate(396 125.311)" fill="#101010" font-size="10" font-family="SegoeUI-Bold, Segoe UI" font-weight="700" letter-spacing="-0.005em"><tspan x="-49.84" y="0">USER MAP</tspan></text>
    </g>
  </g>
</svg>
