<svg xmlns="http://www.w3.org/2000/svg" width="353.228" height="329.33" viewBox="0 0 353.228 329.33">
  <g id="analytics-map-2" transform="translate(0.597 0.515)">
    <g id="Group_3428" data-name="Group 3428" transform="translate(0.001)">
      <path id="AE-AJ" d="M3021.358,4878.768l.969-1.218.543-1.018.2.134.041.245.385-.333.385.063.06.378-.2.754-.018.82.1.112.542.063.079-.087-.06-.134h-.422l-.019-.423.283-.246-.061-.11-.2-.025-.043-.4.241-.065.181.375.121-.087-.042-.311-.361-.445.685-.445.787.445.182-.045.324.111.2-.2-.018-.09h-.329l-.121-.134-.342.064-.384-.156-.018-.357.324-.288-.263-.2-.182.269-.041.376-.807.333-.444-.064-.122-.225,1.03-1.24v-.247l.324-.109.806-1.313-.362-.357.139-.709-.079.644.06.066.223-.066-.018.178.162.089.223-.422-.385-.27.139-.134.385.11.241-.312.121.359-.182.045.019.268.223.136.383,1.1.432.421h.482l.362-.176.362.046.421.27,1.553,1.4.685.136,3.245-.11.566.133,1.594.685.078.2-.258,1.021-.747,2.043-.728,1.308-.342.375-.423.045-.765-.244-.685-.065-.987.045-2.076-.176-1.974.046h0l-.445-.111h0l-.565-.264-1.391-.2-.986-.4h0l-1.131-.356h0Zm40.3,9.127-.583-.488-.26-.421-.324-.868v-.373l.343-.824.362-.4.884-.6,1.451.754.163.223.222.909-.042.4-.727.8-.385-.022-.283.135Z" transform="translate(-2739.018 -4824.076)" fill="#7c7d7d" stroke="#f9f9f9" stroke-width="1"/>
      <path id="AE-AZ" d="M-46.9,5393.551l.218,1.526-1.089.216-1.182-.985-1.428.009-.76-.543.542-1.2,1.525.113,1.307.215Zm-38.1-1.567.4.21.042.728.12.151-.079.154-.361-.023-.343-.2-.019-.816Zm39.829,1.884h-.668l-1.117-2.064,1.117.391.89.666Zm-48.8-3.668.385.041.505.6.227.792.042.834-.51.064-.7-.064-.876.218-.987-.811-.422-.683.06-.263.575-.44ZM-43,5392.363l-.167.781-1.224-.168-1.641-1.882-.978-.235-.056-.947h1.617l.612.781.668.61.556.224Zm-18.955-2.307.746,1.02.672-.124.844.315,2.632.264,1.21.366,1.738,2.1-.051.843-1,2.053-1.631.421-1,.366-1.316-.366-1.525-.214-.264-.628-1.947-.108-.157-1.158-.315-.528-.946-.472-.579.786-.264,1.319.107,1.315-1.84.365-2.841-.107-1.631-.213-.844-.629-1.159-.63-1.474-1.16h-.945l-.686.631-1.1.107-.945-.107-.473-.53-.422-.894,1.1-1.21,1.947-.893,1.557-.052,1.126-.526.51-1.051,2.123-1.268.8.769,3.152-1.456h1.159l.8-.94,1.038-.482.209-.894,1.265-.051.895.53-.529.471-.63.208-.107,1.1Zm-47.842-6.79.668.535.019.328.12.175.686.265.1.708-.079.185-1.168.112-.282-.349-.061-.239-.5-.484-.079-.766Zm9.941-.4.927.416.686.773-.343.155-.505-.019-.186-.136-.278.048-.464.994-.06.655.2.441-.042.529.223.728-.7-.266-.505-1.141-.385-.09-.3-.265-.969-.09-.505-.5-.282-.109-.505.064-.283.218-.12.176-.278,1.3-.185.088-1.312-.111-.2-.441-.324-.374-.385-.064-.338-.382-.426,0-.018-.327.2-.469.2.139.445.025.63-.268.542-.015.185-.223h.3l.222.174.139-.151-.181-.152.2-.135,2.2-.434,1.071-.4,1.191-.04.241-.265Zm20.531,1.544-.978.541-.978-.107-.436-.869.436-.764,1.089-.434Zm-38.063-3.478h.116l.121.176.482,1.1-.018.307.12.216.079.023.181-.286.134.04-.014.29-.264.086.222.505-.181-.087-.125-.306-1.168-.2-.584-.355-.163-.24.1-.769Zm86.7,6.188-.778.611-2.563-.555-1.061,1.117-.612-.389-1-1.174-.222-.947-.612-1-1.9-.277-.334-.778.222-1.507,2.285-.777.945-1.4,1.84,1.4.056.888.445,1,.778,1.347,1.9,1.1Zm-122.141-8,.079.294.927-.138.241.2.783.151.565.4.422.6.181.706.2.042.042,1.759-.019.219-.12.065.074-1.7-.1-.287-.06.68-.223.289.12.638-.264,1.1.106.153-.324.152-.222.618h-.2l.042-.154-.259.111-.505,1.427h-.325l-.4-.264.343.135.185-.066.2-.485-.121-.153-.222.021-.668.552-.042.154.26.1-.3,0,.06.2-.222.219-.121-.045-.385.463-.06.264.042.177.139.022.1-.527.362-.131.148.483-.046.241-1.089.48-.445-.265-.079-.417.343-.9.362.417.1-.023-.422-.878-1.293-1.122-.361-.685-.385-1.23v-.88l.121-.567-.079-.051.524-1.211.584-.768.464-.217.181.023.12.175.343-.064.426-.27-.125-.241h.306v0Zm124.481,2.537-.278.832-.779.225-.945-.167-.232-1.21.676.6.612-.054.5-.891-1.182-1.718-1.381-1.067v-.951h.89l1.006.778,1.617,1.729.111.78Zm-4.736-1.225h-.89l-.779-.945-2.341-.833-1.728-.28-.5-.389,2.952-.169.945-.833.389-.945,1.112-.332.39,1.281-.579.6-.093.908.9.723Zm-196.306-6.029.2.277.908.137h.181l.042-.094.38.042.083.268-.2.088.019.329.079-.224.264.047-.445.393-.018.463h-.181l.083-1.083-.348-.062-.505.2-.12.371.26.511.524.2-.018.087-.645-.2-.343-.528-.4.042.1.486-.162-.439-.44.154-.042.129.12.065-.12.158-.2-.072-.018-.175-.2-.106.12-.4.12-.219.362-.221.422-.659Zm200.4-1.771.1.088-.06.574h-.245l-.2-.574Zm1.307,0,.167.153,0,.173.788.091,1.752,1.5.482.241.927.26.139.138h.241l1.733.64-.12.328-1.251.466-.445-.224-.4.046-.681-.375-.626-.193-.264-.243-1.029-.265-.162-.286-.3-.022-.264.174-.505-.134-.223-.592-.18-1.321-.019-.417Zm-.844.014.186.709-.065.133-.422.023.1-.815Zm13.7-1.232.38.353,1.919.422.2.247,0,.3.181.243-.042.416-.324.179-.223-.019.023-.247-.3-.2-.107.043v.133l-.848.24-.343.616-1.066.134.018-.422-1.191-.1-.264-.289-.1-.552.264-.395.181-.616.246-.114.037.268-.319.683.482.2.282-.064.042-.222.139-.046.139.329.445,0,.042-.158-.162-.134-.2-.926Zm-14.807-1.207-.51.377-.06.882.2.2.019.309.445.529-.445.088-.264-.529.144.611-.324.094-.121-.241.06-.681-.181-.087.12-.224.223-.113.079-.9Zm14.121-.2.181.157.987.088.463.311,1.209.236,1.793.685.482.508.241.71-.264.2-.7.154-.362.2h-.362l-.116-.588-.547-.51-1.432-.4-.4-.381-1.205-.525-.227-.221-.121-.442.121-.153Zm-1.469-.373.445.084.223.157.264.441-.019.155-.241.039-.746-.265Zm-2.822-.9.686.172.866.44.867.224.264.991.241.11.2.265-.89.682.222.615-.181-.089-.728-.905-.2-.02-.505-.422-.626.026-.362-.681-.3-.241.162-.445,1.131.377.12.2.1-.263-1.107-.445.019-.4-.1-.147Zm-2.3-1.332.2.008.728.5-.079.112-.12-.023-.042.552h.241l.283.705.162.086.181.4-.375.681-.246.153h-.283l-.542-.681-.343-.246-.264-.042-.042-.154-.264-.175.176-.311-.158-.375.2-.259v-.223l-.12-.088.1-.417.2-.046.223.312.2.04-.1-.305Zm11.146-1.763.4.268.482.046.079.152-.06.243-.1.065-.867-.178-.121-.24.061-.355Zm1.312-1.452.181.177.116.481-.241.139-.079.352-.362.134-.2-.174-.139-.53.361-.5Zm-4.472-.271.543.382.528.088.339.421.3-.021.482.245.227.3.037.84-.946-.176-.566.486-.162-.11-.422.022-.987-1.014-.079-.353-.264-.023-.2-.33,1.089-.462Zm.218-1.767,2.257.52.324-.147.362.458.283-.111.241.111.482.023.969-.153.482.217-.282.064-.121.88-.481-.854-.287-.021-.218.11-.042.111.945.817-.1.135-.329-.182-.621-.018-.362-.463-.844-.375-.77.133-.2.331h-.4l-.3-.182-.283-.019-.241-.264.018-.288-.463-.2.1-.31-.083-.176-.223-.042.018-.11Zm-3.128-.619.245.031.042.092-.362.288-.422.751-.06.352-.5.574-.241.706.018.4.445,1.28.241.376.12.484.445.706.162.729-.241.575-.162.021-.2-.5.056-.331-.1-.176-.139.176-.264.023-2.239-1.056-1.349-.287-1.131-1.059-.12-.328.1-.087.343.087,1.311-.2,1.029-.472,1.168-1.039Zm6.558-2.6.3.013.482.353.019.663.185.522-.468-.146-.524.021-.042-.2.241-.465-.463-.374-.1-.2.2-.2Zm-1.089-1.367.241.1.084.287-.107.353.018.6.524.859-.222.351h-.163l-.686-.575-.519.107-.811.445-.969-.418-.3.129h-.524l-.019-.241.241-.175-.241-.11.3-.173.1.13.32-.046.107.288.7-.354.384-.372.417-.665-.079-.263.06-.113.885-.041Zm4.917-.486.324.26.422.087v.17l.32.269.042.4h-.246l-.014-.24-.306-.041-.283.02-.162.157-.019-.529-.2-.352Zm-17.352,31.151.38-.242.06-.242-.366-.321-.241-.421.181-.024-.042.129.222.2h.343l.987-.44.162-.2.463-.09.283-.217-.222-.375.12-.152.222.152.06.243.482-.31.181-.194-.019-.309.867-.465.241-.31.12-.222-.1-.085-.464.487-.282-.025.385-.24.385-.731.2-.062.139-.616.385-.4.445.445.362.086,4.194-.218h.1l.1.218h.4l-.06-.282-.282-.027-4.6.2-.385-.24-.144-.394.283-1.055.422.217-.3-.57.018-.328.445-1.679.264.029.06-.135-.06-1.079.079-.153.366-.136,1.307.09.6-.152.222.088.645-.137.181.09.343-.029-.1-.324.042-.258-1.066-.025-.463.129h-.565l-.162.417-.306-.064-.218-.153-.3-.463.143-.089.445.154.663.021-.079-.111-.7-.049-.12-.107.523-.394.241-.328h.181l-.12-.729-.264-.394-.06.2.079.352-.181.2-.061.528-.282.045-.343-.09.1.269-.157.216-.2-.286-.162.023-.139.375-.385-.087-.524-.305.139-.377.139-.064.727.283.121-.287-2.7-.88-.9-.153.019.135,2.377.769-.176.533-.125.019-2.15-.812-.227-.4-.445-.176-.12-.153-.385.064-.241-.217-.1-.246-1.136-.394-.121.047,1.257.5-.107.354-.343-.066-.422-.307-.422-.088-.584-.375-.487.025-1.089-1.058-.686-.5.041-.128h.362l-.1-.172-.459-.03-.246.376-.361-.023-.121-.151.482-.113-.018-.111-.482.022-.181-.087v-.222l-.482-.023-.06.2-.362-.134-.2.443-.848-.53.06-.528.584-.112.181.593,2.438-1.414.362-.878,1.372-1.144.542-.763-.524.217-.686-.686.241-.877.2.127.482-.33.139-.152-.079-.242.162-.176-.746.135-.139.154.079-.2,1.089-.312.12.2.2-.045.222.22-.445.793.807.815.5-.393-.264.393-.426.2-.2.463-.343.417.445,1.035,1.511,1.343.324.2.542,0-.1.134-.361.047.2.241h.3l.042-.2.222.025.542.4.283-.044.3.486.445.312-.139.263.042.175-.139.114.482.264.463-.135.686.08.3.822.825.483.3.353.45-.311,2.294.133.857-.464.353-.11.222.089.788-.223,3.948-1.256.223-.265.083-.4-.1-.17h-.144l-.324.44-.385.112-.584-.154-.181.288-.264.129-.806.112-.2-.117-.1-.676.969-.991.223-.551-.181-.354-2.359-.087-.505-.154-.343.042-.422.271-.547-.065-.463-.221h-.723l-.445-.355-.746-.063-.4.133-.282-.156-.325.025-.445-.24.1-.417.348-.112.158.157.209-.309-.486-.26-.445-1.107-.181-.135.121-.223.139.2.167-.107-.348-.616-.547-.616-.2-.729.019-.415.162-.331.2-.023.079-.263.181-.116.019-.417.422.24.023-.176-.264-.152-.06-.153h1.191l-.162.68.223.593.7,1.124,1.251,1.277.7.243.4-.048,1.348.579,1.228.326,1.228.154.723-.349.385-.354.241-.4.227-.14.32-.634.06-.881.2-.467-.056-.218.32-.148.12-.222-.018-.218h.26l.06.179.1-.128-.019-.182-.788-.549.181-.108.649.565.116-.243.2.065.139-.065.283-.791-.241-.243.626-.866.162-.746-.139-.265-.222-.135-.042-.263-.524-.047-.89.265-.12.11.162.289-.12.087-.764.2-.306.22-.542-.045-.2.266-.162-.063-.283-.595-.329-.2-.218-.33.139-.639-.139-.155.019-.486h-.2l-.222-.375-.079-.441.162-.242.278-.105.167-.358.241-.064.023-.176-.362-.046-.162-.439.143-.458.241-.493.385-.022.343.24-.018.154.283-.024.079-.153.4-.044h.324l.325.151.06.155-.2.133.264.18.042.213-.162.113.12.726.269.311-.047.4-.079.085-.505-.021-.482.132-.06.29.12.174-.079.552.1.4.241.261.139.4.264.109h.079l-.542-.991.3-.616h.223l.649-.375h.9l.181.134,1.451-1.367-.362-.311h-.385l.162-.152-.018-.154-.223-.021-.139-.242.222-.223.413-.093.473.136.686-.2-.218-.134-.264-.481.825.11.139-.175-.3-.043-.139-.195-.464-.069-.06-.177.121-.022.041.088.139-.11-.134-.356-.185-.065-.2.314-.163.881-.764-.129-.061-.112.14-.487-.1-.263.3.176.084-.223-.162-.107h-.524l.324-.352.282-.088H-4.2l-.1.329.1.136.362-.09.282-.6.4-.283-.083-.685-.519.087-.162-.087.019-.417.283-.135.018-.311.2.023.06.265.222-.047-.181-1.056.056-.2-.32-.286-.259.181-.32-.181-.83.023-.361-.352.042-.152.282-.112.116-.2.162.023.162.241h.1l1.048-.7v-.153h-.2l-.825.661.06-.637.422-.4.505-.152v-.088l-.51.131-.639.4-.042-.087.644-.352.283-.351.38-.247v-.2l.139-.152.625-.289.181-.373.422-.33.787-.952.885-1.588.3-.9.343.087.445.4.764.4.663.158.343.237.181-.044.019-.375-.26-.134-.505.021-1.21-.707-.222-.265.2-.75.362-.527.867-.6.125.028-.042.239-.282.465.867-.551.385.135.848,0v1.21l.626.837.264.159.4.488.1-.154-1.052-1.085.181-.023.162-.263-.463-.2-.12-1.591.12-.334-.042-.481h.083l.181.686.121.133.343.022,1.451-.616.065-.152-.125-.31.223.351.6-.088.042-.551.1-.069-.06-.443.116.464-.1.071.019.44,1.39-.862-.222-.376.222-.111-.06.111.125.111.181-.019.223-.512.06.154.181.047.765-.665.019-.13-.5-.289.1-.223.362-.221-.1.35.524.4.343-.684-.324-.2.12-.245.1.061-.12.114.362.4.264-.114-.421-.662.162.023.1.309.163-.021,1.594-.909.426-.532.584.151.844-.75.125-.352.241-.025,1.029-.8,2.438-2.256.4-.152.543.021,2.275-1.149.1.247h0l.478,1.424h0l8.889,25.7,1.312,3.239L37.6,5361l4.658-.064,1.919-.686h0l.157-.028h0l.64-.107,4.658.264,3.068-.148,1.933-.364,1.539-.571h0l1.024-.542h0l.885-.64,1.872-2.072,1.955-.2.626-.311L65,5353.763l.885-.352h0l1.794-.153h0l.788-.241.848-.487.543-.68h0l1.348.288,1.27.6,1.089.377,2.54.527,1.21-.045,2.155-.487,1.363-.886h0l1.409,3.408.12.365-.088.459-.181.409-.412.477-1.483,1.31-.042,1.007.232,1.353-.116.644-1.947,1.192-.162,1.17.334,1.2.028.909.463,1.173.074,4.087-.19,1.191.028.636.134.637.468.251,1.358,1.188.756,1.014.237,1.775.042,2-.116,1.491-1.548,2.183-1.65,2.623-.811,2.675-.014.435.25.333.413.23.607.153,1.08-.008,1.126-.172,1.108.521,1.075.662.505.02.524-.113.741-.5,2.238-1.124,2.7-.148.681.811-.1.774.246.81.236.361.505.446.463,3.619,1.423,1.785,1.678,3.026.232,1.006-.4.311-.728.287-7.809,2.007-4.648,2.419-.728.272-.7-.092-1.7-1.232-.394-.613-.751-.1-2.192.931-.871.144-.723-.045-1.089-.334-4.949-.189-.913.249-.885.446-2.09,1.561.959.009-2.729,1.256-.885.278-.611.454-.992.279-2.711.236-.867.241.134,1.5.246,1.018.579.517,1.538,1.012.918.557,1.089.358.64.524.709.377.348.661.232.807-.3,4.024.524,3.354-.042.791-.236.779-.983,1.507-2.563,3.1-.519.922-.872,2.1L57.15,5436l-.07,1.709-.32,2.466-.607,1.962-.306,1.428-.375.7-.579.708-1.094.8-1.7,1.619-1.182,1.466-.408.744-.867,5.019-1.015,3.989-.324,1.8-1.627,4.638-.663,1.331-1.478,2.062-.579,1.676-1.548,2.082-1.613,3-.626.69-.83,1.483-.361,1.177-.037.858-.232.505-.018.956.13.693-.552.892-.538,1.194-.5,1.292-.153.812.069,4.013-.278,1.544-.06.93.282,2.284.264,6.3.111.647-.445,2.821-.76,3.522-.051.48.259,1.169.074.88-14.876,15.684-82.73-19.363-43-9.6-50.1-10.017-48.43-58.033-23.8-29.642.556-6.467.524-2.451-.788-.786-.612-.876-.18-.811,1.024-.484.079-.791.079-.023.06.411.4-1.4-.157-.287-.2-.019-.019-.994-.2-.5.079-.329-.343-.089.167-.662-.246-.634-.042-.483.325-.5-.163-1.012-.241-.261-.348.064-.1-.129.037-.241-.181-.265.746-.392-.2-.578.042-.2.324.059.482.376.7,1.274.422-.045.343.351.463,1.146.2.193.079.247-.222.411.408.329.2.043.12.528.26.265-.116.5-.25.02-.019-.134-.241.046.018.24.482.222.023.131-.422-.085-.2.129-.06.33.139.53-.324.24-.079.331.06,1.6.422.811.042.825-.079.495.264.441.422.352.1.308-.227.681-.3-.178-.385.045.042.438.139.154h.445l.241-.11.319-.818.264-.175h.385l.12-.287.445-.2-.042-.527.241-.177.324-.622.06-1-.079-.377-.264-.264.079-1.079-.2-.641v-.481l-.385-.154-.222-.232-.037-.727-.264-.211-.362-.072.019-.176.283.07.079-.086-.06-.512-.181-.355.222-.437.181.131.06.328.282.329v1.034l.728.9.065.551-.264.13.162.593.223-.064.222.309.343,1.1.5.658-.06.44.121.658-.019.746.139.7.3.417.807.236.325-.018.384-.176.422-.483.024-.153-.524-1.451v-.705l.139-.417.361-.135.139-.4.241-.176.264-.616.44-.659.607-.638,0-.135-.246-.078-.042-.375.143-.018.362.417,1.21.587,1.024,1,.222.589-.547,1.367.06.594.463.855-.362.418-.264.7.264,1.714-.282.06-.38.486-.018.858-.264.024-.06.238.181.2.144-.088.162.088-.144.221-.343-.137-.037.747.343.743.325,1.408.362.549.18.879.181.352-.042.592.241.529.1,1.011-.079,1.428-.283.416.2,1.845.241.529,1.029,1.517.505.175,1.571,1.316.362.175,1.571.307.765-.023.7.305h.325l.343-.222.83.024,1.168.416.283-.043.042-.128-.2-.173-.357-.09-.324-.348.042-.617.505-.021.3.352.162-.022.482-.659.264-.024.4-.265.927.023.3-.24h.241l.181.216-.1.289.06.243.7.544.908.176.343-.045.988.311,1.149-.288.3-.241-.079-.175.282-.046,1.511,1.58,1.311.616,1.15.107.542.241.264-.064.139-.308.746-.417.519-.022.366.283.626.217.848.112.625.2h.542l.686-.155,2.276.049,1.006-.175,1.835-.571,1.715-.4,4.959-1.95.482-.329.1-.569.7-.594.765-.329.505-.419,1.937-1.026,2.4-.637,2.359-1.338.481-.441.223-.264.246-.7-.084-.394-1.107-.881h-.264l-.482-.417-.18-.836.223-.374.565-.13.282.087.181.219-.144.639-.361.241.042.375,1.107.813.728.021.385-.3.162-.377h1.733l.867-.545.648-.681,3.221-1.3.7-.46.023-.2-.607-.658.282-.857.181-1.235-.042-.567-.162-.2.718-.263.913-.616.728-.2.969.306.223.287.644.154.445-.395.019.08-.464.448.2.308.222.064.079.153.018.988.547.1,1.066.57.927,1.458.139.53.283.019.385-.151.139-.155-.1-.48.125-.023,1.548-.065.241.242.445.109.2-1.425-.241-.113-.018-.152.264.152.084-.5-.492-.636.065-.091.565.593-.283,1.845.06.264.4.023-.019-1.936.186.027.056.176-.139.041-.018.747.06.989.607-.022-.042-.772.3.065.542.394.2.313.95.915.667.376.825-.11,1.149-.355,2.744-1.186.445-.086.422.047.765,1.073.421.2.644-.067.584.089.162-.176.325-.111.686-.022,1.251-.816.361-.089.162.13-.079.154.848.792.987-.022,2.257-1.274.218-.218.023-.308.325-.129.218.227.042.26.5.307,1.251.351.26.177,1.089.265-.018-.2-.565-.154-.565-.706.185.089.079.2.325.286.626.155-.023-.289.125.088.056.395.241.351,1.349,1.012.927-.043,2.845-1.076,1.307.061.505-.157.362-.46-.181-1.806.463-.442h.422l.324.335.542.2.505-.088.186.279h.241l.079-.147.264.129.12.376.3.288,1.21.286.361.24.32.51.125.588.547.173.056.179.421.44.506.465.445.24.385.57,1.33-.113.362.063.019-.5.218,0,.325.267.445-.175.908.351.223-.062-.06-.24.264-.043.524.615.223.131.079.419.139.09.241-.042.463-.569.176-.089-.139.53-.746.721-.181.4.12.086.449-.285.176.479,1.168-.633.667.129.079-.352-.445-.546-.042-.353.362.2.542-.021.223-.308,1.07-.285.464-.288.449,0,.459.2.324.024h.482l1.029-.218,1.251-.9.848-.288.162.022.223.266.366-.222.885.6.259.723.505-.422.079.773.6.264h.282l.06-.481.2-.112-.139.593,1.168.595,1.168.481.482-.217.686.022.269.171.579.881-.139.354.709.918,1.307,1.138.5,0,.362.241.9-.045.524.154h.644l.825-.219,2.781-.417.867-.292.343-.019,1.089-.527.746-.617.222.264.728.306,1.149.287,1.108.023.825-.2h1.089l.89.084.885.4,1.251-.042,3.67.2,3.156-1.306,2.285-.761,5.766-2.5,2.067-.761,3.045-.107,2.4-1.195,2.067-.873.76-1.959.76-.873,1.631-.434v-1.2l-1.631-1.634-.978-.1-1.2-1.308-1.942-.984-.167-.222-.482-.24-.968-.177-.825.131-.325-.18-.019-.17.083-.072.163.29.162.064.06-.128-.222-.33.019-.25.505-.167.176-.179h.088l.139.246.139-.2-.259-.969-.468-.522v-.2l.445.021,3.064-2.3.311,1.863,1.413,1.961,1.307,1.413,1.849,1.743,1.089,1.308,1.525.542,2.827-.328,1.742-.652,3.045.652.978-1.958Z" transform="translate(230.556 -5242.398)" fill="#7c7d7d" stroke="#f9f9f9" stroke-width="1"/>
      <path id="AE-DU" d="M2678.782,5049.757l.282.178.242-.178v-.151l.944-.75.265-.424,3.425-3.892.422-.621.806-.709.14-.463.5-.6.385-.223,2.136-2.457,1.632-2.168,3.081-4.455.283-.509.019-.334-.181-.086-.083-.223.385.046-.324-.31.2-.266.422.289.1-.486-.421-.4.162-.046.4.447h.14l.5-.647.042-.332.16-.178h-.18l-.162.222-.343.112-.1.153-.14-.064.042-.311.542-.51h.162l.362-.445.181-.046.139.309v.6l-.241.288.019.153.283.066.444-.088.385.176,1.371,1.265.362.908,1.108.82.061.4-.644.686.041.4-.138.245-.4.047-.764.4-.1.645.422-.289.06-.264.121-.064.241-.045-.041.461.121.136.668-.377.162-.2.324-.111.4-.773-.14-1,.222.088.121-.247-.162-.064-.018.113-.181-.026-.079-.374-.264-.444-.223-.2-.3.066-.182-.111-.4-.884-.5-.336-1.066-1.042-.283-.174-.847.133-.018-.151.259-.312-.06-.286.584-.248,1.955-1.5.264-.314.9.553,1.891.437.727-.022.946-.158,1.631-.533,1.594-.645.807-.487.848,1.928h0l.747.845h0l1.469.555,1.492.8.624.572.446.756,1.251,1.153,2.661,1.929.788.263h0l1.389.024h0l.283.176.265.375,1.047,3.945,1.089,5.291.645,1.883.078.509-.139.487-.362.551-1.895,1.747-.728,1.771-.041.884.18.863.384.883,1.07,1.239.887.686.24.421.12,1.085.482,1.391-.2,1.965.139,1.235.7,3.557.422.9.362,2.516v1.657l-.2,1.63-.223.792-.384.728-.543.681-.847.487-.788.244h0l-1.794.149h0l-.885.354-2.456,1.767-.626.31-1.955.2-1.874,2.07-.885.639h0l-1.024.543h0l-1.539.569-1.931.365-3.068.149-4.658-.255-.64.106h0l-.157.027h0l-1.918.688-4.658.064-5.158-.176-1.311-3.24-1.191-3.638-.987-2.581-.645-2.078-6.067-17.407h0l-.477-1.423h0l-.1-.267.686-.375.625-.51.788-.335.1.265.506-.375-.042-.352-.463-1.148.161-.243-.1.288.138.441.3.686.361.333.423,1.285-.344.508.283.175.446-.175.362-.333.282-.439.884-.752-.018-.153-.282.046-.362.464-.625.309.121.111-.1.2-.078.023-.042-.154h-.223l-.121-.439,1.312-1.214-.3-.2-.825.749-.181.29-.181.046-.138-.135-.162-.622.06-.151-.324-.774.079-.353h-.264l-.041-.089,1.148-.311Zm81.9,15.554-.362.7-.213.923-.014.875-.245,1.016-.185.3-1.6.478-.261.687-.3,1.342-.4.313-1.8.573-1.594-.2-.635.046-1.552-.416-.667-.58h0l2.224-2.528,1.21-3.158h0l1.348-.351,1.33.152,1.752-.266Z" transform="translate(-2422.326 -4965.092)" fill="#7c7d7d" stroke="#f9f9f9" stroke-width="1"/>
      <path id="AE-FU" d="M3498.9,4768.109l-.314.4h0l-.746-1.711-.12-.621-.5-.574h0l-.505-.243h0l.538-1.078h0l.222-1.345,1.938-.276,1.89.132,1.215.269h0l.343.26h0l.046,1.618-.412.528-.57.3-2.238.594-.321.984Zm6.447-36.006-.179.462-.08,2.176-.481,2.171-.422,3.233-.06,3.191-.18,1.153.282,5.473h0l-2.381-.124-2.295.133-1.079,1.082v1.485l1.488,2.568V4757l-.182,2.461h0l-1.3-.437-2.7-.135h0l-1.878-1.846.15-1.907-.7-.7-1.215-1.756L3490.5,4752l-1.311.191h0l.1-2.349h0v-5.674l.945-3.1.134-1.488,2.665-1.381h0l.074.255.241.245.746.335,2.6.51h.525l.5-.155.989-.975,1.912-1.172.789-.358.481-.684h0l.1-.489h0l.078-1.084.284-.533h0l.343-.4.76-.577,1.691-1.068h0Zm-13.949-28.076,1.22,1.015.305.914.51.708.71.606.811.408.987.089,1.687-1.517.12.667.385.734.989.842.18-.049.042-.11-.1-.268.161-.047-.017.27.565-.2-.018-.177-.324-.157.1-.064.5.378.362.024,1.632.713.385-.2.06.221.423.114.263.309.565-.047.139.932-.24,1.8.162,1.2.4.508-.079.378.2.043.078.288.343.113.08.356-.224,1.222-.3.844-.06.646-.18.134-.042.247.222.309.06.377-.078,1.8-.222,1.537.139.642.343.111-.079.375h0l-1.682,1.5h0l-1.191,1.509-.543.423-.645.357-2.094.707-.6.4-.342.485-.162.732h0l-.1,1.487-.241.557h0l-1.812.886-.885.222h-1.209l-.7-.222-.139-.265.445-.754-.06-.176-2.781-.779-.945.088-1.252,1.13-.644.265-.283.445-.042.245.162.089.421.047,1.029-.2.344.023.241.111.385.686.745.2,1.048-.11.139.087.043.175-.524,1.019-.222.247-.747.309-1.572.336-.142.222v.423l.463,1.351-.1.821-.181.153-.6.064-.464,1.155-.524.285-.667.135-.908-.2-.666-.263-.6-.6-.385-.047-.746.175-.7.646-.361.021-.506-.132-.482-.333-.824-.337-1.853.136-.747-.087h0l.041-.708.385-1.286-.361-1.218-.705-1.306h0l.825-.775.282-.134.385.023.728-.8.041-.4-.221-.908-.163-.223-1.45-.753h0l.4-1.331.746-1.6v-.423l.163-.579h0l.523.333.385.447.139.532.385.487.482.246,2.059.359,1.552.753.824.11,1.21-.446.324-.333.264-.778.265-.376.162-.063,1.107.468.385-.135.26-.6.138-.709-.138-2.108-.12-.135-.363.022-1.63.488-.483-.021-.7-.358-.042-.556-.4-.533v-.4l2.034-1.975.565-.8.283-.731-.019-.445-.4-.335-.884-1.311-.849-.819-.445-.042-.4.176-1.006.844-.926.357-1.53-.2-1.877.289-.583-.023-.645-.357-.866-.065-.3-.134-.4-2.624-.584-1.757.265-.532-.627-1.866.079-1.136.361-.492.362-.268.506-.088.6.131.5.335.7-.047.542-.31.505-.064.705-.333.3-.4.3-1.115.42-.42.631-.369.866-.845.3-.047.523.669.483.133.482-.133.422-.246.4-.4.464-.225,1.692.087.926-.287.691-.728h0l.041.061.945-.283Z" transform="translate(-3153.828 -4670.582)" fill="#7c7d7d" stroke="#f9f9f9" stroke-width="1"/>
      <path id="AE-RK" d="M3310.75,4387.136l.746.088,1.855-.136.824.333.482.336.506.132.36-.022.705-.643.746-.177.385.046.6.6.667.263.907.2.668-.134.524-.288.463-1.153.6-.065.181-.152.1-.82-.463-1.354v-.421l.143-.223,1.573-.333.744-.312.223-.243.524-1.021-.041-.177-.14-.087-1.046.114-.746-.2-.385-.687-.241-.112-.343-.021-1.029.2-.421-.045-.163-.087.043-.248.282-.444.644-.264,1.253-1.13.944-.088,2.781.777.06.177-.444.754.139.267.7.222h0l-.138.508h0l-.482,1.131.612,4.222h0l-2.665,1.381-.135,1.487-.945,3.1v5.673h0l-.135,3.24h0l.135,1.214,1.08,1.347,1.079,2.16-.134,2.569-1.487,1.214v1.215l1.08,1.349,2.971.4,2.6.7h0l.746.35h0l.505.576.121.621.746,1.708h0l-.413.438-1.28.4-.945.446-1.21.273-1.265-.106-.449.128-.834.706-1.969-.088-1.752.264-1.331-.153-.506.089-.444.221-.4.044-.362-.109-1.13-1.279-1.613-1.279-.691-.891.129-.2-.5-.925-.342-1.1-.093-2.313-.315-1.646-.769-1.682-.733-.458-1.571-.71-1.381-.083h0l0-.983-.3-.8-.927-1.881-.583-.551-.224-.486.162-1.326-.324-1.9,1.715-3.718.2-.687.242-.374.324-.088.079-.176-.765-1.4-1.149-.973-.284-.421.079-1.619.223-.42,2.095-.953.163-.4Zm4.083-56.688-.422.983.1.355-.344.96-.583,1.024-.143-.111-.08-.269.866-1.849.018-.358.266-.6Zm.625-2.318.264.18.14.381-.1.086-.162-.046-.08.269-.138.088-.1-.357-.445,1.585-.242.11.324-.712.3-1.358.1-.247Zm7.786-9.028.769,1,.394,1.822-.31,1.737.024,1.678.314,1.433-.806,5.85-.482,1.129.138.862-1.023,3.327-.167,1.289.019,1.456,1.125,2.887-.551,1.442-.227,2.174.111,4.207.176.658.287.417h0l-.69.729-.927.287-1.691-.087-.463.223-.4.4-.423.246-.48.134-.481-.134-.525-.667-.3.046-.881.84-.667.378-.422.423-.3,1.112-.3.4-.7.334-.505.065-.541.312-.705.046-.5-.334-.6-.135-.5.09-.362.268-.363.49-.077,1.137.626,1.867-.265.534.584,1.755.4,2.625.3.132.867.065.644.358.583.022,1.877-.288,1.529.2.927-.358,1.005-.843.4-.175.446.041.848.82.885,1.313.4.334.018.444-.283.733-.566.8-2.034,1.971v.4l.4.534.041.557.7.356.482.022,1.632-.487.361-.022.121.135.139,2.108-.139.707-.26.6-.385.136L3320.4,4376l-.162.063-.265.375-.265.778-.324.334-1.21.443-.825-.109-1.552-.755-2.059-.357-.482-.244-.383-.488-.139-.533-.386-.446-.523-.334h0l-.849-.42-.385-.375-.385-.088-.884.088-.242.245-.179.909-.042,1.91-.765,1.551-.4.576-.849-1.09-.324-.646h0l-.542-.976-.746-.887-1.552-1.241-1.192-.486-.241-.335.421-.508.644-.445.787-.932-.078-.645h0l-3.225-2.91-.686-.8-.4-1.044h0l-.019-1.353.224-2.221-.121-1.2-.4-1.225h0l-1.09-1.8h0l-.4-.845-.325-2.378-.162-.556-.324-.4-.626-.087-1.228.2-.6-.147-1.21-1.664,1.469-1.843.344-.691.161-.065.626.311h.283l-.042-.222-.264-.023.061-.422.542.112.222-.066.042-.3-.625-.116-.242-.223-.18.246.042.31-.241.065-.162.269-.14-.024.422-.913.163-.086.161.063.4-.49.544-.913.018-.2.182-.024.1.289-.3.378-.041.225.36.175-.1-.356.5.112.807-.089,1.047.107.686-.2.121-.159.848-.023,1.107-.645,1.913-1.6.766-.845.523-.846,1.475-1.516.945-1.517-.06-.311.1-.174h.079l.163.689-.1.312.138.713-.342.2-.282.467-.3.245-.162.357.019.2.343.064-.06-.334.079-.088.3.288.06-.177-.139-.087.062-.135.2-.023.181-.223.282-.087.283.245.4-.088-.1-.509-.644-.175-.078-.225.1-.111.765.223.1-.379-1.029-.09-.06-.11.181-.509-.164-.515.241-.022.565-.737.525-.4,1.792-2.562.482-1.068.18-.161.08.089-.08.292-.2.176-.12.422-.969,1.181-.259.76-.626.778-.041.223-.465.112-.027.17.24.023.706-.269.06-.2-.08-.177.464-.287.222-.312.163-.578.885-1.714.163-.065.019.136.263-.048.062-.135-.182-.244.08-.111.2.157.1-.469-.1-.134h-.139v-.134l.324-.755.464-.022.2.2.506.089.444-.27.222.045.2.225.223-.225.042-.4-.283.089-.041-.2.24-.062.223-.294v-.157l.264-.158.02-.064-.3.045-.121-.135v-.22l.079-.024.06.244.361-.11-.06-.2-.246-.034.324-.086.061-.292-.265-.6.042-.447-.1-.063.079-.11.14.065.1-.134-.2-.311.181-.2.06-.379.18.022.14-.112.078-.354-.06-.36.221-.062v-.113l-.221-.021-.121-.136-.018-.157.1-.066-.121-.333-.444-.469.059-.555-.444-.159-.018-.713.1-.024.079.223-.1.312.12.134h.422l.079-.221.325-.314.144.048.362-.667.3-.064.139-.8.163-.181.18-.536-.019-.383.221-.759v-.386l.241-.6v-.421l-.163-.2.042-.111.1.2h.121v-.493l.119-.38-.041-.18-.162-.113.079-.133.121.065.041-.065.139-.355v-.423l.463-.555,1.206.189,1.45-.556Z" transform="translate(-2987.466 -4318.795)" fill="#7c7d7d" stroke="#f9f9f9" stroke-width="1"/>
      <path id="AE-SH" d="M3023.721,4879.4l-.524.311v1.2h-.078l.078.421-.078.065-.107-.509-.339-.155.385-.882-.018-.154Zm-8.162,9.727-.537,1.082h0l-.241-.117h0l-2.6-.693-2.971-.4-1.079-1.349v-1.215l1.487-1.211.135-2.57-1.08-2.159-1.08-1.349-.134-1.215h0l.036-.893h0l1.313-.192,1.621.678,1.215,1.754.7.7-.147,1.908,1.876,1.848h0l.241.012-1.052,1.207h0l.135,1.488h0l1.214.4,1.215.676Zm6.971-14.323.263,3.735.344.75.541.024-.626.063-.361,1.22-.139.065v.111l.323.087.163.333v.488l.264.462.343,1.325-1.53.164-.774.292-.357.584-.144.6-.959-.565-1.8-.241h0l.181-2.458v-1.894l-1.488-2.565v-1.487l1.08-1.083,2.294-.133Zm-5.353-16.735,1.213.54v1.217l-1.213.676h0l-1.215-.544v-1.079Zm5.7-10.155.18,1.2-.139,1.219-.385.844-.138.756-.543.11-.139.509.121.669.2.333.363.311.24.11.139-.177.223-.045-.241-.509.241-.177.181.511.565.355-.162.487.1.135.182.023.24.333-.019.11-.264-.063-.06.4.282.266.1.27-.281.134-.182.287-.361.264v.176l.144.134h0l-1.693,1.067-.759.581-.344.4h0l-.11-2.211h0l-.543-1.756h0l.4-2.024-.217-2.273.991-1.255h0Zm-59.191-5.5,1.312.932.662.358,1.311.421.162.178.162.864.445.423h0l1.631.866h0l5.2,1.578.645.465.566.6.505,1.2,1.148,1,1.932,1.131.767.6h0l.324.466h0l.565,2.861.5.819.282,1.531.723.595.848.312,2.178.134,1.288-.374.927-.645,1.813-.488h0l.384-.287h0l.223-.42.06-.646-.1-.8-.2-.734-.483-.995-.018-.27.26-.243,1.51.151h0l.325.645.848,1.089.4-.574.766-1.553.041-1.91.18-.908.241-.246.885-.088.385.088.385.373.848.423h0l-.162.579v.424l-.746,1.6-.4,1.329h0l-.886.6-.36.4-.344.82v.375l.325.866.259.42.585.488h0l.7,1.308.362,1.218-.385,1.284-.042.707h0l.019.424-.161.4-2.094.95-.223.419-.079,1.619.282.42,1.15.975.764,1.4-.079.176-.325.088-.24.375-.2.686-1.716,3.717.325,1.9-.162,1.325.222.488.584.55.927,1.884.3.8,0,.98h0l-1.339-.282-1.65.282-2.253,1.062-2.2,1.366-.546.426-.861,1.066-3.17,4.283-.218.724-.122,1.631.887,4.972.431,1.329-.034,1.189-.509,2.265.393,1.58h0l-1.362.884-2.155.487-1.209.047-2.54-.527-1.089-.377-1.27-.6-1.348-.289h0l.384-.727.223-.793.2-1.632v-1.654l-.362-2.518-.422-.9-.7-3.557-.139-1.236.2-1.966-.483-1.39-.12-1.084-.24-.423-.886-.686-1.071-1.235-.384-.886-.18-.863.042-.884.726-1.771,1.9-1.747.362-.551.139-.487-.08-.51-.644-1.881-1.088-5.292-1.048-3.943-.26-.376-.282-.176h0l-1.39-.025h0l-.789-.264-2.659-1.928-1.25-1.153-.446-.756-.625-.574-1.493-.8-1.474-.557h0l-.747-.843h0l-.847-1.928-.806.487-1.594.644-1.632.531-.945.154-.727.023-1.891-.435-.9-.555.163-.571.324-.288.265-.445.258-.045,1.535-2.506.12-.335-.222-.2-.043-.445.526.136.079-.289.366.023.2-.223.1-.373-.144-.047-.385.263h-.221l.018-.086.583-.4.463.2-.282.579-.584.487.019.375.241.265-.283-.023-.06.446.078.154.283-.267-.018.424-.3.086-.019.463.121.486.423.312.361-.045.266-.2.078-.6-.12-.063-.183.063-.138-.112.018-.247.223.047v-.264l-.283-.755-.162-.086-.122.11-.078-.265-.181-.088-.061-.158.3-.044.361-.447.3-.667.161.155.12-.067.139-.31-.282.135-.12-.2.264-.312.6-.245,1.288-1.106,1.863,1.318h0l1.131.359h0l.987.4,1.39.2.566.264h0l.446.112h0l1.973-.047,2.078.176.986-.045.686.064.766.246.421-.046.342-.375.728-1.307.746-2.043.259-1.02-.077-.2-1.6-.686-.565-.133-3.244.111-.687-.135-1.552-1.4-.421-.264-.362-.048-.362.177h-.482l-.431-.423-.385-1.022.1-.051.12.11.08-.224h-.222l-.042-.2.264.023.362-.311.6.421.162-.421.14.134.1.376-.163.581.14-.025.162-.466-.221-.645-.423-.247-.481.065-.505.356-.139-.111.059-.2.121-.022.2-.686.445-.777.789-1.265.876.366.728.577h0Z" transform="translate(-2672.143 -4795.417)" fill="#7c7d7d" stroke="#f9f9f9" stroke-width="1"/>
      <path id="AE-UQ" d="M3108.841,4715.438l-.3-.112-.1-.357.1-.247.444.065-.163-.579.729-.757.139-.579.163-.134.566-.135.583-.422,1.048-1.486.181-.51.523-.137-.04.158-.2.026-.262.245.4-.157.2.173.283-.022.162-.73.24.11.2-.11-.018-.246-.162.046.041.224-.3-.159.1-.246,1.511-.668.541-.11.867-.708.7-.8,1.228,1.642.6.148,1.229-.2.626.089.324.4.163.557.323,2.375.405.844h0l1.088,1.8h0l.4,1.225.122,1.2-.222,2.217.017,1.356h0l.4,1.042.686.8,3.226,2.908h0l.078.646-.789.932-.643.441-.422.512.241.334,1.191.486,1.552,1.243.746.884.542.977-1.511-.152-.264.246.02.265.481,1,.2.732.1.8-.061.644-.222.421h0l-.385.288h0l-1.812.487-.927.644-1.288.376-2.178-.134-.848-.314-.722-.6-.283-1.53-.506-.82-.565-2.861h0l-.324-.467h0l-.765-.6-1.937-1.131-1.149-1-.505-1.2-.565-.6-.645-.466-5.2-1.576h0l-1.632-.868h0l-.443-.421-.163-.866-.162-.177-1.312-.423-.662-.354-1.312-.934h0l-.746-.709h0l-.729-.58-.87-.346,2.78-5.558.824-.842.241.086.079-.176-.121-.111.524-.419.06-.669.2-.044.06.175.163,1.6-.283.532h-.728l-.1-.268h-.1l-.088.209v.194l.2.316-.042.689-.2.846-.284.532-.041.469.079.579.222.065.1.931.2-.6.242-.088.6.312.464-.066.422-.269.139-.333,1.168.176.18-.158.282.023.422-.468h.222l.3.288.422.089,1.211-.8-.284-.176-.362.269-.5.047-.264-.224.019-.309.283.044Zm.24-2.824-.18-.044-.242-.288-.1-.358-.162-.175-.6.088v-.2l.266-.134-.344-.269-.1.2-.326.046-.462.27-.283.578-.385.311h-.464l-.042.222-.12.024-.221-.176.583-.532.583-.869.543-.176.643-.466,1.066-.336.344-.2h.282l-.079-.289.543-.064.077.223h.2l.384-.312,1.29-.421,1.125-1.066,1.006-.778.765-.27.041.177-.463.066.1.11-.079.175-.366-.026-.445.269-.764.731-.282.422-.283.133-.787.8-1.03.088.2.466.444-.085.14.085v.137l-.241-.112-.3.134-.363-.022-.042-.4-.12-.047v.379l-.1.066-.342-.245h-.163l-.041.245.462.4.042.22-.3.47-.325.2-.421-.509h-.241l-.019.156.542.781.041.155Zm-4.5,3.847-.115-.374.078-.623-.241-.467.1-.155v-.655l.14-.2.041-.534.181-.063.343.6.019.4-.2.087v.158l.2.022.138.357.421.356-.018.692.079.158-.362.27-.161.309.018.269h-.324l-.2-.2.041-.312Zm2.585-3.517.264-.394-.445-.023.041-.2.422.134.24-.111.385-.444.2.022.2.223.019.446.242.044.1.248-.807.71-.163.421-.362.222-.565-.134-.324-.245.041-.246.264-.2Zm.807,1.782.078.066-.849.932-.542-.135-.324-.42-.043-.334.4-.066.667.159Zm-1.836.867.181.2,1.028.222-.787.421h-.265l-.181-.064-.059-.31-.042-.533Z" transform="translate(-2811.064 -4673.361)" fill="#7c7d7d" stroke="#f9f9f9" stroke-width="1"/>
      <path id="OM-MU" d="M3679.036,4961.077l.112,2.209-.283.534-.078,1.085h0l-.1.487h0l-.483.684-.788.357-1.914,1.174-.987.971-.5.154h-.524l-2.6-.51-.746-.335-.241-.245-.18-.619-.505-3.857.482-1.13h0l.138-.508h1.21l.885-.226,1.811-.884h0l.24-.557.1-1.487h0l.162-.732.342-.486.6-.4,2.095-.708.644-.356.746-.677.218,2.271-.4,2.024h0Zm-2.16,3.1v-1.215l-1.214-.54h0l-1.214.812v1.077l1.214.543Z" transform="translate(-3330.624 -4899.776)" fill="#7c7d7d" stroke="#f9f9f9" stroke-width="1"/>
      <path id="AE-NZ1" d="M3495.411,5422.819l-.282-.27-.088-.671-.171-.121.2-.393-.1-.234-.458-.341-.463-.616-.829-1.692-.13-.45.074-1.5-.158-.245-1.96-1.641-.412-.565-.622-1.153-.1-.493.111-.351.3-.323.824-.33.512-.028.647.17.844.456.347.455,1.559,1.088.689.89,1.613,1.28,1.126,1.282.366.107h0l-1.208,3.162Z" transform="translate(-3166.894 -5316.539)" fill="#7c7d7d" stroke="#f9f9f9" stroke-width="1"/>
      <path id="AE-NZ2" d="M3706.267,5340.461l-.348-.261h0l-1.214-.269-1.89-.132-1.939.277.047-.277-1.214-.678-1.219-.4h0l-.134-1.488h0l1.056-1.2,2.457.122,1.08.407,2.026.271.959.563Z" transform="translate(-3357.238 -5247.709)" fill="#7c7d7d" stroke="#f9f9f9" stroke-width="1"/>
    </g>
    <g id="Group_3429" data-name="Group 3429" transform="translate(239.161 74.98)">
      <g id="Ellipse_116" data-name="Ellipse 116" transform="translate(-0.001 -0.001)" fill="#101010" stroke="#101010" stroke-width="1" opacity="0.396">
        <ellipse cx="21.819" cy="21.819" rx="21.819" ry="21.819" stroke="none"/>
        <ellipse cx="21.819" cy="21.819" rx="21.319" ry="21.319" fill="none"/>
      </g>
      <ellipse id="Ellipse_115" data-name="Ellipse 115" cx="6.316" cy="6.316" rx="6.316" ry="6.316" transform="translate(15.502 15.502)" fill="#101010"/>
      <g id="Ellipse_117" data-name="Ellipse 117" transform="translate(-0.001 -0.001)" fill="none" stroke="#101010" stroke-width="1">
        <ellipse cx="21.819" cy="21.819" rx="21.819" ry="21.819" stroke="none"/>
        <ellipse cx="21.819" cy="21.819" rx="21.319" ry="21.319" fill="none"/>
      </g>
    </g>
    <g id="Group_3431" data-name="Group 3431" transform="translate(282.796 34.877)">
      <g id="Ellipse_116-2" data-name="Ellipse 116" transform="translate(0 0)" fill="#101010" stroke="#101010" stroke-width="1" opacity="0.396">
        <ellipse cx="15.041" cy="15.041" rx="15.041" ry="15.041" stroke="none"/>
        <ellipse cx="15.041" cy="15.041" rx="14.541" ry="14.541" fill="none"/>
      </g>
      <ellipse id="Ellipse_115-2" data-name="Ellipse 115" cx="6.316" cy="6.316" rx="6.316" ry="6.316" transform="translate(8.724 8.725)" fill="#101010"/>
      <g id="Ellipse_117-2" data-name="Ellipse 117" transform="translate(0 0)" fill="none" stroke="#101010" stroke-width="1">
        <ellipse cx="15.041" cy="15.041" rx="15.041" ry="15.041" stroke="none"/>
        <ellipse cx="15.041" cy="15.041" rx="14.541" ry="14.541" fill="none"/>
      </g>
    </g>
    <g id="Group_3437" data-name="Group 3437" transform="translate(315.922 74.979)">
      <g id="Ellipse_116-3" data-name="Ellipse 116" transform="translate(0 0)" fill="#101010" stroke="#101010" stroke-width="1" opacity="0.396">
        <ellipse cx="15.04" cy="15.04" rx="15.04" ry="15.04" stroke="none"/>
        <ellipse cx="15.04" cy="15.04" rx="14.54" ry="14.54" fill="none"/>
      </g>
      <ellipse id="Ellipse_115-3" data-name="Ellipse 115" cx="6.316" cy="6.316" rx="6.316" ry="6.316" transform="translate(8.724 8.724)" fill="#101010"/>
      <g id="Ellipse_117-3" data-name="Ellipse 117" transform="translate(0 0)" fill="none" stroke="#101010" stroke-width="1">
        <ellipse cx="15.04" cy="15.04" rx="15.04" ry="15.04" stroke="none"/>
        <ellipse cx="15.04" cy="15.04" rx="14.54" ry="14.54" fill="none"/>
      </g>
    </g>
    <g id="Group_3432" data-name="Group 3432" transform="translate(119.08 135.131)">
      <g id="Ellipse_116-4" data-name="Ellipse 116" transform="translate(-0.001 0)" fill="#101010" stroke="#101010" stroke-width="1" opacity="0.396">
        <ellipse cx="39.044" cy="39.044" rx="39.044" ry="39.044" stroke="none"/>
        <ellipse cx="39.044" cy="39.044" rx="38.544" ry="38.544" fill="none"/>
      </g>
      <ellipse id="Ellipse_115-4" data-name="Ellipse 115" cx="6.316" cy="6.316" rx="6.316" ry="6.316" transform="translate(32.153 33.303)" fill="#101010"/>
      <g id="Ellipse_117-4" data-name="Ellipse 117" transform="translate(-0.001 0)" fill="none" stroke="#101010" stroke-width="1">
        <ellipse cx="39.044" cy="39.044" rx="39.044" ry="39.044" stroke="none"/>
        <ellipse cx="39.044" cy="39.044" rx="38.544" ry="38.544" fill="none"/>
      </g>
    </g>
    <g id="Zoom" transform="translate(13467 -238.686)">
      <g id="Zoom_out" data-name="Zoom out" transform="translate(-13467 543.5)">
        <g id="ic_Minus" transform="translate(4 4)">
          <path id="Path" d="M6.667,0h4.667a.667.667,0,0,1,0,1.333H.667A.667.667,0,0,1,.667,0h6Z" transform="translate(2 7.333)" fill="#101010"/>
        </g>
        <g id="Shape" fill="none" stroke-miterlimit="10">
          <path d="M7.692,24c-2.675,0-3.644-.278-4.622-.8A5.452,5.452,0,0,1,.8,20.931c-.523-.978-.8-1.948-.8-4.622V7.692C0,5.017.278,4.047.8,3.069A5.452,5.452,0,0,1,3.069.8C4.047.278,5.017,0,7.692,0h8.617c2.675,0,3.644.278,4.622.8A5.452,5.452,0,0,1,23.2,3.069c.523.978.8,1.948.8,4.622v8.617c0,2.675-.278,3.644-.8,4.622A5.452,5.452,0,0,1,20.931,23.2c-.978.523-1.948.8-4.622.8Z" stroke="none"/>
          <path d="M 16.30834007263184 22 C 18.74271011352539 22 19.36871910095215 21.76581001281738 19.98735046386719 21.43497085571289 C 20.61321067810059 21.10025978088379 21.10025978088379 20.61321067810059 21.43497085571289 19.98735046386719 C 21.76581001281738 19.36871910095215 22 18.74271011352539 22 16.30834007263184 L 22 7.691659927368164 C 22 5.257289886474609 21.76581001281738 4.631279945373535 21.43498039245605 4.012660026550293 C 21.10025978088379 3.386790037155151 20.61319923400879 2.899739980697632 19.98735046386719 2.565030097961426 C 19.36871910095215 2.234189987182617 18.74271011352539 2 16.30834007263184 2 L 7.691659927368164 2 C 5.257289886474609 2 4.631279945373535 2.234189987182617 4.012660026550293 2.565020084381104 C 3.386800050735474 2.899739980697632 2.899739980697632 3.386800050735474 2.565030097961426 4.012650012969971 C 2.234189987182617 4.631279945373535 2 5.257289886474609 2 7.691659927368164 L 2 16.30834007263184 C 2 18.74271011352539 2.234189987182617 19.36871910095215 2.565030097961426 19.98735046386719 C 2.899739980697632 20.61319923400879 3.386790037155151 21.10025978088379 4.012650012969971 21.43497085571289 C 4.631279945373535 21.76581001281738 5.257289886474609 22 7.691659927368164 22 L 16.30834007263184 22 M 16.30834007263184 24 L 7.691659927368164 24 C 5.017099857330322 24 4.047239780426025 23.72151947021484 3.069459915161133 23.19860076904297 C 2.091690063476562 22.67568016052246 1.324319958686829 21.9083194732666 0.8014000058174133 20.93054008483887 C 0.2784799933433533 19.95276069641113 -1.77635683940025e-15 18.98290061950684 -1.77635683940025e-15 16.30834007263184 L -1.77635683940025e-15 7.691659927368164 C -1.77635683940025e-15 5.017099857330322 0.2784799933433533 4.047239780426025 0.8014000058174133 3.069459915161133 C 1.324319958686829 2.091690063476562 2.091690063476562 1.324319958686829 3.069459915161133 0.8014000058174133 C 4.047239780426025 0.2784799933433533 5.017099857330322 -1.77635683940025e-15 7.691659927368164 -1.77635683940025e-15 L 16.30834007263184 -1.77635683940025e-15 C 18.98290061950684 -1.77635683940025e-15 19.95276069641113 0.2784799933433533 20.93054008483887 0.8014000058174133 C 21.9083194732666 1.324319958686829 22.67568016052246 2.091690063476562 23.19860076904297 3.069459915161133 C 23.72151947021484 4.047239780426025 24 5.017099857330322 24 7.691659927368164 L 24 16.30834007263184 C 24 18.98290061950684 23.72151947021484 19.95276069641113 23.19860076904297 20.93054008483887 C 22.67568016052246 21.9083194732666 21.9083194732666 22.67568016052246 20.93054008483887 23.19860076904297 C 19.95276069641113 23.72151947021484 18.98290061950684 24 16.30834007263184 24 Z" stroke="none" fill="#101010"/>
        </g>
      </g>
      <g id="Zoom_in" data-name="Zoom in" transform="translate(-13467 513.5)">
        <g id="Shape-2" data-name="Shape" fill="none" stroke-miterlimit="10">
          <path d="M7.692,24c-2.675,0-3.644-.278-4.622-.8A5.452,5.452,0,0,1,.8,20.931c-.523-.978-.8-1.948-.8-4.622V7.692C0,5.017.278,4.047.8,3.069A5.452,5.452,0,0,1,3.069.8C4.047.278,5.017,0,7.692,0h8.617c2.675,0,3.644.278,4.622.8A5.452,5.452,0,0,1,23.2,3.069c.523.978.8,1.948.8,4.622v8.617c0,2.675-.278,3.644-.8,4.622A5.452,5.452,0,0,1,20.931,23.2c-.978.523-1.948.8-4.622.8Z" stroke="none"/>
          <path d="M 16.30834007263184 22 C 18.74271011352539 22 19.36871910095215 21.76581001281738 19.98735046386719 21.43497085571289 C 20.61321067810059 21.10025978088379 21.10025978088379 20.61321067810059 21.43497085571289 19.98735046386719 C 21.76581001281738 19.36871910095215 22 18.74271011352539 22 16.30834007263184 L 22 7.691659927368164 C 22 5.257289886474609 21.76581001281738 4.631279945373535 21.43498039245605 4.012660026550293 C 21.10025978088379 3.386790037155151 20.61319923400879 2.899739980697632 19.98735046386719 2.565030097961426 C 19.36871910095215 2.234189987182617 18.74271011352539 2 16.30834007263184 2 L 7.691659927368164 2 C 5.257289886474609 2 4.631279945373535 2.234189987182617 4.012660026550293 2.565020084381104 C 3.386800050735474 2.899739980697632 2.899739980697632 3.386800050735474 2.565030097961426 4.012650012969971 C 2.234189987182617 4.631279945373535 2 5.257289886474609 2 7.691659927368164 L 2 16.30834007263184 C 2 18.74271011352539 2.234189987182617 19.36871910095215 2.565030097961426 19.98735046386719 C 2.899739980697632 20.61319923400879 3.386790037155151 21.10025978088379 4.012650012969971 21.43497085571289 C 4.631279945373535 21.76581001281738 5.257289886474609 22 7.691659927368164 22 L 16.30834007263184 22 M 16.30834007263184 24 L 7.691659927368164 24 C 5.017099857330322 24 4.047239780426025 23.72151947021484 3.069459915161133 23.19860076904297 C 2.091690063476562 22.67568016052246 1.324319958686829 21.9083194732666 0.8014000058174133 20.93054008483887 C 0.2784799933433533 19.95276069641113 -1.77635683940025e-15 18.98290061950684 -1.77635683940025e-15 16.30834007263184 L -1.77635683940025e-15 7.691659927368164 C -1.77635683940025e-15 5.017099857330322 0.2784799933433533 4.047239780426025 0.8014000058174133 3.069459915161133 C 1.324319958686829 2.091690063476562 2.091690063476562 1.324319958686829 3.069459915161133 0.8014000058174133 C 4.047239780426025 0.2784799933433533 5.017099857330322 -1.77635683940025e-15 7.691659927368164 -1.77635683940025e-15 L 16.30834007263184 -1.77635683940025e-15 C 18.98290061950684 -1.77635683940025e-15 19.95276069641113 0.2784799933433533 20.93054008483887 0.8014000058174133 C 21.9083194732666 1.324319958686829 22.67568016052246 2.091690063476562 23.19860076904297 3.069459915161133 C 23.72151947021484 4.047239780426025 24 5.017099857330322 24 7.691659927368164 L 24 16.30834007263184 C 24 18.98290061950684 23.72151947021484 19.95276069641113 23.19860076904297 20.93054008483887 C 22.67568016052246 21.9083194732666 21.9083194732666 22.67568016052246 20.93054008483887 23.19860076904297 C 19.95276069641113 23.72151947021484 18.98290061950684 24 16.30834007263184 24 Z" stroke="none" fill="#101010"/>
        </g>
        <g id="ic_Plus" transform="translate(4 4)">
          <path id="Path-2" data-name="Path" d="M6.667,5.333h4.667a.667.667,0,0,1,0,1.333H6.667v4.667a.667.667,0,0,1-1.333,0V6.667H.667a.667.667,0,0,1,0-1.333H5.333V.667a.667.667,0,0,1,1.333,0Z" transform="translate(2 2)" fill="#101010"/>
        </g>
      </g>
    </g>
  </g>
</svg>
