<svg id="Component_114_1" data-name="Component 114 – 1" xmlns="http://www.w3.org/2000/svg" width="72.071" height="72.071" viewBox="0 0 72.071 72.071">
  <g id="Group_3411" data-name="Group 3411" transform="translate(-35.975 -263.872)">
    <g id="Group_556" data-name="Group 556" transform="translate(35.975 263.872)">
      <path id="Path_477" data-name="Path 477" d="M637.385,472.322H621.048A8.049,8.049,0,0,1,613,464.274V442.292a2.409,2.409,0,0,1,2.4-2.4h21.982a8.048,8.048,0,0,1,8.047,8.048v16.337a8.048,8.048,0,0,1-8.047,8.048Zm-19.58-27.627v19.579a3.229,3.229,0,0,0,3.243,3.243h16.337a3.229,3.229,0,0,0,3.243-3.243V447.938a3.229,3.229,0,0,0-3.243-3.243Zm0,0" transform="translate(-573.361 -400.251)" fill="#101010"/>
      <path id="Path_478" data-name="Path 478" d="M439.384,472.322H423.048A8.048,8.048,0,0,1,415,464.274V447.938a8.048,8.048,0,0,1,8.048-8.048H445.03a2.409,2.409,0,0,1,2.4,2.4v21.982a8.048,8.048,0,0,1-8.048,8.048Zm-16.337-27.627a3.229,3.229,0,0,0-3.243,3.243v16.337a3.229,3.229,0,0,0,3.243,3.243h16.337a3.229,3.229,0,0,0,3.243-3.243V444.695Zm0,0" transform="translate(-415 -400.251)" fill="#101010"/>
      <path id="Path_479" data-name="Path 479" d="M637.385,274.322H615.4a2.409,2.409,0,0,1-2.4-2.4V249.938a8.049,8.049,0,0,1,8.048-8.048h16.337a8.048,8.048,0,0,1,8.047,8.048v16.337a8.048,8.048,0,0,1-8.047,8.048Zm-19.58-4.8h19.58a3.229,3.229,0,0,0,3.243-3.243V249.938a3.229,3.229,0,0,0-3.243-3.243H621.048a3.229,3.229,0,0,0-3.243,3.243Zm0,0" transform="translate(-573.361 -241.89)" fill="#101010"/>
      <path id="Path_480" data-name="Path 480" d="M445.03,274.322H423.048A8.048,8.048,0,0,1,415,266.274V249.938a8.048,8.048,0,0,1,8.048-8.048h16.337a8.048,8.048,0,0,1,8.048,8.048V271.92a2.409,2.409,0,0,1-2.4,2.4Zm-21.982-27.627a3.229,3.229,0,0,0-3.243,3.243v16.337a3.229,3.229,0,0,0,3.243,3.243h19.579V249.938a3.229,3.229,0,0,0-3.243-3.243Zm0,0" transform="translate(-415 -241.89)" fill="#101010"/>
    </g>
  </g>
  <path id="Icon_metro-cross" data-name="Icon metro-cross" d="M12.552,10.021h0L9.5,6.965l3.056-3.056h0a.316.316,0,0,0,0-.445L11.109,2.02a.316.316,0,0,0-.445,0h0L7.608,5.076,4.552,2.02h0a.316.316,0,0,0-.445,0L2.663,3.464a.316.316,0,0,0,0,.445h0L5.719,6.965,2.663,10.021h0a.315.315,0,0,0,0,.445L4.106,11.91a.316.316,0,0,0,.445,0h0L7.608,8.854l3.056,3.056h0a.315.315,0,0,0,.445,0l1.444-1.444a.315.315,0,0,0,0-.445Z" transform="translate(25.731 36.491) rotate(-45)" fill="#101010"/>
</svg>
