<svg xmlns="http://www.w3.org/2000/svg" width="17.036" height="17.035" viewBox="0 0 17.036 17.035">
  <g id="Group_465" data-name="Group 465" transform="translate(-908.655 -896.959)">
    <path id="Path_382" data-name="Path 382" d="M917.231,913.744a8.21,8.21,0,1,1,8.21-8.21,9.284,9.284,0,0,1-.193,1.806.525.525,0,1,1-1.026-.224,7.48,7.48,0,0,0,.193-1.582,7.183,7.183,0,1,0-3.859,6.371.512.512,0,1,1,.469.9,8.02,8.02,0,0,1-3.794.936Zm0,0" transform="translate(0)" fill="#101010" stroke="#101010" stroke-width="0.5"/>
    <path id="Path_383" data-name="Path 383" d="M919.284,909.206a.513.513,0,0,1-.513-.513v-4.1a.513.513,0,1,1,1.026,0v4.1a.513.513,0,0,1-.513.513Zm0,0" transform="translate(3.591 2.486)" fill="#101010" stroke="#101010" stroke-width="0.5"/>
    <path id="Path_384" data-name="Path 384" d="M919.8,909.088a.513.513,0,1,1-.513-.513.513.513,0,0,1,.513.513Zm0,0" transform="translate(3.591 4.143)" fill="#101010" stroke="#101010" stroke-width="0.5"/>
    <path id="Path_385" data-name="Path 385" d="M912.853,907.56a.526.526,0,0,1,.144-.721l2.854-1.9v-4.853a.513.513,0,0,1,1.026,0v5.131a.536.536,0,0,1-.224.432l-3.079,2.052a.567.567,0,0,1-.721-.144Zm0,0" transform="translate(1.38 0.829)" fill="#101010" stroke="#101010" stroke-width="0.5"/>
  </g>
</svg>
