<svg xmlns="http://www.w3.org/2000/svg" width="19.955" height="19.018" viewBox="0 0 19.955 19.018">
  <g id="Group_466" data-name="Group 466" transform="translate(0 -12.024)">
    <path id="Path_386" data-name="Path 386" d="M77.481,42.933l-3.294-.479-1.473-2.985a1.552,1.552,0,0,0-2.784,0l-1.473,2.985-3.294.479a1.552,1.552,0,0,0-.86,2.647L66.685,47.9l-.563,3.281a1.552,1.552,0,0,0,2.252,1.636l2.947-1.549,2.947,1.549a1.553,1.553,0,0,0,2.252-1.636L75.957,47.9l2.384-2.324A1.552,1.552,0,0,0,77.481,42.933Zm-.068,1.695L74.778,47.2a.665.665,0,0,0-.191.589l.622,3.626a.221.221,0,0,1-.322.234l-3.256-1.712a.665.665,0,0,0-.619,0l-3.256,1.712a.221.221,0,0,1-.322-.234l.622-3.626a.665.665,0,0,0-.191-.589L65.23,44.628a.221.221,0,0,1,.123-.378l3.641-.529a.665.665,0,0,0,.5-.364l1.628-3.3a.221.221,0,0,1,.4,0l1.628,3.3a.665.665,0,0,0,.5.364l3.641.529A.221.221,0,0,1,77.412,44.628Z" transform="translate(-61.344 -25.544)" fill="#101010"/>
    <path id="Path_387" data-name="Path 387" d="M84.368,14.176a.665.665,0,0,0,1.076-.782l-.8-1.095a.665.665,0,0,0-1.076.782Z" transform="translate(-80.193)" fill="#101010"/>
    <path id="Path_388" data-name="Path 388" d="M1.773,287.142l-1.313.427a.665.665,0,1,0,.411,1.265l1.313-.427a.665.665,0,1,0-.411-1.265Z" transform="translate(0 -264.364)" fill="#101010"/>
    <path id="Path_389" data-name="Path 389" d="M374.282,14.323a.665.665,0,0,0,.929-.147l.8-1.095a.665.665,0,0,0-1.076-.782l-.8,1.095A.665.665,0,0,0,374.282,14.323Z" transform="translate(-359.431 0)" fill="#101010"/>
    <path id="Path_390" data-name="Path 390" d="M446.346,287.568l-1.313-.427a.665.665,0,1,0-.411,1.265l1.313.427a.665.665,0,1,0,.411-1.265Z" transform="translate(-426.851 -264.363)" fill="#101010"/>
    <path id="Path_391" data-name="Path 391" d="M239.6,431.206a.665.665,0,0,0-.665.665v1.35a.665.665,0,0,0,1.33,0v-1.35A.665.665,0,0,0,239.6,431.206Z" transform="translate(-229.622 -402.844)" fill="#101010"/>
  </g>
</svg>
