<svg xmlns="http://www.w3.org/2000/svg" width="26.761" height="18.446" viewBox="0 0 26.761 18.446">
  <g id="Group_230" data-name="Group 230" transform="translate(-693.385 -39.068)">
    <path id="Path_122" data-name="Path 122" d="M706.795,39.068a11.534,11.534,0,0,1,6.269,1.965,24.594,24.594,0,0,1,6.866,6.715.986.986,0,0,1,.009,1.221,23.245,23.245,0,0,1-7.91,7.176,11.062,11.062,0,0,1-5.853,1.352,11.578,11.578,0,0,1-4.636-1.331,21.348,21.348,0,0,1-6.319-5.138c-.565-.648-1.085-1.336-1.607-2.019a1.017,1.017,0,0,1-.014-1.266,24.781,24.781,0,0,1,6.847-6.7,12.333,12.333,0,0,1,5.35-1.955c.074-.008.147-.02.221-.021C706.276,39.067,706.536,39.068,706.795,39.068Zm10.765,9.307c-.468-.559-.895-1.094-1.348-1.606a19.812,19.812,0,0,0-4.84-4.125,9.336,9.336,0,0,0-4.182-1.365,8.657,8.657,0,0,0-4.534,1.082,17.437,17.437,0,0,0-4.682,3.657c-.694.741-1.336,1.531-2.013,2.312.294.35.543.659.8.956a20.717,20.717,0,0,0,5.485,4.637,9.8,9.8,0,0,0,3.74,1.241,8.535,8.535,0,0,0,4.553-.862,18.047,18.047,0,0,0,5.528-4.217C716.581,49.539,717.054,48.959,717.56,48.375Z" transform="translate(0)" fill="#1a1a1a"/>
    <path id="Path_123" data-name="Path 123" d="M838.7,115.213a5.6,5.6,0,1,1,5.608-5.587A5.6,5.6,0,0,1,838.7,115.213Zm-3.384-5.614a3.384,3.384,0,1,0,3.39-3.363A3.4,3.4,0,0,0,835.318,109.6Z" transform="translate(-131.937 -61.335)" fill="#1a1a1a"/>
  </g>
</svg>
