<svg xmlns="http://www.w3.org/2000/svg" width="16.234" height="14.804" viewBox="0 0 16.234 14.804">
  <path id="Path_266" data-name="Path 266" d="M-683.469,242.179a4.144,4.144,0,0,0-3.576,2.2,4.144,4.144,0,0,0-3.576-2.2,4.466,4.466,0,0,0-4.291,4.746c0,3.08,2.748,5.291,5.54,7.738.59.517,1.2,1.052,1.849,1.636a.713.713,0,0,0,.479.184.713.713,0,0,0,.478-.184c.648-.584,1.259-1.118,1.849-1.636,3.017-2.645,5.54-4.749,5.54-7.738a4.466,4.466,0,0,0-4.291-4.746Zm-2.192,11.409c-.447.392-.905.794-1.384,1.22-.479-.426-.937-.828-1.384-1.22-3.151-2.762-5.052-4.428-5.052-6.663a3.045,3.045,0,0,1,2.861-3.316c1.559,0,2.557,1.508,2.885,2.689a.716.716,0,0,0,.691.529.715.715,0,0,0,.691-.531c.007-.027.741-2.687,2.885-2.687a3.045,3.045,0,0,1,2.861,3.316c0,2.234-1.9,3.9-5.053,6.663Zm0,0" transform="translate(695.162 -241.929)" fill="red" stroke="red" stroke-width="0.5"/>
</svg>
