<svg xmlns="http://www.w3.org/2000/svg" width="7.963" height="7.963" viewBox="0 0 7.963 7.963">
  <path id="Icon_metro-cross" data-name="Icon metro-cross" d="M10.461,8.325h0L8.045,5.91l2.416-2.416h0a.249.249,0,0,0,0-.352L9.32,2a.25.25,0,0,0-.352,0h0L6.552,4.417,4.137,2h0a.249.249,0,0,0-.352,0L2.643,3.142a.249.249,0,0,0,0,.352h0L5.059,5.91,2.643,8.325h0a.249.249,0,0,0,0,.352L3.785,9.818a.249.249,0,0,0,.352,0h0L6.552,7.4,8.968,9.818h0a.249.249,0,0,0,.352,0l1.141-1.141a.249.249,0,0,0,0-.352Z" transform="translate(-2.571 -1.928)" fill="#101010"/>
</svg>
