<svg xmlns="http://www.w3.org/2000/svg" width="27.275" height="17.875" viewBox="0 0 27.275 17.875">
  <g id="Group_555" data-name="Group 555" transform="translate(526.125 -61.765)">
    <path id="Path_473" data-name="Path 473" d="M-393.887,70.115A4.117,4.117,0,0,0-389.775,66a4.117,4.117,0,0,0-4.113-4.113A4.117,4.117,0,0,0-398,66,4.117,4.117,0,0,0-393.887,70.115Zm0-7.05A2.942,2.942,0,0,1-390.95,66a2.942,2.942,0,0,1-2.938,2.938A2.942,2.942,0,0,1-396.825,66,2.942,2.942,0,0,1-393.887,63.065Z" transform="translate(-118.6)" fill="#fff" stroke="#fff" stroke-width="0.25"/>
    <path id="Path_474" data-name="Path 474" d="M-267.062,131.765a2.942,2.942,0,0,0,2.938-2.938,2.942,2.942,0,0,0-2.938-2.938A2.942,2.942,0,0,0-270,128.828,2.942,2.942,0,0,0-267.062,131.765Zm0-4.7a1.765,1.765,0,0,1,1.763,1.763,1.765,1.765,0,0,1-1.763,1.763,1.765,1.765,0,0,1-1.763-1.763A1.765,1.765,0,0,1-267.062,127.065Z" transform="translate(-237.2 -59.3)" fill="#fff" stroke="#fff" stroke-width="0.25"/>
    <path id="Path_475" data-name="Path 475" d="M-489.925,131.765a2.942,2.942,0,0,0,2.938-2.938,2.941,2.941,0,0,0-2.937-2.938,2.941,2.941,0,0,0-2.938,2.938A2.942,2.942,0,0,0-489.925,131.765Zm0-4.7a1.765,1.765,0,0,1,1.762,1.763,1.765,1.765,0,0,1-1.762,1.763,1.765,1.765,0,0,1-1.763-1.763A1.765,1.765,0,0,1-489.925,127.065Z" transform="translate(-30.703 -59.3)" fill="#fff" stroke="#fff" stroke-width="0.25"/>
    <path id="Path_476" data-name="Path 476" d="M-504.262,192.24a5.291,5.291,0,0,0-2.27.512,7.626,7.626,0,0,0-5.955-2.862,7.627,7.627,0,0,0-5.955,2.861,5.3,5.3,0,0,0-2.27-.511A5.294,5.294,0,0,0-526,197.528a.588.588,0,0,0,.588.588.588.588,0,0,0,.588-.588,4.117,4.117,0,0,1,4.113-4.113,4.115,4.115,0,0,1,1.6.322,7.59,7.59,0,0,0-1.009,3.791.588.588,0,0,0,.587.588.588.588,0,0,0,.588-.588,6.47,6.47,0,0,1,6.463-6.463,6.47,6.47,0,0,1,6.463,6.463.588.588,0,0,0,.588.588.588.588,0,0,0,.588-.588,7.591,7.591,0,0,0-1.009-3.791,4.109,4.109,0,0,1,1.6-.322,4.117,4.117,0,0,1,4.113,4.113.588.588,0,0,0,.587.588.588.588,0,0,0,.588-.588A5.294,5.294,0,0,0-504.262,192.24Z" transform="translate(0 -118.6)" fill="#fff" stroke="#fff" stroke-width="0.25"/>
  </g>
</svg>
