<svg xmlns="http://www.w3.org/2000/svg" width="26.052" height="25.991" viewBox="0 0 26.052 25.991">
  <path id="Path_11506" data-name="Path 11506" d="M392.72,262.158l4.386,4.386a3.287,3.287,0,0,0,4.548,0,3.14,3.14,0,0,0,0-4.548l-4.386-4.386a11.2,11.2,0,0,0,1.3-5.2,3.046,3.046,0,0,0-.081-.894l3.005-3a.8.8,0,0,0-1.137-1.137l-2.193,2.193a10.623,10.623,0,0,0-2.843-4.873,10.97,10.97,0,1,0-2.6,17.463Zm7.716.975a1.608,1.608,0,1,1-2.274,2.274l-4.142-4.142a11.314,11.314,0,0,0,2.274-2.274Zm-19.493-17.3a9.335,9.335,0,0,1,15.839,5.117l-1.625,1.624-2.68-2.68a.785.785,0,0,0-1.137,0l-4.224,4.223-1.868-1.868a.785.785,0,0,0-1.137,0l-3.249,3.249A.8.8,0,0,0,382,256.635l2.68-2.68c1.218.975,2.112,2.762,3.005,1.868l4.224-4.224,2.68,2.68a.785.785,0,0,0,1.137,0l1.137-1.137a9.534,9.534,0,0,1-2.68,5.929,9.361,9.361,0,0,1-13.239-13.239Zm0,0" transform="translate(-376.577 -241.467)" fill="#fff"/>
</svg>
