<svg xmlns="http://www.w3.org/2000/svg" width="22.112" height="22.112" viewBox="0 0 22.112 22.112">
  <g id="Icon_feather-image" data-name="Icon feather-image" transform="translate(0.875 0.875)">
    <path id="Path_169" data-name="Path 169" d="M6.722,4.5H22.278A2.222,2.222,0,0,1,24.5,6.722V22.278A2.222,2.222,0,0,1,22.278,24.5H6.722A2.222,2.222,0,0,1,4.5,22.278V6.722A2.222,2.222,0,0,1,6.722,4.5Z" transform="translate(-4.5 -4.5)" fill="none" stroke="#fff" stroke-linecap="round" stroke-linejoin="round" stroke-width="1.75"/>
    <path id="Path_170" data-name="Path 170" d="M13.833,12.167A1.667,1.667,0,1,1,12.167,10.5,1.667,1.667,0,0,1,13.833,12.167Z" transform="translate(-6.056 -6.055)" fill="none" stroke="#fff" stroke-linecap="round" stroke-linejoin="round" stroke-width="1.75"/>
    <path id="Path_171" data-name="Path 171" d="M25.278,20.556,19.722,15,7.5,27.222" transform="translate(-5.278 -7.222)" fill="none" stroke="#fff" stroke-linecap="round" stroke-linejoin="round" stroke-width="1.75"/>
  </g>
</svg>
