<svg id="icon_attention_qus_gray" xmlns="http://www.w3.org/2000/svg" width="10" height="10" viewBox="0 0 10 10">
  <path id="Path_201" data-name="Path 201" d="M1.99-4.553H3.026v1H1.99ZM.721-7.056a1.622,1.622,0,0,1,.692-1.4,1.824,1.824,0,0,1,1.008-.264,2.172,2.172,0,0,1,1.305.375,1.284,1.284,0,0,1,.52,1.112,1.256,1.256,0,0,1-.226.761A2.6,2.6,0,0,1,3.512-6L3.265-5.8A.747.747,0,0,0,3-5.439a1.538,1.538,0,0,0-.045.41H2.014a2.726,2.726,0,0,1,.111-.812,1.433,1.433,0,0,1,.466-.516l.254-.2a.887.887,0,0,0,.2-.205.7.7,0,0,0,.139-.421.811.811,0,0,0-.155-.481.649.649,0,0,0-.565-.217.623.623,0,0,0-.572.268,1.029,1.029,0,0,0-.169.556Z" transform="translate(2.529 11.125)" fill="#7c7d7d"/>
  <g id="Ellipse_41" data-name="Ellipse 41" fill="none" stroke="#7c7d7d" stroke-width="1">
    <circle cx="5" cy="5" r="5" stroke="none"/>
    <circle cx="5" cy="5" r="4.5" fill="none"/>
  </g>
</svg>
