<svg id="Group_26" data-name="Group 26" xmlns="http://www.w3.org/2000/svg" xmlns:xlink="http://www.w3.org/1999/xlink" width="15.001" height="10" viewBox="0 0 15.001 10">
  <defs>
    <clipPath id="clip-path">
      <path id="_Icon_小olor" data-name=" Icon 小olor" d="M4.113,10a.781.781,0,0,1-.779-.78V9.113a.782.782,0,0,1,.779-.78H14.221a.782.782,0,0,1,.78.78V9.22a.782.782,0,0,1-.78.78ZM0,9.167A.833.833,0,1,1,.833,10,.834.834,0,0,1,0,9.167ZM4.113,5.833a.782.782,0,0,1-.779-.78V4.947a.781.781,0,0,1,.779-.78H14.221a.782.782,0,0,1,.78.78v.106a.782.782,0,0,1-.78.78ZM0,5a.833.833,0,1,1,.833.833A.833.833,0,0,1,0,5ZM4.113,1.667a.782.782,0,0,1-.779-.78V.78A.782.782,0,0,1,4.113,0H14.221A.782.782,0,0,1,15,.78V.886a.782.782,0,0,1-.78.78ZM0,.833a.833.833,0,1,1,.833.833A.834.834,0,0,1,0,.833Z" fill="#7c7d7d"/>
    </clipPath>
  </defs>
  <path id="_Icon_小olor-2" data-name=" Icon 小olor" d="M4.113,10a.781.781,0,0,1-.779-.78V9.113a.782.782,0,0,1,.779-.78H14.221a.782.782,0,0,1,.78.78V9.22a.782.782,0,0,1-.78.78ZM0,9.167A.833.833,0,1,1,.833,10,.834.834,0,0,1,0,9.167ZM4.113,5.833a.782.782,0,0,1-.779-.78V4.947a.781.781,0,0,1,.779-.78H14.221a.782.782,0,0,1,.78.78v.106a.782.782,0,0,1-.78.78ZM0,5a.833.833,0,1,1,.833.833A.833.833,0,0,1,0,5ZM4.113,1.667a.782.782,0,0,1-.779-.78V.78A.782.782,0,0,1,4.113,0H14.221A.782.782,0,0,1,15,.78V.886a.782.782,0,0,1-.78.78ZM0,.833a.833.833,0,1,1,.833.833A.834.834,0,0,1,0,.833Z" fill="#7c7d7d"/>
</svg>
