<svg xmlns="http://www.w3.org/2000/svg" width="30.837" height="20.558" viewBox="0 0 30.837 20.558">
  <path id="Icon_metro-amex" data-name="Icon metro-amex" d="M4.163,17.7H5.354l-.6-1.445Zm8.312,7.04.99-1.057-.937-1.057H10.347v.656h1.9v.736h-1.9v.723ZM14.59,23.7l1.325,1.472v-2.9Zm3.855-.629q0-.442-.535-.442H16.785v.924H17.9q.549,0,.549-.482Zm3.868-.054q0-.388-.562-.388h-1.1v.816h1.084Q22.312,23.446,22.312,23.017ZM18.591,16.78q0-.388-.562-.388h-1.1v.8h1.084q.576,0,.576-.415Zm6.143.923h1.191l-.589-1.445ZM11.926,15.629v3.627h-.883V16.419L9.785,19.256H9.022L7.764,16.419v2.837H6l-.335-.8H3.855l-.335.8H2.584l1.553-3.627H5.421l1.472,3.44v-3.44H8.312L9.45,18.092l1.031-2.463h1.445Zm7.442,7.442a1.359,1.359,0,0,1-.074.468,1.092,1.092,0,0,1-.187.335.866.866,0,0,1-.3.221,2.491,2.491,0,0,1-.348.134,1.9,1.9,0,0,1-.422.06q-.261.013-.422.013t-.435-.007q-.274-.007-.395-.007v1.218H15.1l-1.071-1.2-1.111,1.2H9.49V21.88h3.48l1.071,1.191,1.1-1.191h2.771q1.459,0,1.459,1.191Zm-3.895-4.564v.75h-2.9V15.629h2.9v.763H13.439v.656h1.981v.736H13.439v.723Zm17.935,7.482v3.065a1.748,1.748,0,0,1-.515,1.265,1.682,1.682,0,0,1-1.251.529H4.337a1.682,1.682,0,0,1-1.251-.529,1.748,1.748,0,0,1-.515-1.265V19.979H4.056l.335-.816h.736l.335.816H8.379v-.616l.254.616h1.512l.268-.629v.629h7.241V18.654l.134-.013q.134,0,.134.187v1.151h3.734v-.308a2.642,2.642,0,0,0,.736.241,4.574,4.574,0,0,0,.7.087q.274.007.843-.007t.689-.013l.335-.816h.75l.335.816h3.038V19.2l.455.776h2.436V14.92H29.566v.589l-.335-.589H26.756v.589l-.308-.589H23.115a3.042,3.042,0,0,0-1.459.294V14.92h-2.3v.294a1.406,1.406,0,0,0-.977-.294H9.972l-.576,1.3-.576-1.3H6.171v.589l-.294-.589H3.615l-1.044,2.4V12.083a1.748,1.748,0,0,1,.515-1.265,1.682,1.682,0,0,1,1.251-.529h27.3a1.682,1.682,0,0,1,1.251.529,1.748,1.748,0,0,1,.515,1.265v9.074H31.8a1.8,1.8,0,0,0-1.084.294v-.294H28.349a1.49,1.49,0,0,0-1.044.294v-.294H23.075v.294a1.988,1.988,0,0,0-1.164-.294h-2.8v.294a1.816,1.816,0,0,0-1.218-.294H14.764l-.723.776-.669-.776H8.7v5.059h4.591l.736-.79.7.79h2.824V25.025h.281a3.243,3.243,0,0,0,1.2-.174v1.365h2.329V24.891h.107a.123.123,0,0,1,.161.161v1.164h7.08a1.888,1.888,0,0,0,1.178-.321v.321h2.249a2.948,2.948,0,0,0,1.271-.228ZM23.262,22.857a1.1,1.1,0,0,1-.161.576.924.924,0,0,1-.455.388.784.784,0,0,1,.455.348,1.324,1.324,0,0,1,.12.616v.723h-.87v-.6a.776.776,0,0,0-.161-.582.972.972,0,0,0-.616-.141h-.924v1.325h-.87V21.88h2.061a2.252,2.252,0,0,1,1.031.2.791.791,0,0,1,.388.776Zm-3.707-6.25a1.089,1.089,0,0,1-.167.589.97.97,0,0,1-.448.388.768.768,0,0,1,.462.341,1.383,1.383,0,0,1,.114.622v.709h-.87q0-.12.007-.355t0-.335a1.649,1.649,0,0,0-.04-.248.378.378,0,0,0-.114-.214.673.673,0,0,0-.234-.114,1.386,1.386,0,0,0-.395-.047h-.937v1.312h-.857V15.629l2.048.013a2.355,2.355,0,0,1,1.044.194.776.776,0,0,1,.388.77Zm7.08,8.151v.75H23.744V21.88h2.891v.75H24.614v.656H26.6v.736H24.614v.723Zm-5.7-9.128v3.627H20.05V15.629Zm9.275,8.726q0,1.151-1.365,1.151H27.157v-.776h1.686q.455,0,.455-.335a.276.276,0,0,0-.228-.281,1.992,1.992,0,0,0-.555-.067A4.774,4.774,0,0,1,27.853,24a.9.9,0,0,1-.562-.3,1.069,1.069,0,0,1-.228-.736.973.973,0,0,1,.348-.8,1.361,1.361,0,0,1,.883-.281h1.74v.763H28.442q-.482,0-.482.335a.268.268,0,0,0,.234.274,2.109,2.109,0,0,0,.562.054,4.617,4.617,0,0,1,.656.033.905.905,0,0,1,.562.288,1.024,1.024,0,0,1,.234.729Zm3.2-.669v1.352a1.33,1.33,0,0,1-1.178.468H30.557v-.776H32.23q.442,0,.442-.335a.266.266,0,0,0-.167-.254.9.9,0,0,0-.415-.074,3.773,3.773,0,0,1-.535-.027,3.156,3.156,0,0,1-.535-.107.759.759,0,0,1-.415-.321,1.139,1.139,0,0,1-.167-.649.965.965,0,0,1,.355-.8,1.388,1.388,0,0,1,.89-.281h1.727v.763H31.828q-.482,0-.482.335,0,.268.388.294t.917.067a.977.977,0,0,1,.756.348ZM31.2,15.643v3.614H29.968l-1.633-2.717v2.717H26.568l-.348-.8H24.427l-.335.8h-1a1.55,1.55,0,0,1-1.727-1.78q0-1.847,1.78-1.847h.843v.79q-.094,0-.375-.013t-.381-.007q-.1.007-.308.027a.547.547,0,0,0-.288.087q-.08.067-.194.181a.593.593,0,0,0-.154.308,2.23,2.23,0,0,0-.04.448,1.387,1.387,0,0,0,.181.776.743.743,0,0,0,.663.268h.388l1.231-2.851h1.3l1.459,3.426V15.643H28.79l1.526,2.516V15.643H31.2Z" transform="translate(-2.571 -10.289)" fill="#101010"/>
</svg>
