<svg id="Group_26" data-name="Group 26" xmlns="http://www.w3.org/2000/svg" xmlns:xlink="http://www.w3.org/1999/xlink" width="15.001" height="10" viewBox="0 0 15.001 10">
  <defs>
    <clipPath id="clip-path">
      <path id="_Icon_小olor" data-name=" Icon 小olor" d="M4.113,10a.781.781,0,0,1-.779-.78V9.113a.782.782,0,0,1,.779-.78H14.221a.782.782,0,0,1,.78.78V9.22a.782.782,0,0,1-.78.78ZM0,9.167A.833.833,0,1,1,.833,10,.834.834,0,0,1,0,9.167ZM4.113,5.833a.782.782,0,0,1-.779-.78V4.947a.781.781,0,0,1,.779-.78H14.221a.782.782,0,0,1,.78.78v.106a.782.782,0,0,1-.78.78ZM0,5a.833.833,0,1,1,.833.833A.833.833,0,0,1,0,5ZM4.113,1.667a.782.782,0,0,1-.779-.78V.78A.782.782,0,0,1,4.113,0H14.221A.782.782,0,0,1,15,.78V.886a.782.782,0,0,1-.78.78ZM0,.833a.833.833,0,1,1,.833.833A.834.834,0,0,1,0,.833Z" fill="#7c7d7d"/>
    </clipPath>
  </defs>
  <g id="_Icon_小olor-2" data-name=" Icon 小olor" fill="#fcffff" stroke-miterlimit="10">
    <path d="M 14.22075462341309 9.499754905700684 L 4.113004684448242 9.499754905700684 C 3.959024906158447 9.499754905700684 3.833754777908325 9.3741455078125 3.833754777908325 9.219755172729492 L 3.833754777908325 9.113255500793457 C 3.833754777908325 8.961475372314453 3.961634874343872 8.833254814147949 4.113004684448242 8.833254814147949 L 14.22075462341309 8.833254814147949 C 14.37253475189209 8.833254814147949 14.50075435638428 8.961475372314453 14.50075435638428 9.113255500793457 L 14.50075435638428 9.219755172729492 C 14.50075435638428 9.3741455078125 14.37514495849609 9.499754905700684 14.22075462341309 9.499754905700684 Z M 0.8332548141479492 9.499754905700684 C 0.6495047807693481 9.499754905700684 0.500004768371582 9.350255012512207 0.500004768371582 9.166504859924316 C 0.500004768371582 8.982754707336426 0.6495047807693481 8.833254814147949 0.8332548141479492 8.833254814147949 C 1.01700484752655 8.833254814147949 1.166504740715027 8.982754707336426 1.166504740715027 9.166504859924316 C 1.166504740715027 9.350255012512207 1.01700484752655 9.499754905700684 0.8332548141479492 9.499754905700684 Z M 14.22075462341309 5.333495140075684 L 4.113004684448242 5.333495140075684 C 3.961634874343872 5.333495140075684 3.833754777908325 5.205275058746338 3.833754777908325 5.053494930267334 L 3.833754777908325 4.946995258331299 C 3.833754777908325 4.792604923248291 3.959024906158447 4.666995048522949 4.113004684448242 4.666995048522949 L 14.22075462341309 4.666995048522949 C 14.37514495849609 4.666995048522949 14.50075435638428 4.792604923248291 14.50075435638428 4.946995258331299 L 14.50075435638428 5.053494930267334 C 14.50075435638428 5.205275058746338 14.37253475189209 5.333495140075684 14.22075462341309 5.333495140075684 Z M 0.8332548141479492 5.333495140075684 C 0.6495047807693481 5.333495140075684 0.500004768371582 5.183995246887207 0.500004768371582 5.000245094299316 C 0.500004768371582 4.816494941711426 0.6495047807693481 4.666995048522949 0.8332548141479492 4.666995048522949 C 1.01700484752655 4.666995048522949 1.166504740715027 4.816494941711426 1.166504740715027 5.000245094299316 C 1.166504740715027 5.183995246887207 1.01700484752655 5.333495140075684 0.8332548141479492 5.333495140075684 Z M 14.22075462341309 1.166505098342896 L 4.113004684448242 1.166505098342896 C 3.961634874343872 1.166505098342896 3.833754777908325 1.038275122642517 3.833754777908325 0.886495053768158 L 3.833754777908325 0.7800050973892212 C 3.833754777908325 0.6282250881195068 3.961634874343872 0.5000050663948059 4.113004684448242 0.5000050663948059 L 14.22075462341309 0.5000050663948059 C 14.37253475189209 0.5000050663948059 14.50075435638428 0.6282250881195068 14.50075435638428 0.7800050973892212 L 14.50075435638428 0.886495053768158 C 14.50075435638428 1.038275122642517 14.37253475189209 1.166505098342896 14.22075462341309 1.166505098342896 Z M 0.8332548141479492 1.166505098342896 C 0.6495047807693481 1.166505098342896 0.500004768371582 1.017005085945129 0.500004768371582 0.8332550525665283 C 0.500004768371582 0.649505078792572 0.6495047807693481 0.5000050663948059 0.8332548141479492 0.5000050663948059 C 1.01700484752655 0.5000050663948059 1.166504740715027 0.649505078792572 1.166504740715027 0.8332550525665283 C 1.166504740715027 1.017005085945129 1.01700484752655 1.166505098342896 0.8332548141479492 1.166505098342896 Z" stroke="none"/>
    <path d="M 14.22075462341309 9.999754905700684 L 4.113004684448242 9.999754905700684 C 3.684004783630371 9.999754905700684 3.333754777908325 9.649495124816895 3.333754777908325 9.219755172729492 L 3.333754777908325 9.113255500793457 C 3.333754777908325 8.684245109558105 3.684004783630371 8.333254814147949 4.113004684448242 8.333254814147949 L 14.22075462341309 8.333254814147949 C 14.64975452423096 8.333254814147949 15.00075435638428 8.684245109558105 15.00075435638428 9.113255500793457 L 15.00075435638428 9.219755172729492 C 15.00075435638428 9.649495124816895 14.64975452423096 9.999754905700684 14.22075462341309 9.999754905700684 Z M 0.8332548141479492 9.999754905700684 C 0.3735047876834869 9.999754905700684 4.794006144948071e-06 9.626995086669922 4.794006144948071e-06 9.166504859924316 C 4.794006144948071e-06 8.706754684448242 0.3735047876834869 8.333254814147949 0.8332548141479492 8.333254814147949 C 1.293004751205444 8.333254814147949 1.666504740715027 8.706754684448242 1.666504740715027 9.166504859924316 C 1.666504740715027 9.626995086669922 1.293004751205444 9.999754905700684 0.8332548141479492 9.999754905700684 Z M 14.22075462341309 5.833495140075684 L 4.113004684448242 5.833495140075684 C 3.684004783630371 5.833495140075684 3.333754777908325 5.482504844665527 3.333754777908325 5.053494930267334 L 3.333754777908325 4.946995258331299 C 3.333754777908325 4.517255306243896 3.684004783630371 4.166995048522949 4.113004684448242 4.166995048522949 L 14.22075462341309 4.166995048522949 C 14.64975452423096 4.166995048522949 15.00075435638428 4.517255306243896 15.00075435638428 4.946995258331299 L 15.00075435638428 5.053494930267334 C 15.00075435638428 5.482504844665527 14.64975452423096 5.833495140075684 14.22075462341309 5.833495140075684 Z M 0.8332548141479492 5.833495140075684 C 0.3735047876834869 5.833495140075684 4.794006144948071e-06 5.459995269775391 4.794006144948071e-06 5.000245094299316 C 4.794006144948071e-06 4.539754867553711 0.3735047876834869 4.166995048522949 0.8332548141479492 4.166995048522949 C 1.293004751205444 4.166995048522949 1.666504740715027 4.539754867553711 1.666504740715027 5.000245094299316 C 1.666504740715027 5.459995269775391 1.293004751205444 5.833495140075684 0.8332548141479492 5.833495140075684 Z M 14.22075462341309 1.666505098342896 L 4.113004684448242 1.666505098342896 C 3.684004783630371 1.666505098342896 3.333754777908325 1.315505027770996 3.333754777908325 0.886495053768158 L 3.333754777908325 0.7800050973892212 C 3.333754777908325 0.3509950637817383 3.684004783630371 5.068664449936477e-06 4.113004684448242 5.068664449936477e-06 L 14.22075462341309 5.068664449936477e-06 C 14.64975452423096 5.068664449936477e-06 15.00075435638428 0.3509950637817383 15.00075435638428 0.7800050973892212 L 15.00075435638428 0.886495053768158 C 15.00075435638428 1.315505027770996 14.64975452423096 1.666505098342896 14.22075462341309 1.666505098342896 Z M 0.8332548141479492 1.666505098342896 C 0.3735047876834869 1.666505098342896 4.794006144948071e-06 1.293005108833313 4.794006144948071e-06 0.8332550525665283 C 4.794006144948071e-06 0.3734950721263885 0.3735047876834869 5.068664449936477e-06 0.8332548141479492 5.068664449936477e-06 C 1.293004751205444 5.068664449936477e-06 1.666504740715027 0.3734950721263885 1.666504740715027 0.8332550525665283 C 1.666504740715027 1.293005108833313 1.293004751205444 1.666505098342896 0.8332548141479492 1.666505098342896 Z" stroke="none" fill="#fff"/>
  </g>
</svg>
