<svg xmlns="http://www.w3.org/2000/svg" width="24.656" height="28.958" viewBox="0 0 24.656 28.958">
  <path id="icon_notification" d="M17.52,8.245a9.716,9.716,0,0,1,1.607.3,6.849,6.849,0,0,1,5.22,6.71v8.576l.626.629.523.526H9.409l.523-.526.626-.629V15.257a6.849,6.849,0,0,1,5.22-6.71,11.9,11.9,0,0,1,1.607-.3m.067-4.87a2.055,2.055,0,0,0-2.087,2.1V6.45a9.06,9.06,0,0,0-6.958,8.807v7.688l-2.783,2.8v1.4H29.281v-1.4l-2.783-2.8V15.257A9.06,9.06,0,0,0,19.54,6.45V5.472a2.055,2.055,0,0,0-2.087-2.1Zm2.783,25.162H14.67a2.783,2.783,0,1,0,5.566,0Z" transform="translate(-5.125 -2.875)" fill="#101010" stroke="#101010" stroke-width="1"/>
</svg>
