<svg xmlns="http://www.w3.org/2000/svg" width="21.373" height="21.373" viewBox="0 0 21.373 21.373">
  <g id="Group_557" data-name="Group 557" transform="translate(-35.975 -263.872)">
    <g id="Group_556" data-name="Group 556" transform="translate(35.975 263.872)">
      <path id="Path_477" data-name="Path 477" d="M620.231,449.508h-4.845A2.387,2.387,0,0,1,613,447.121V440.6a.714.714,0,0,1,.713-.712h6.519a2.387,2.387,0,0,1,2.387,2.387v4.845a2.387,2.387,0,0,1-2.387,2.387Zm-5.806-8.193v5.806a.958.958,0,0,0,.962.962h4.845a.958.958,0,0,0,.962-.962v-4.845a.958.958,0,0,0-.962-.962Zm0,0" transform="translate(-601.245 -428.135)" fill="#fff"/>
      <path id="Path_478" data-name="Path 478" d="M422.231,449.508h-4.845A2.387,2.387,0,0,1,415,447.121v-4.845a2.387,2.387,0,0,1,2.387-2.387h6.519a.714.714,0,0,1,.712.712v6.519a2.387,2.387,0,0,1-2.387,2.387Zm-4.845-8.193a.958.958,0,0,0-.962.962v4.845a.958.958,0,0,0,.962.962h4.845a.958.958,0,0,0,.962-.962v-5.806Zm0,0" transform="translate(-415 -428.135)" fill="#fff"/>
      <path id="Path_479" data-name="Path 479" d="M620.231,251.508h-6.519A.714.714,0,0,1,613,250.8v-6.519a2.387,2.387,0,0,1,2.387-2.387h4.845a2.387,2.387,0,0,1,2.387,2.387v4.845a2.387,2.387,0,0,1-2.387,2.387Zm-5.806-1.425h5.806a.958.958,0,0,0,.962-.962v-4.845a.958.958,0,0,0-.962-.962h-4.845a.958.958,0,0,0-.962.962Zm0,0" transform="translate(-601.245 -241.89)" fill="#fff"/>
      <path id="Path_480" data-name="Path 480" d="M423.906,251.508h-6.519A2.387,2.387,0,0,1,415,249.121v-4.845a2.387,2.387,0,0,1,2.387-2.387h4.845a2.387,2.387,0,0,1,2.387,2.387V250.8a.714.714,0,0,1-.712.712Zm-6.519-8.193a.958.958,0,0,0-.962.962v4.845a.958.958,0,0,0,.962.962h5.806v-5.806a.958.958,0,0,0-.962-.962Zm0,0" transform="translate(-415 -241.89)" fill="#fff"/>
    </g>
  </g>
</svg>
