<svg xmlns="http://www.w3.org/2000/svg" xmlns:xlink="http://www.w3.org/1999/xlink" width="12" height="12" viewBox="0 0 12 12">
  <defs>
    <clipPath id="clip-path">
      <path id="_Icon_小olor" data-name=" Icon 小olor" d="M10.667,12H8a1.335,1.335,0,0,1-1.333-1.333V8A1.335,1.335,0,0,1,8,6.667h2.667A1.335,1.335,0,0,1,12,8v2.667A1.335,1.335,0,0,1,10.667,12ZM8,8v2.667h2.668V8ZM4,12H1.333A1.335,1.335,0,0,1,0,10.667V8A1.335,1.335,0,0,1,1.333,6.667H4A1.335,1.335,0,0,1,5.333,8v2.667A1.335,1.335,0,0,1,4,12ZM1.333,8v2.667H4V8Zm9.334-2.666H8A1.335,1.335,0,0,1,6.667,4V1.333A1.335,1.335,0,0,1,8,0h2.667A1.335,1.335,0,0,1,12,1.333V4A1.335,1.335,0,0,1,10.667,5.333ZM8,1.333V4h2.668V1.333Zm-4,4H1.333A1.335,1.335,0,0,1,0,4V1.333A1.335,1.335,0,0,1,1.333,0H4A1.335,1.335,0,0,1,5.333,1.333V4A1.335,1.335,0,0,1,4,5.333Zm-2.667-4V4H4V1.333Z" transform="translate(-0.346 -0.346)" fill="#7c7d7d"/>
    </clipPath>
  </defs>
  <g id="_01_Icons_Filled_alert-circle-fill_Copy_2" data-name="01) Icons/Filled/alert-circle-fill Copy 2" transform="translate(-2.154 -2.154)">
    <g id="Group_167" data-name="Group 167" transform="translate(2.5 2.5)">
      <path id="_Icon_小olor-2" data-name=" Icon 小olor" d="M10.667,12H8a1.335,1.335,0,0,1-1.333-1.333V8A1.335,1.335,0,0,1,8,6.667h2.667A1.335,1.335,0,0,1,12,8v2.667A1.335,1.335,0,0,1,10.667,12ZM8,8v2.667h2.668V8ZM4,12H1.333A1.335,1.335,0,0,1,0,10.667V8A1.335,1.335,0,0,1,1.333,6.667H4A1.335,1.335,0,0,1,5.333,8v2.667A1.335,1.335,0,0,1,4,12ZM1.333,8v2.667H4V8Zm9.334-2.666H8A1.335,1.335,0,0,1,6.667,4V1.333A1.335,1.335,0,0,1,8,0h2.667A1.335,1.335,0,0,1,12,1.333V4A1.335,1.335,0,0,1,10.667,5.333ZM8,1.333V4h2.668V1.333Zm-4,4H1.333A1.335,1.335,0,0,1,0,4V1.333A1.335,1.335,0,0,1,1.333,0H4A1.335,1.335,0,0,1,5.333,1.333V4A1.335,1.335,0,0,1,4,5.333Zm-2.667-4V4H4V1.333Z" transform="translate(-0.346 -0.346)" fill="#7c7d7d"/>
    </g>
  </g>
</svg>
