<svg xmlns="http://www.w3.org/2000/svg" width="34.353" height="35.998" viewBox="0 0 34.353 35.998">
  <path id="Icon_simple-hubspot" data-name="Icon simple-hubspot" d="M27.246,11.9V7.628a3.3,3.3,0,0,0,1.9-2.967v-.1a3.3,3.3,0,0,0-3.288-3.29h-.1a3.3,3.3,0,0,0-3.289,3.288v.1a3.294,3.294,0,0,0,1.878,2.96l.02.009v4.278a9.33,9.33,0,0,0-4.453,1.965l.018-.014L8.187,4.713A3.745,3.745,0,1,0,6.452,6.986l-.018.009,11.544,8.986a9.361,9.361,0,0,0,.163,10.578l-.02-.028-3.513,3.513a2.952,2.952,0,0,0-.87-.143h0a3.049,3.049,0,1,0,3.05,3.049,2.967,2.967,0,0,0-.148-.893l.006.021L20.118,28.6a9.37,9.37,0,1,0,7.173-16.7l-.054-.008ZM25.8,25.962a4.809,4.809,0,1,1,4.821-4.809v0a4.809,4.809,0,0,1-4.809,4.809Z" transform="translate(-0.822 -0.002)" fill="#fff"/>
</svg>
