<svg xmlns="http://www.w3.org/2000/svg" width="22.222" height="22.222" viewBox="0 0 22.222 22.222">
  <g id="Group_3915" data-name="Group 3915" transform="translate(-304.71 1087.698)">
    <path id="Path_11738" data-name="Path 11738" d="M324.341-1087.448H307.3a2.343,2.343,0,0,0-2.34,2.34v14.315a2.343,2.343,0,0,0,2.34,2.34h5.53l2.54,2.54a.637.637,0,0,0,.45.187.635.635,0,0,0,.45-.187l2.54-2.54h5.53a2.343,2.343,0,0,0,2.34-2.34v-14.315a2.343,2.343,0,0,0-2.34-2.34Zm1.068,16.655a1.069,1.069,0,0,1-1.068,1.068h-5.794a.636.636,0,0,0-.45.186l-2.277,2.277-2.277-2.277a.636.636,0,0,0-.45-.186H307.3a1.069,1.069,0,0,1-1.068-1.068v-14.315a1.069,1.069,0,0,1,1.068-1.068h17.041a1.069,1.069,0,0,1,1.068,1.068Zm0,0" transform="translate(0)" fill="#fff" stroke="#fff" stroke-width="0.5"/>
    <path id="Path_11739" data-name="Path 11739" d="M402.161-1023.286l-3.383-.492-1.513-3.066a.637.637,0,0,0-.571-.355.636.636,0,0,0-.571.355l-1.513,3.066-3.383.492a.636.636,0,0,0-.514.433.636.636,0,0,0,.161.652l2.448,2.386-.578,3.37a.636.636,0,0,0,.253.622.637.637,0,0,0,.67.048l3.026-1.591,3.026,1.591a.637.637,0,0,0,.3.073h0a.636.636,0,0,0,.635-.636.642.642,0,0,0-.016-.142l-.572-3.335,2.448-2.386a.636.636,0,0,0,.161-.652.636.636,0,0,0-.514-.433Zm-3.224,2.794a.637.637,0,0,0-.183.563l.417,2.428-2.181-1.146a.636.636,0,0,0-.592,0l-2.181,1.146.417-2.428a.636.636,0,0,0-.183-.563l-1.764-1.72,2.438-.354a.638.638,0,0,0,.479-.348l1.09-2.209,1.091,2.209a.637.637,0,0,0,.479.348l2.438.354Zm0,0" transform="translate(-80.873 -56.842)" fill="#fff" stroke="#fff" stroke-width="0.5"/>
  </g>
</svg>
