<svg xmlns="http://www.w3.org/2000/svg" width="88.748" height="19.607" viewBox="0 0 88.748 19.607">
  <g id="Group_206" data-name="Group 206" transform="translate(-628.266 -271.693)">
    <path id="Icon_payment-paypal" data-name="Icon payment-paypal" d="M40.044,24.847H37.5a.735.735,0,0,0-.608.322l-3.514,5.174-1.488-4.972a.737.737,0,0,0-.7-.524h-2.5a.441.441,0,0,0-.418.583l2.8,8.232-2.637,3.722a.441.441,0,0,0,.36.7h2.544a.739.739,0,0,0,.6-.316l8.469-12.224a.441.441,0,0,0-.363-.692ZM23.018,29.779a2.825,2.825,0,0,1-2.86,2.42,1.964,1.964,0,0,1-2.1-2.464A2.835,2.835,0,0,1,20.9,27.3a2.134,2.134,0,0,1,1.689.69,2.182,2.182,0,0,1,.43,1.792Zm3.531-4.932H24.016a.441.441,0,0,0-.436.373l-.111.707-.177-.256A3.609,3.609,0,0,0,20.3,24.608a5.827,5.827,0,0,0-5.656,5.1,4.781,4.781,0,0,0,.944,3.892,3.964,3.964,0,0,0,3.19,1.288,4.851,4.851,0,0,0,3.508-1.449l-.113.7a.441.441,0,0,0,.436.51h2.282a.734.734,0,0,0,.727-.62l1.37-8.674a.441.441,0,0,0-.436-.509Zm-15.205.06c-.289,1.9-1.739,1.9-3.143,1.9H7.4l.56-3.546a.44.44,0,0,1,.435-.372h.367c.955,0,1.857,0,2.322.544a1.767,1.767,0,0,1,.257,1.475Zm-.61-4.956H5.442a.735.735,0,0,0-.727.621L2.576,34.141a.441.441,0,0,0,.435.51H5.539a.735.735,0,0,0,.726-.62l.578-3.661a.735.735,0,0,1,.726-.621H9.242c3.486,0,5.5-1.686,6.022-5.03A4.074,4.074,0,0,0,14.59,21.3a4.9,4.9,0,0,0-3.856-1.352Zm56.543.373L65.105,34.141a.441.441,0,0,0,.435.51h2.184a.734.734,0,0,0,.726-.621l2.142-13.568a.441.441,0,0,0-.436-.51H67.713a.441.441,0,0,0-.436.373Zm-6.518,9.454A2.825,2.825,0,0,1,57.9,32.2a1.964,1.964,0,0,1-2.1-2.464A2.835,2.835,0,0,1,58.64,27.3a2.134,2.134,0,0,1,1.689.69,2.182,2.182,0,0,1,.43,1.792Zm3.531-4.932H61.756a.441.441,0,0,0-.436.373l-.111.708-.178-.256a3.607,3.607,0,0,0-2.993-1.063,5.827,5.827,0,0,0-5.656,5.1,4.781,4.781,0,0,0,.944,3.892,3.964,3.964,0,0,0,3.19,1.288,4.851,4.851,0,0,0,3.508-1.449l-.113.7a.441.441,0,0,0,.436.51H62.63a.734.734,0,0,0,.727-.62l1.37-8.674a.441.441,0,0,0-.436-.51Zm-15.205.06c-.289,1.9-1.739,1.9-3.143,1.9h-.8l.56-3.546a.44.44,0,0,1,.435-.372h.367c.955,0,1.857,0,2.322.544a1.77,1.77,0,0,1,.256,1.475Zm-.61-4.956H43.183a.735.735,0,0,0-.727.621L40.317,34.141a.441.441,0,0,0,.435.51h2.715a.515.515,0,0,0,.508-.434l.607-3.847a.735.735,0,0,1,.726-.621h1.674c3.486,0,5.5-1.686,6.022-5.03A4.074,4.074,0,0,0,52.33,21.3a4.9,4.9,0,0,0-3.856-1.352Z" transform="translate(646.416 253.221)" fill="#fff"/>
    <path id="Icon_metro-paypal" data-name="Icon metro-paypal" d="M11.672,12.648h1.64c3.562,0,5.583-1.6,6.226-4.9.021-.109.04-.213.055-.318a5.218,5.218,0,0,0,.061-.617c.006-.132.01-.211.009-.284A2.613,2.613,0,0,0,19.45,5.5a3.532,3.532,0,0,0-.606-.907,5.346,5.346,0,0,0-4.066-1.509H9.191a.8.8,0,0,0-.79.675L7.394,10.254,6.14,18.343a.48.48,0,0,0,.474.554H9.353l.839-4.984a1.493,1.493,0,0,1,1.479-1.265Zm9-4.533c-.783,3.727-3.318,5.7-7.358,5.7H11.672a.327.327,0,0,0-.324.279l-1.092,6.776h2.873a.7.7,0,0,0,.691-.59l.029-.148.548-3.473.036-.192a.7.7,0,0,1,.691-.59h.435c2.817,0,5.021-1.144,5.666-4.453a3.821,3.821,0,0,0-.555-3.313Z" transform="translate(622.132 268.608)" fill="#fff"/>
  </g>
</svg>
