<svg xmlns="http://www.w3.org/2000/svg" width="27.5" height="27.5" viewBox="0 0 27.5 27.5">
  <g id="Icon_feather-settings" data-name="Icon feather-settings" transform="translate(-0.75 -0.75)">
    <path id="Path_471" data-name="Path 471" d="M18.889,16.195A2.695,2.695,0,1,1,16.195,13.5,2.695,2.695,0,0,1,18.889,16.195Z" transform="translate(-1.695 -1.695)" fill="none" stroke="#fff" stroke-linecap="round" stroke-linejoin="round" stroke-width="1.5"/>
    <path id="Path_472" data-name="Path 472" d="M23.245,18.045a1.95,1.95,0,0,0,.39,2.151l.071.071a2.365,2.365,0,1,1-3.345,3.345l-.071-.071a1.966,1.966,0,0,0-3.333,1.395v.2a2.364,2.364,0,1,1-4.727,0V25.03a1.95,1.95,0,0,0-1.276-1.785,1.95,1.95,0,0,0-2.151.39l-.071.071a2.365,2.365,0,1,1-3.345-3.345l.071-.071a1.966,1.966,0,0,0-1.395-3.333h-.2a2.364,2.364,0,1,1,0-4.727H3.97a1.95,1.95,0,0,0,1.785-1.276A1.95,1.95,0,0,0,5.365,8.8l-.071-.071A2.365,2.365,0,1,1,8.638,5.388l.071.071a1.95,1.95,0,0,0,2.151.39h.095a1.95,1.95,0,0,0,1.182-1.785v-.2a2.364,2.364,0,0,1,4.727,0V3.97A1.966,1.966,0,0,0,20.2,5.365l.071-.071a2.365,2.365,0,1,1,3.345,3.345l-.071.071a1.95,1.95,0,0,0-.39,2.151v.095a1.95,1.95,0,0,0,1.785,1.182h.2a2.364,2.364,0,1,1,0,4.727H25.03a1.95,1.95,0,0,0-1.785,1.182Z" fill="none" stroke="#fff" stroke-linecap="round" stroke-linejoin="round" stroke-width="1.5"/>
  </g>
</svg>
