<svg xmlns="http://www.w3.org/2000/svg" width="46.675" height="15.088" viewBox="0 0 46.675 15.088">
  <path id="Icon_payment-visa" data-name="Icon payment-visa" d="M10.434,20.558a1.519,1.519,0,0,0-1.709-1.231H2.616l-.045.3c4.193,1.072,7.635,3.351,9.185,7.659l-1.322-6.723Zm1.709,8.752-.387-2.029a9.15,9.15,0,0,0-4.924-4.969L9.909,33.936H13.9l5.949-14.609H15.834l-3.692,9.983Zm10.644,4.648,2.369-14.631H21.373L19,33.958ZM33.11,19.076c-3.738,0-6.358,1.984-6.381,4.831-.023,2.1,1.869,3.259,3.3,3.967,1.482.706,1.96,1.185,1.96,1.822,0,.98-1.185,1.414-2.256,1.414a7.17,7.17,0,0,1-3.555-.752l-.5-.251-.525,3.281a11.023,11.023,0,0,0,4.216.776c3.966.023,6.542-1.96,6.587-4.991,0-1.664-1.025-2.917-3.191-3.967-1.321-.66-2.118-1.14-2.118-1.822,0-.615.683-1.254,2.165-1.254a6.286,6.286,0,0,1,2.826.548l.342.181.523-3.168a9.4,9.4,0,0,0-3.4-.616Zm10.165.251a1.871,1.871,0,0,0-1.984,1.231l-5.607,13.4h3.966c.639-1.8.8-2.188.8-2.188h4.831s.115.5.455,2.188h3.51L46.193,19.327H43.275Zm-1.756,9.436s.319-.844,1.505-4.08c-.023.023.319-.844.5-1.39l.273,1.254c.706,3.487.867,4.216.867,4.216H41.519Z" transform="translate(-2.571 -19.076)" fill="#101010"/>
</svg>
