<svg xmlns="http://www.w3.org/2000/svg" width="15" height="15" viewBox="0 0 15 15">
  <g id="Group_572" data-name="Group 572" transform="translate(-688 -274.7)">
    <path id="Icon_metro-dollar2" data-name="Icon metro-dollar2" d="M15.193,8.853a2.135,2.135,0,0,1-.558,1.479,2.41,2.41,0,0,1-1.451.766v.982a.173.173,0,0,1-.18.18h-.758a.182.182,0,0,1-.18-.18V11.1a3.537,3.537,0,0,1-.715-.174,3.446,3.446,0,0,1-.985-.519,3.2,3.2,0,0,1-.261-.21q-.07-.067-.1-.1A.17.17,0,0,1,10,9.863l.578-.758a.175.175,0,0,1,.129-.067.139.139,0,0,1,.135.051l.011.011a2.93,2.93,0,0,0,1.364.7,1.96,1.96,0,0,0,.415.045,1.361,1.361,0,0,0,.8-.241.786.786,0,0,0,.345-.685.569.569,0,0,0-.084-.3,1.051,1.051,0,0,0-.188-.236,1.54,1.54,0,0,0-.328-.21q-.224-.115-.37-.18t-.449-.182l-.345-.14q-.126-.051-.345-.149t-.351-.174q-.132-.076-.317-.2a1.976,1.976,0,0,1-.3-.238,3.5,3.5,0,0,1-.244-.275,1.373,1.373,0,0,1-.2-.325,2.25,2.25,0,0,1-.118-.373,1.948,1.948,0,0,1-.048-.438,1.919,1.919,0,0,1,.55-1.358,2.568,2.568,0,0,1,1.431-.752V2.383a.182.182,0,0,1,.18-.18H13a.173.173,0,0,1,.18.18v.988a3.121,3.121,0,0,1,.62.129,3.6,3.6,0,0,1,.488.188,2.7,2.7,0,0,1,.356.21q.168.118.219.163t.084.079a.162.162,0,0,1,.028.213l-.455.819a.153.153,0,0,1-.129.09.179.179,0,0,1-.152-.039q-.017-.017-.081-.067t-.219-.149a2.9,2.9,0,0,0-.328-.18,2.506,2.506,0,0,0-.418-.146,1.872,1.872,0,0,0-.48-.065,1.458,1.458,0,0,0-.87.241.754.754,0,0,0-.289.892.631.631,0,0,0,.166.233,2.472,2.472,0,0,0,.222.185,1.976,1.976,0,0,0,.314.174q.21.1.339.152t.393.154q.3.112.455.177t.426.2a3.39,3.39,0,0,1,.424.238,3.583,3.583,0,0,1,.348.281,1.453,1.453,0,0,1,.3.356,2.033,2.033,0,0,1,.177.429,1.851,1.851,0,0,1,.073.527Z" transform="translate(682.775 275.119)" fill="#101010"/>
    <g id="Rectangle_900" data-name="Rectangle 900" transform="translate(688 274.7)" fill="none" stroke="#101010" stroke-width="1.5">
      <rect width="15" height="15" rx="3" stroke="none"/>
      <rect x="0.75" y="0.75" width="13.5" height="13.5" rx="2.25" fill="none"/>
    </g>
  </g>
</svg>
