<svg xmlns="http://www.w3.org/2000/svg" width="16.382" height="16.382" viewBox="0 0 16.382 16.382">
  <g id="Icon_feather-image" data-name="Icon feather-image" transform="translate(0.75 0.75)">
    <path id="Path_169" data-name="Path 169" d="M6.119,4.5H17.453a1.619,1.619,0,0,1,1.619,1.619V17.453a1.619,1.619,0,0,1-1.619,1.619H6.119A1.619,1.619,0,0,1,4.5,17.453V6.119A1.619,1.619,0,0,1,6.119,4.5Z" transform="translate(-4.5 -4.5)" fill="none" stroke="#1a1a1a" stroke-linecap="round" stroke-linejoin="round" stroke-width="1.5"/>
    <path id="Path_170" data-name="Path 170" d="M12.929,11.714A1.214,1.214,0,1,1,11.714,10.5,1.214,1.214,0,0,1,12.929,11.714Z" transform="translate(-7.262 -7.262)" fill="none" stroke="#1a1a1a" stroke-linecap="round" stroke-linejoin="round" stroke-width="1.5"/>
    <path id="Path_171" data-name="Path 171" d="M20.453,19.048,16.4,15,7.5,23.9" transform="translate(-5.881 -9.333)" fill="none" stroke="#1a1a1a" stroke-linecap="round" stroke-linejoin="round" stroke-width="1.5"/>
  </g>
</svg>
