<svg xmlns="http://www.w3.org/2000/svg" width="16.919" height="16.92" viewBox="0 0 16.919 16.92">
  <g id="Group_464" data-name="Group 464" transform="translate(-707.75 -707.75)">
    <path id="Path_373" data-name="Path 373" d="M808.1,714.841h-.013a.344.344,0,0,1-.26-.137l-.924-1.231h-1.881A1.028,1.028,0,0,1,804,712.447v-3.421A1.028,1.028,0,0,1,805.026,708h6.157a1.027,1.027,0,0,1,1.026,1.026v3.421a1.028,1.028,0,0,1-1.026,1.026h-1.726l-1.1,1.251a.341.341,0,0,1-.257.117Zm-3.079-6.157a.342.342,0,0,0-.342.342v3.421a.342.342,0,0,0,.342.342h2.052a.342.342,0,0,1,.274.137l.773,1.03.92-1.051a.342.342,0,0,1,.257-.116h1.881a.342.342,0,0,0,.342-.342v-3.421a.342.342,0,0,0-.342-.342Zm0,0" transform="translate(-91.895)" fill="#101010" stroke="#101010" stroke-width="0.5"/>
    <path id="Path_374" data-name="Path 374" d="M1008.242,730.841h-.013a.342.342,0,0,1-.261-.138l-.54-.725a.342.342,0,1,1,.549-.409l.287.386.918-1.05a.343.343,0,0,1,.258-.117h.513a.342.342,0,0,0,.342-.342v-3.421a.342.342,0,0,0-.342-.342h-1.368a.342.342,0,1,1,0-.684h1.368a1.027,1.027,0,0,1,1.026,1.026v3.421a1.027,1.027,0,0,1-1.026,1.026h-.358l-1.1,1.251a.341.341,0,0,1-.257.117Zm0,0" transform="translate(-286.559 -15.316)" fill="#101010" stroke="#101010" stroke-width="0.5"/>
    <path id="Path_375" data-name="Path 375" d="M710.737,730.841a.341.341,0,0,1-.257-.117l-1.1-1.251h-.358A1.027,1.027,0,0,1,708,728.447v-3.421A1.028,1.028,0,0,1,709.026,724h1.368a.342.342,0,0,1,0,.684h-1.368a.342.342,0,0,0-.342.342v3.421a.342.342,0,0,0,.342.342h.513a.341.341,0,0,1,.257.117l.918,1.05.287-.386a.342.342,0,1,1,.549.409l-.54.725a.341.341,0,0,1-.26.138Zm0,0" transform="translate(0 -15.316)" fill="#101010" stroke="#101010" stroke-width="0.5"/>
    <path id="Path_376" data-name="Path 376" d="M997.368,918.737a1.368,1.368,0,1,1,1.368-1.368,1.37,1.37,0,0,1-1.368,1.368Zm0-2.052a.684.684,0,1,0,.684.684.685.685,0,0,0-.684-.684Zm0,0" transform="translate(-275.685 -199.106)" fill="#101010" stroke="#101010" stroke-width="0.5"/>
    <path id="Path_377" data-name="Path 377" d="M999.763,998.737a.342.342,0,0,1-.342-.342v-.684a1.028,1.028,0,0,0-1.026-1.026h-2.053a.342.342,0,0,1,0-.684h2.053a1.713,1.713,0,0,1,1.71,1.71v.684a.342.342,0,0,1-.342.342Zm0,0" transform="translate(-275.685 -275.685)" fill="#101010" stroke="#101010" stroke-width="0.5"/>
    <path id="Path_378" data-name="Path 378" d="M741.368,918.737a1.368,1.368,0,1,1,1.368-1.368,1.37,1.37,0,0,1-1.368,1.368Zm0-2.052a.684.684,0,1,0,.684.684.685.685,0,0,0-.684-.684Zm0,0" transform="translate(-30.631 -199.106)" fill="#101010" stroke="#101010" stroke-width="0.5"/>
    <path id="Path_379" data-name="Path 379" d="M708.342,998.737a.342.342,0,0,1-.342-.342v-.684a1.713,1.713,0,0,1,1.71-1.71h2.052a.342.342,0,1,1,0,.684H709.71a1.028,1.028,0,0,0-1.026,1.026v.684a.342.342,0,0,1-.342.342Zm0,0" transform="translate(0 -275.685)" fill="#101010" stroke="#101010" stroke-width="0.5"/>
    <path id="Path_380" data-name="Path 380" d="M854.052,896.1a2.052,2.052,0,1,1,2.052-2.052,2.055,2.055,0,0,1-2.052,2.052Zm0-3.421a1.368,1.368,0,1,0,1.368,1.368,1.37,1.37,0,0,0-1.368-1.368Zm0,0" transform="translate(-137.843 -176.132)" fill="#101010" stroke="#101010" stroke-width="0.5"/>
    <path id="Path_381" data-name="Path 381" d="M819.183,1015.421a.342.342,0,0,1-.342-.342v-1.368a1.028,1.028,0,0,0-1.026-1.026h-4.1a1.027,1.027,0,0,0-1.026,1.026v1.368a.342.342,0,1,1-.684,0v-1.368a1.713,1.713,0,0,1,1.71-1.71h4.1a1.713,1.713,0,0,1,1.71,1.71v1.368a.342.342,0,0,1-.342.342Zm0,0" transform="translate(-99.553 -291.001)" fill="#101010" stroke="#101010" stroke-width="0.5"/>
  </g>
</svg>
