<svg xmlns="http://www.w3.org/2000/svg" width="60.431" height="60.431" viewBox="0 0 60.431 60.431">
  <path id="Path_400" data-name="Path 400" d="M259.1,329.324H214.466a7.707,7.707,0,0,0-7.7,7.7v44.635a7.707,7.707,0,0,0,7.7,7.7H259.1a7.707,7.707,0,0,0,7.7-7.7V337.022A7.707,7.707,0,0,0,259.1,329.324Zm4.418,7.7V357.7H237.369V332.6H259.1A4.423,4.423,0,0,1,263.518,337.022Zm-53.47,44.635V337.022a4.423,4.423,0,0,1,4.417-4.417h19.622v53.47H214.466A4.423,4.423,0,0,1,210.049,381.657Zm49.052,4.418H237.369V360.98h26.149v20.677A4.423,4.423,0,0,1,259.1,386.075Z" transform="translate(-206.568 -329.124)" fill="#101010" stroke="#101010" stroke-width="0.4"/>
</svg>
