<svg id="Component_17_1" data-name="Component 17 – 1" xmlns="http://www.w3.org/2000/svg" width="57.981" height="57.981" viewBox="0 0 57.981 57.981">
  <path id="Path_416" data-name="Path 416" d="M806.991,765.981a28.99,28.99,0,1,1,20.5-8.491,28.8,28.8,0,0,1-20.5,8.491Zm0-54.358a25.367,25.367,0,1,0,25.367,25.367,25.4,25.4,0,0,0-25.367-25.367Zm0,0" transform="translate(-778 -708)" fill="#101010"/>
  <path id="Path_417" data-name="Path 417" d="M924.154,796.307a4.53,4.53,0,1,1,4.53-4.53,1.812,1.812,0,1,0,3.624,0,8.167,8.167,0,0,0-6.342-7.948v-2.017a1.812,1.812,0,0,0-3.624,0v2.017a8.153,8.153,0,0,0,1.812,16.1,4.53,4.53,0,1,1-4.53,4.53,1.812,1.812,0,1,0-3.624,0,8.167,8.167,0,0,0,6.342,7.948v2.017a1.812,1.812,0,1,0,3.624,0v-2.017a8.153,8.153,0,0,0-1.812-16.1Zm0,0" transform="translate(-895.163 -769.128)" fill="#101010"/>
</svg>
