<svg xmlns="http://www.w3.org/2000/svg" xmlns:xlink="http://www.w3.org/1999/xlink" width="608" height="394" viewBox="0 0 608 394">
  <defs>
    <filter id="Rectangle_1945" x="0" y="0" width="608" height="394" filterUnits="userSpaceOnUse">
      <feOffset dx="5" dy="5" input="SourceAlpha"/>
      <feGaussianBlur stdDeviation="9" result="blur"/>
      <feFlood flood-opacity="0.078"/>
      <feComposite operator="in" in2="blur"/>
      <feComposite in="SourceGraphic"/>
    </filter>
  </defs>
  <g id="Revenue_Growth" data-name="Revenue Growth" transform="translate(22 22)">
    <g transform="matrix(1, 0, 0, 1, -22, -22)" filter="url(#Rectangle_1945)">
      <rect id="Rectangle_1945-2" data-name="Rectangle 1945" width="554" height="340" rx="10" transform="translate(22 22)" fill="#fff"/>
    </g>
    <g id="Widgets__Elements_Chart_Graph_-_Line_Bar" data-name="Widgets / _Elements / Chart / Graph - Line Bar" transform="translate(85 22.545)">
      <text id="Jan" transform="translate(10 290.455)" fill="#7c7d7d" font-size="13" font-family="PublicSans-Medium, Public Sans" font-weight="500"><tspan x="-10.013" y="0">Jan</tspan></text>
    </g>
    <g id="Widgets__Elements_Chart_Graph_-_Line_Bar-2" data-name="Widgets / _Elements / Chart / Graph - Line Bar" transform="translate(123 22.545)">
      <text id="Jan-2" data-name="Jan" transform="translate(10 290.455)" fill="#7c7d7d" font-size="13" font-family="PublicSans-Medium, Public Sans" font-weight="500"><tspan x="-11.339" y="0">Feb</tspan></text>
    </g>
    <g id="Widgets__Elements_Chart_Graph_-_Line_Bar-3" data-name="Widgets / _Elements / Chart / Graph - Line Bar" transform="translate(160 22.545)">
      <text id="Jan-3" data-name="Jan" transform="translate(10 290.455)" fill="#7c7d7d" font-size="13" font-family="PublicSans-Medium, Public Sans" font-weight="500"><tspan x="-12.031" y="0">Mar</tspan></text>
    </g>
    <g id="Widgets__Elements_Chart_Graph_-_Line_Bar-4" data-name="Widgets / _Elements / Chart / Graph - Line Bar" transform="translate(198 22.545)">
      <text id="Jan-4" data-name="Jan" transform="translate(10 290.455)" fill="#7c7d7d" font-size="13" font-family="PublicSans-Medium, Public Sans" font-weight="500"><tspan x="-11.076" y="0">Apr</tspan></text>
    </g>
    <g id="Widgets__Elements_Chart_Graph_-_Line_Bar-5" data-name="Widgets / _Elements / Chart / Graph - Line Bar" transform="translate(236 22.545)">
      <text id="Jan-5" data-name="Jan" transform="translate(10 290.455)" fill="#7c7d7d" font-size="13" font-family="PublicSans-Medium, Public Sans" font-weight="500"><tspan x="-12.886" y="0">May</tspan></text>
    </g>
    <g id="Widgets__Elements_Chart_Graph_-_Line_Bar-6" data-name="Widgets / _Elements / Chart / Graph - Line Bar" transform="translate(274 22.545)">
      <text id="Jan-6" data-name="Jan" transform="translate(10 290.455)" fill="#7c7d7d" font-size="13" font-family="PublicSans-Medium, Public Sans" font-weight="500"><tspan x="-10.114" y="0">Jun</tspan></text>
    </g>
    <g id="Widgets__Elements_Chart_Graph_-_Line_Bar-7" data-name="Widgets / _Elements / Chart / Graph - Line Bar" transform="translate(311 22.545)">
      <text id="Jan-7" data-name="Jan" transform="translate(10 290.455)" fill="#7c7d7d" font-size="13" font-family="PublicSans-Medium, Public Sans" font-weight="500"><tspan x="-8.317" y="0">Jul</tspan></text>
    </g>
    <g id="Widgets__Elements_Chart_Graph_-_Line_Bar-8" data-name="Widgets / _Elements / Chart / Graph - Line Bar" transform="translate(349 22.545)">
      <text id="Jan-8" data-name="Jan" transform="translate(10 290.455)" fill="#7c7d7d" font-size="13" font-family="PublicSans-Medium, Public Sans" font-weight="500"><tspan x="-12.369" y="0">Aug</tspan></text>
    </g>
    <g id="Widgets__Elements_Chart_Graph_-_Line_Bar-9" data-name="Widgets / _Elements / Chart / Graph - Line Bar" transform="translate(387 22.545)">
      <text id="Jan-9" data-name="Jan" transform="translate(10 290.455)" fill="#7c7d7d" font-size="13" font-family="PublicSans-Medium, Public Sans" font-weight="500"><tspan x="-11.95" y="0">Sep</tspan></text>
    </g>
    <g id="Widgets__Elements_Chart_Graph_-_Line_Bar-10" data-name="Widgets / _Elements / Chart / Graph - Line Bar" transform="translate(425 22.545)">
      <text id="Jan-10" data-name="Jan" transform="translate(10 290.455)" fill="#7c7d7d" font-size="13" font-family="PublicSans-Medium, Public Sans" font-weight="500"><tspan x="-10.784" y="0">Oct</tspan></text>
    </g>
    <g id="Widgets__Elements_Chart_Graph_-_Line_Bar-11" data-name="Widgets / _Elements / Chart / Graph - Line Bar" transform="translate(462 22.545)">
      <text id="Jan-11" data-name="Jan" transform="translate(10 290.455)" fill="#7c7d7d" font-size="13" font-family="PublicSans-Medium, Public Sans" font-weight="500"><tspan x="-11.752" y="0">Nov</tspan></text>
    </g>
    <g id="Widgets__Elements_Chart_Graph_-_Line_Bar-12" data-name="Widgets / _Elements / Chart / Graph - Line Bar" transform="translate(500 22.545)">
      <text id="Jan-12" data-name="Jan" transform="translate(10 290.455)" fill="#7c7d7d" font-size="13" font-family="PublicSans-Medium, Public Sans" font-weight="500"><tspan x="-11.729" y="0">Dec</tspan></text>
    </g>
    <text id="_200" data-name="200" transform="translate(63 239)" fill="#7c7d7d" font-size="13" font-family="PublicSans-Medium, Public Sans" font-weight="500" letter-spacing="0.007em"><tspan x="-41.804" y="0">$1,000</tspan></text>
    <text id="_200-2" data-name="200" transform="translate(63 291)" fill="#7c7d7d" font-size="13" font-family="PublicSans-Medium, Public Sans" font-weight="500" letter-spacing="0.007em"><tspan x="-16.804" y="0">$0</tspan></text>
    <text id="_400" data-name="400" transform="translate(63 187.846)" fill="#7c7d7d" font-size="13" font-family="PublicSans-Medium, Public Sans" font-weight="500" letter-spacing="0.007em"><tspan x="-44.326" y="0">$2,000</tspan></text>
    <text id="_600" data-name="600" transform="translate(63 138.037)" fill="#7c7d7d" font-size="13" font-family="PublicSans-Medium, Public Sans" font-weight="500" letter-spacing="0.007em"><tspan x="-44.755" y="0">$3,000</tspan></text>
    <text id="_800" data-name="800" transform="translate(63 86.5)" fill="#7c7d7d" font-size="13" font-family="PublicSans-Medium, Public Sans" font-weight="500" letter-spacing="0.007em"><tspan x="-44.71" y="0">$4,000</tspan></text>
    <text id="_1k" data-name="1k" transform="translate(63 35)" fill="#7c7d7d" font-size="13" font-family="PublicSans-Medium, Public Sans" font-weight="500" letter-spacing="0.007em"><tspan x="-44.892" y="0">$5,000</tspan></text>
    <rect id="Shape" width="452.896" height="1.344" transform="translate(75.775 234.5)" fill="#e8eae9"/>
    <rect id="Shape-2" data-name="Shape" width="452.896" height="1.344" transform="translate(75.775 183.465)" fill="#e8eae9"/>
    <rect id="Shape-3" data-name="Shape" width="452.896" height="1.344" transform="translate(75.775 133.537)" fill="#e8eae9"/>
    <rect id="Shape-4" data-name="Shape" width="452.896" height="1.344" transform="translate(75.775 82.502)" fill="#e8eae9"/>
    <rect id="Shape-5" data-name="Shape" width="452.896" height="1.344" transform="translate(75.775 29.156)" fill="#e8eae9"/>
    <rect id="Shape-6" data-name="Shape" width="452.896" height="1.344" transform="translate(75.775 285.535)" fill="#e8eae9"/>
    <path id="Path" d="M194.724,44.407l-.9-.656-1.809-1.3C167.135,24.621,148.476,14.763,129.9,11.6a65.7,65.7,0,0,0-11.031-.964c-12.044,0-23.253,2.866-34.553,8.38l-1.1.545C75.348,23.508,68.147,28.249,57.8,35.946l-10.109,7.61-1.867,1.393c-2.2,1.632-4.106,3.018-5.959,4.322C24.917,59.8,13.343,64.87.636,65.033l-.636,0V62.678c12.162,0,23.293-4.725,37.77-14.817l.739-.518c2.169-1.527,4.42-3.171,7.134-5.2l8.529-6.428,1.5-1.123C67,26.13,74.63,21.122,83.284,16.9c11.607-5.664,23.164-8.619,35.587-8.619a68.053,68.053,0,0,1,11.427,1c19.251,3.276,38.4,13.474,64,31.912l1.835,1.328,10.5,7.789c7.46,5.509,16.827,12.38,20.836,15.137l.6.412,1.166.779c9.8,6.491,16.749,9.644,21.943,9.644,9.939,0,17.244-4.318,28.476-14.843l4.406-4.175,1.264-1.182c.8-.742,1.521-1.4,2.22-2.017l.348-.306c6.8-5.969,12.171-8.834,18.176-8.834,6.957,0,12.834,2.065,21.813,6.89l5.174,2.833c10.843,5.9,16.71,8.035,24.625,8.035,4.188,0,9.42-2.975,16.486-9.089l.474-.412c2.726-2.385,5.609-5.108,9.565-8.994L392.38,36.1c1.227-1.211,2.315-2.279,3.362-3.3l1.165-1.13C418.782,10.529,434.883.214,452.349,0l.546,0V2.359c-16.686,0-32.337,9.845-53.673,30.356l-1.836,1.776c-.912.887-1.856,1.813-2.9,2.84l-7.605,7.534c-4.516,4.456-7.682,7.464-10.68,10.086l-.974.843c-7.23,6.185-12.718,9.242-17.539,9.242-8.421,0-14.574-2.241-25.75-8.32L327.4,54.225c-9.019-4.9-14.695-6.945-21.319-6.945-5.166,0-9.97,2.5-16.154,7.842l-.466.406c-1.016.892-2.07,1.855-3.338,3.045l-4.289,4.064-1.126,1.055c-11.325,10.525-18.978,14.946-29.516,14.946-5.8,0-13.074-3.3-23.241-10.034l-1.58-1.06c-2.841-1.942-8.687-6.19-14.59-10.524Z" transform="translate(75.775 104.951)" fill="#101010"/>
    <g id="Group_3455" data-name="Group 3455" transform="translate(75.774 141.898)">
      <path id="Path-2" data-name="Path" d="M0,2.359q1.753,0,3.485.075l.1-2.357Q1.8,0,0,0Z" transform="translate(-0.001 50.654)" fill="#7c7d7d"/>
      <path id="Path-3" data-name="Path" d="M0,2.35q1.74.152,3.462.379L3.77.39Q2,.157.205,0Z" transform="translate(6.958 50.964)" fill="#7c7d7d"/>
      <path id="Path-4" data-name="Path" d="M0,2.323q1.715.3,3.419.679L3.927.7Q2.174.312.41,0Z" transform="translate(13.885 51.905)" fill="#7c7d7d"/>
      <path id="Path-5" data-name="Path" d="M0,2.281q1.679.443,3.357.957L4.048.982Q2.325.455.6,0Z" transform="translate(20.687 53.446)" fill="#7c7d7d"/>
      <path id="Path-6" data-name="Path" d="M0,2.229q1.635.566,3.285,1.2l.846-2.2Q2.443.579.772,0Z" transform="translate(27.377 55.544)" fill="#7c7d7d"/>
      <path id="Path-7" data-name="Path" d="M0,2.177q1.588.664,3.215,1.395l.966-2.153Q2.523.675.91,0Z" transform="translate(33.91 58.1)" fill="#7c7d7d"/>
      <path id="Path-8" data-name="Path" d="M0,2.132c1.024.486,2.071.994,3.163,1.535L4.21,1.552C3.107,1.006,2.048.492,1.012,0Z" transform="translate(40.318 61.016)" fill="#7c7d7d"/>
      <path id="Path-9" data-name="Path" d="M0,2.1,3.138,3.714l1.083-2.1L1.071,0Z" transform="translate(46.619 64.156)" fill="#7c7d7d"/>
      <path id="Path-10" data-name="Path" d="M1.082,0,0,2.1,2.8,3.532l.356.181,1.067-2.1L1.955.45Z" transform="translate(52.912 67.404)" fill="#7c7d7d"/>
      <path id="Path-11" data-name="Path" d="M0,2.119c1.124.55,2.188,1.057,3.216,1.531L4.2,1.508,2.972.932C2.345.635,1.7.325,1.037,0Z" transform="translate(59.25 70.588)" fill="#7c7d7d"/>
      <path id="Path-12" data-name="Path" d="M0,2.173C1.139,2.655,2.245,3.1,3.329,3.5l.826-2.21C3.1.9,2.028.469.919,0Z" transform="translate(65.716 73.506)" fill="#7c7d7d"/>
      <path id="Path-13" data-name="Path" d="M0,2.251q1.765.554,3.479.971L4.037.93Q2.4.531.706,0Z" transform="translate(72.468 75.936)" fill="#7c7d7d"/>
      <path id="Path-14" data-name="Path" d="M0,2.328q1.818.3,3.611.435L3.79.41Q2.1.282.381,0Z" transform="translate(79.482 77.549)" fill="#7c7d7d"/>
      <path id="Path-15" data-name="Path" d="M.064,2.68a27.738,27.738,0,0,0,3.677-.35L3.365,0A25.38,25.38,0,0,1,0,.321Z" transform="translate(86.71 77.738)" fill="#7c7d7d"/>
      <path id="Path-16" data-name="Path" d="M.644,3.366Q2.356,2.881,4.1,2.2L3.241,0Q1.6.642,0,1.1Z" transform="translate(93.409 75.894)" fill="#7c7d7d"/>
      <path id="Path-17" data-name="Path" d="M1.03,3.736q1.578-.766,3.2-1.683L3.062,0Q1.507.881,0,1.613Z" transform="translate(99.805 72.897)" fill="#7c7d7d"/>
      <path id="Path-18" data-name="Path" d="M1.268,3.924q1.465-.933,2.979-1.988L2.9,0Q1.421,1.029,0,1.935Z" transform="translate(105.878 69.148)" fill="#7c7d7d"/>
      <path id="Path-19" data-name="Path" d="M1.408,4.023c.921-.685,1.862-1.4,2.833-2.165L2.787,0C1.831.749.9,1.457,0,2.13Z" transform="translate(111.599 64.983)" fill="#7c7d7d"/>
      <path id="Path-20" data-name="Path" d="M0,2.237,1.488,4.068,2.55,3.2c.541-.444,1.1-.905,1.676-1.388L2.716,0,1.594.931C1.047,1.383.518,1.817,0,2.237Z" transform="translate(117.127 60.559)" fill="#7c7d7d"/>
      <path id="Path-21" data-name="Path" d="M1.523,4.086,4.222,1.8,2.7,0,0,2.284Z" transform="translate(122.56 55.989)" fill="#7c7d7d"/>
      <path id="Path-22" data-name="Path" d="M0,2.271,1.519,4.076,3.368,2.53l.857-.709L2.723,0,.957,1.468Z" transform="translate(127.978 51.418)" fill="#7c7d7d"/>
      <path id="Path-23" data-name="Path" d="M1.471,4.035c.96-.766,1.878-1.482,2.766-2.156L2.811,0C1.907.686.975,1.413,0,2.191Z" transform="translate(133.43 47.01)" fill="#7c7d7d"/>
      <path id="Path-24" data-name="Path" d="M1.362,3.934q1.486-1.05,2.886-1.946L2.976,0Q1.526.928,0,2.007Z" transform="translate(139.13 42.884)" fill="#7c7d7d"/>
      <path id="Path-25" data-name="Path" d="M1.145,3.7q1.574-.873,3.068-1.545L3.246,0Q1.656.714,0,1.634Z" transform="translate(145.211 39.392)" fill="#7c7d7d"/>
      <path id="Path-26" data-name="Path" d="M.715,3.116A22.268,22.268,0,0,1,3.979,2.33L3.61,0A24.619,24.619,0,0,0,0,.867Z" transform="translate(151.889 37.203)" fill="#7c7d7d"/>
      <path id="Path-27" data-name="Path" d="M0,2.359q1.783.011,3.489.085l.1-2.357Q1.84.011.014,0Z" transform="translate(159.256 36.95)" fill="#7c7d7d"/>
      <path id="Path-28" data-name="Path" d="M0,2.351c1.175.1,2.327.221,3.464.367l.3-2.34C2.593.228,1.407.1.2,0Z" transform="translate(166.226 37.265)" fill="#7c7d7d"/>
      <path id="Path-29" data-name="Path" d="M0,2.325c1.141.2,2.274.417,3.422.664l.5-2.307C2.739.429,1.574.2.4,0Z" transform="translate(173.136 38.174)" fill="#7c7d7d"/>
      <path id="Path-30" data-name="Path" d="M0,2.289c1.044.261,2.1.539,3.4.89L4.014.9,2.444.481C1.788.308,1.179.152.572,0Z" transform="translate(179.975 39.672)" fill="#7c7d7d"/>
      <path id="Path-31" data-name="Path" d="M.615,0,0,2.278l1.837.488c.565.147,1.093.28,1.613.407L4.01.881,3.236.688C2.447.489,1.607.268.615,0Z" transform="translate(186.777 41.501)" fill="#7c7d7d"/>
      <path id="Path-32" data-name="Path" d="M0,2.316c1.209.236,2.386.43,3.562.583l.3-2.34C2.742.413,1.614.227.452,0Z" transform="translate(193.737 43.135)" fill="#7c7d7d"/>
      <path id="Path-33" data-name="Path" d="M0,2.355c.968.056,1.945.084,2.939.084q.374,0,.751-.03L3.506.058Q3.22.08,2.939.08C1.991.08,1.059.053.136,0Z" transform="translate(200.92 44.019)" fill="#7c7d7d"/>
      <path id="Path-34" data-name="Path" d="M.931,3.782A20.155,20.155,0,0,0,4.214,1.957L2.9,0A17.833,17.833,0,0,1,0,1.614Z" transform="translate(207.486 41.658)" fill="#7c7d7d"/>
      <path id="Path-35" data-name="Path" d="M1.522,4.126C2.382,3.4,3.271,2.594,4.2,1.7L2.564,0C1.67.86.819,1.632,0,2.323Z" transform="translate(213.109 37.252)" fill="#7c7d7d"/>
      <path id="Path-36" data-name="Path" d="M1.7,4.195c.767-.8,1.569-1.659,2.431-2.6L2.391,0,1.4,1.078C.916,1.6.452,2.091,0,2.562Z" transform="translate(218.124 32.227)" fill="#7c7d7d"/>
      <path id="Path-37" data-name="Path" d="M1.764,4.214,4.108,1.559,2.337,0,0,2.647Z" transform="translate(222.875 26.956)" fill="#7c7d7d"/>
      <path id="Path-38" data-name="Path" d="M0,2.645,1.767,4.209,2.989,2.833c.388-.435.759-.849,1.123-1.253L2.36,0,.833,1.706Z" transform="translate(227.565 21.639)" fill="#7c7d7d"/>
      <path id="Path-39" data-name="Path" d="M1.728,4.188c.83-.892,1.631-1.736,2.416-2.543L2.452,0C1.654.82.841,1.677,0,2.581Z" transform="translate(232.345 16.411)" fill="#7c7d7d"/>
      <path id="Path-40" data-name="Path" d="M1.643,4.139Q2.937,2.883,4.191,1.754L2.612,0Q1.322,1.162,0,2.446Z" transform="translate(237.279 11.486)" fill="#7c7d7d"/>
      <path id="Path-41" data-name="Path" d="M1.493,4.027Q2.877,2.9,4.237,1.912L2.855,0Q1.436,1.026,0,2.2Z" transform="translate(242.631 6.929)" fill="#7c7d7d"/>
      <path id="Path-42" data-name="Path" d="M1.239,3.783q1.5-.929,2.994-1.671L3.18,0Q1.593.791,0,1.775Z" transform="translate(248.488 3.14)" fill="#7c7d7d"/>
      <path id="Path-43" data-name="Path" d="M.812,3.263A26.05,26.05,0,0,1,4.055,2.3L3.536,0A28.407,28.407,0,0,0,0,1.047Z" transform="translate(255.069 0.622)" fill="#7c7d7d"/>
      <path id="Path-44" data-name="Path" d="M.173,2.418q.792-.058,1.584-.059c.582,0,1.167.028,1.774.085L3.75.1c-.679-.064-1.337-.1-2-.1Q.876,0,0,.065Z" transform="translate(262.325 0)" fill="#7c7d7d"/>
      <path id="Path-45" data-name="Path" d="M0,2.3q1.576.362,3.3.927L4.033.985Q2.211.387.528,0Z" transform="translate(269.193 0.698)" fill="#7c7d7d"/>
      <path id="Path-46" data-name="Path" d="M0,2.189q1.542.62,3.191,1.379l.986-2.144Q2.476.642.881,0Z" transform="translate(275.746 2.929)" fill="#7c7d7d"/>
      <path id="Path-47" data-name="Path" d="M0,2.105q1.5.761,3.1,1.626L4.223,1.657Q2.6.776,1.065,0Z" transform="translate(282.101 5.922)" fill="#7c7d7d"/>
      <path id="Path-48" data-name="Path" d="M1.171,0,0,2.048l1.5.865q.759.443,1.539.908L4.243,1.794,2.685.875Q1.918.427,1.171,0Z" transform="translate(288.257 9.311)" fill="#7c7d7d"/>
      <path id="Path-49" data-name="Path" d="M1.235,0,0,2.01l1.473.911q.748.465,1.519.952l1.258-2L2.719.918Q1.966.449,1.235,0Z" transform="translate(294.301 12.942)" fill="#7c7d7d"/>
      <path id="Path-50" data-name="Path" d="M1.274,0,0,1.986,2.2,3.4l.764.5L4.248,1.923,2,.464Z" transform="translate(300.27 16.722)" fill="#7c7d7d"/>
      <path id="Path-51" data-name="Path" d="M0,1.972,2.951,3.917l1.3-1.968L1.3,0Z" transform="translate(306.202 20.593)" fill="#7c7d7d"/>
      <path id="Path-52" data-name="Path" d="M0,1.967,2.947,3.919l1.3-1.967L1.3,0Z" transform="translate(312.105 24.5)" fill="#7c7d7d"/>
      <path id="Path-53" data-name="Path" d="M0,1.97,2.391,3.542l.568.372L4.251,1.941,1.3,0Z" transform="translate(317.977 28.381)" fill="#7c7d7d"/>
      <path id="Path-54" data-name="Path" d="M1.283,0,0,1.98l1.51.976q.744.479,1.468.942L4.249,1.91,2.788.972Q2.047.495,1.283,0Z" transform="translate(323.899 32.244)" fill="#7c7d7d"/>
      <path id="Path-55" data-name="Path" d="M0,2q1.537.967,3.01,1.875L4.248,1.863Q2.782.96,1.256,0Z" transform="translate(329.864 36.041)" fill="#7c7d7d"/>
      <path id="Path-56" data-name="Path" d="M0,2.022q1.553.934,3.053,1.81l1.19-2.038Q2.755.926,1.216,0Z" transform="translate(335.912 39.74)" fill="#7c7d7d"/>
      <path id="Path-57" data-name="Path" d="M0,2.055q1.58.891,3.111,1.72L4.234,1.7Q2.721.881,1.159,0Z" transform="translate(342.052 43.29)" fill="#7c7d7d"/>
      <path id="Path-58" data-name="Path" d="M0,2.1q1.618.833,3.186,1.595L4.217,1.57Q2.673.821,1.08,0Z" transform="translate(348.319 46.635)" fill="#7c7d7d"/>
      <path id="Path-59" data-name="Path" d="M0,2.15Q1.665,2.9,3.278,3.57l.9-2.18Q2.6.737.972,0Z" transform="translate(354.74 49.695)" fill="#7c7d7d"/>
      <path id="Path-60" data-name="Path" d="M0,2.213q1.725.638,3.392,1.171L4.11,1.136Q2.494.62.818,0Z" transform="translate(361.36 52.362)" fill="#7c7d7d"/>
      <path id="Path-61" data-name="Path" d="M0,2.283q1.794.469,3.52.8L3.969.77Q2.318.45.6,0Z" transform="translate(368.23 54.475)" fill="#7c7d7d"/>
      <path id="Path-62" data-name="Path" d="M0,2.344q1.86.214,3.636.253L3.687.238Q2.022.2.269,0Z" transform="translate(375.316 55.772)" fill="#7c7d7d"/>
      <path id="Path-63" data-name="Path" d="M.171,2.761Q2,2.629,3.788,2.327L3.4,0Q1.716.283,0,.408Z" transform="translate(382.416 55.511)" fill="#7c7d7d"/>
      <path id="Path-64" data-name="Path" d="M.61,3.317q1.753-.469,3.472-1.1L3.269,0Q1.648.6,0,1.037Z" transform="translate(389.187 53.738)" fill="#7c7d7d"/>
      <path id="Path-65" data-name="Path" d="M1,3.716q1.623-.757,3.223-1.66L3.062,0Q1.539.859,0,1.578Z" transform="translate(395.628 50.838)" fill="#7c7d7d"/>
      <path id="Path-66" data-name="Path" d="M1.3,3.964Q2.777,2.99,4.248,1.89L2.836,0Q1.419,1.059,0,1.994Z" transform="translate(401.678 47.019)" fill="#7c7d7d"/>
      <path id="Path-67" data-name="Path" d="M1.5,4.1Q2.855,2.98,4.216,1.752L2.635,0Q1.309,1.2,0,2.28Z" transform="translate(407.209 42.617)" fill="#7c7d7d"/>
      <path id="Path-68" data-name="Path" d="M1.641,4.168c.83-.8,1.67-1.64,2.528-2.518L2.482,0C1.638.863.814,1.685,0,2.472Z" transform="translate(412.411 37.743)" fill="#7c7d7d"/>
      <path id="Path-69" data-name="Path" d="M0,2.584,1.721,4.2l.935-1c.475-.513.964-1.046,1.473-1.6L2.386,0,1.4,1.075C.921,1.6.456,2.1,0,2.584Z" transform="translate(417.34 32.602)" fill="#7c7d7d"/>
      <path id="Path-70" data-name="Path" d="M1.756,4.208,4.115,1.575,2.358,0,0,2.631Z" transform="translate(422.077 27.368)" fill="#7c7d7d"/>
      <path id="Path-71" data-name="Path" d="M0,2.612,1.745,4.2,2.981,2.851c.4-.429.777-.839,1.15-1.236L2.41,0,1.643.822C1.121,1.384.578,1.976,0,2.612Z" transform="translate(426.817 22.113)" fill="#7c7d7d"/>
      <path id="Path-72" data-name="Path" d="M1.677,4.158c.864-.873,1.692-1.68,2.5-2.433L2.566,0C1.736.775.885,1.6,0,2.5Z" transform="translate(431.682 17.064)" fill="#7c7d7d"/>
      <path id="Path-73" data-name="Path" d="M1.508,4.026Q2.9,2.87,4.235,1.93L2.878,0Q1.459,1,0,2.212Z" transform="translate(436.964 12.453)" fill="#7c7d7d"/>
      <path id="Path-74" data-name="Path" d="M1.133,3.614a22.418,22.418,0,0,1,3.053-1.4L3.375,0A24.769,24.769,0,0,0,0,1.545Z" transform="translate(442.96 8.952)" fill="#7c7d7d"/>
      <path id="Path-75" data-name="Path" d="M.373,2.559a15.68,15.68,0,0,1,2.447-.2L2.814,0A18.039,18.039,0,0,0,0,.229Z" transform="translate(450.036 7.747)" fill="#7c7d7d"/>
    </g>
  </g>
</svg>
