<svg xmlns="http://www.w3.org/2000/svg" xmlns:xlink="http://www.w3.org/1999/xlink" width="325.197" height="354.271" viewBox="0 0 325.197 354.271">
  <defs>
    <filter id="Path_37" x="45.52" y="0" width="263" height="263" filterUnits="userSpaceOnUse">
      <feOffset dx="-20" dy="20" input="SourceAlpha"/>
      <feGaussianBlur stdDeviation="30" result="blur"/>
      <feFlood flood-color="#101010" flood-opacity="0.22"/>
      <feComposite operator="in" in2="blur"/>
      <feComposite in="SourceGraphic"/>
    </filter>
  </defs>
  <g id="Component_114_1" data-name="Component 114 – 1" transform="translate(0 77)">
    <text id="_0-18_years" data-name="0-18 years" transform="translate(27.246 266.393)" fill="#101010" font-size="14" font-family="SegoeUI, Segoe UI"><tspan x="0" y="0">Learning &amp; Coaching</tspan></text>
    <rect id="Rectangle" width="15" height="15" rx="7.5" transform="translate(0 253.893)" fill="#e8eae9"/>
    <text id="_50_" data-name="50%" transform="translate(276.197 250.271)" fill="#131523" font-size="18" font-family="SegoeUI-Bold, Segoe UI" font-weight="700"><tspan x="12.486" y="19">10%</tspan></text>
    <text id="_0-18_years-2" data-name="0-18 years" transform="translate(27.246 239.1)" fill="#101010" font-size="14" font-family="SegoeUI, Segoe UI"><tspan x="0" y="0">Health &amp; Wellness </tspan></text>
    <rect id="Rectangle-2" data-name="Rectangle" width="15" height="15" rx="7.5" transform="translate(0 226.6)" fill="#c1bdbd"/>
    <text id="_50_2" data-name="50%" transform="translate(276.195 223.311)" fill="#131523" font-size="18" font-family="SegoeUI-Bold, Segoe UI" font-weight="700"><tspan x="12.487" y="19">15%</tspan></text>
    <text id="_0-18_years-3" data-name="0-18 years" transform="translate(27.246 211.807)" fill="#101010" font-size="14" font-family="SegoeUI, Segoe UI"><tspan x="0" y="0">Events</tspan></text>
    <rect id="Rectangle-3" data-name="Rectangle" width="15" height="15" rx="7.5" transform="translate(0 199.307)" fill="#7c7d7d"/>
    <text id="_50_3" data-name="50%" transform="translate(267.195 195.393)" fill="#131523" font-size="18" font-family="SegoeUI-Bold, Segoe UI" font-weight="700"><tspan x="21.487" y="19">25%</tspan></text>
    <text id="_0-18_years-4" data-name="0-18 years" transform="translate(27.246 184.17)" fill="#101010" font-size="14" font-family="SegoeUI, Segoe UI"><tspan x="0" y="0">Design</tspan></text>
    <rect id="Rectangle-4" data-name="Rectangle" width="15" height="15" rx="7.5" transform="translate(0 172.014)" fill="#101010"/>
    <text id="_50_4" data-name="50%" transform="translate(272.195 167.334)" fill="#131523" font-size="18" font-family="SegoeUI-Bold, Segoe UI" font-weight="700"><tspan x="16.487" y="19">50%</tspan></text>
    <g id="Group_3494" data-name="Group 3494" transform="translate(-995.746 -427.33)">
      <path id="Circle" d="M82.827,0A82.827,82.827,0,1,1,11.1,41.413,82.824,82.824,0,0,1,82.827,0V11.044a71.783,71.783,0,1,0,62.166,35.892A71.782,71.782,0,0,0,82.827,11.044Z" transform="translate(1075.746 427.348)" fill="rgba(69,90,100,0)"/>
      <text id="_0-18_years-5" data-name="0-18 years" transform="translate(1130.449 531.191)" fill="#101010" font-size="14" font-family="SegoeUI, Segoe UI"><tspan x="0" y="0">Events</tspan></text>
      <text id="_50_5" data-name="50%" transform="translate(1152.449 512.191)" fill="#131523" font-size="32" font-family="SegoeUI-Bold, Segoe UI" font-weight="700"><tspan x="-32.281" y="0">25%</tspan></text>
      <path id="Path_36" data-name="Path 36" d="M0,0A75,75,0,0,1,75,75,75,75,0,0,1,0,150" transform="translate(1152.633 577.33) rotate(180)" fill="none" stroke="#101010" stroke-width="14"/>
      <path id="Path_39" data-name="Path 39" d="M0,0A75.105,75.105,0,0,1,57.146,26.311" transform="translate(1227.266 502.33) rotate(90)" fill="none" stroke="silver" stroke-width="14"/>
      <path id="Path_40" data-name="Path 40" d="M0,0A74.928,74.928,0,0,1,18,48.88" transform="translate(1201.145 559.332) rotate(90)" fill="none" stroke="#e8eae9" stroke-width="14"/>
      <g transform="matrix(1, 0, 0, 1, 995.75, 350.33)" filter="url(#Path_37)">
        <path id="Path_37-2" data-name="Path 37" d="M90,0a68,68,0,0,1,68,68" transform="translate(65.52 85)" fill="none" stroke="#7c7d7d" stroke-width="30"/>
      </g>
    </g>
  </g>
</svg>
