<svg xmlns="http://www.w3.org/2000/svg" width="14.792" height="13.604" viewBox="0 0 14.792 13.604">
  <path id="Path_402" data-name="Path 402" d="M551.509,389.813a4.137,4.137,0,0,0-3.147-1.61,4.363,4.363,0,0,0-2.876,1.2l-.607.668-.86-.849a.949.949,0,0,0-.112-.091,4.122,4.122,0,0,0-2.521-.89,3.934,3.934,0,0,0-2.4.83,4.018,4.018,0,0,0-.819,5.161l.06.091,5.9,7.116a1.016,1.016,0,0,0,1.559,0l6.062-7.257a.534.534,0,0,0,.072-.091A3.765,3.765,0,0,0,551.509,389.813Zm-11.663,3.15a1.959,1.959,0,0,1,.486-2.5,2.01,2.01,0,0,1,1.063-.324,2.237,2.237,0,0,1,1.266.445l.94.941-2.288,3.209Zm10.325-.163-5.253,6.286-2.267-2.743,3.016-4.241,1.285-1.417a2.376,2.376,0,0,1,1.418-.586,2.167,2.167,0,0,1,1.569.86A1.836,1.836,0,0,1,550.171,392.8Z" transform="translate(-537.575 -388.203)" fill="#fff"/>
</svg>
