<svg xmlns="http://www.w3.org/2000/svg" width="102.995" height="18.208" viewBox="0 0 102.995 18.208">
  <g id="Group_476" data-name="Group 476" transform="translate(-0.006 -210.749)">
    <path id="Path_107" data-name="Path 107" d="M14.625,228.955a1.307,1.307,0,0,1-.61-.151L9.539,226.45,5.076,228.8a1.311,1.311,0,0,1-1.9-1.382l.854-4.983L.4,218.92a1.312,1.312,0,0,1,.725-2.238l5-.726,2.24-4.534a1.364,1.364,0,0,1,2.351,0l2.24,4.534,5.008.726a1.312,1.312,0,0,1,.726,2.238l-3.622,3.519.854,4.983a1.315,1.315,0,0,1-.522,1.284A1.338,1.338,0,0,1,14.625,228.955Zm-5.088-5.3a1.3,1.3,0,0,1,.61.151l2.736,1.439-.522-3.045a1.312,1.312,0,0,1,.379-1.162l2.207-2.145-3.055-.443a1.312,1.312,0,0,1-.987-.717l-1.368-2.772L8.17,217.734a1.311,1.311,0,0,1-.986.717l-3.043.442,2.208,2.144a1.315,1.315,0,0,1,.379,1.163l-.522,3.041,2.722-1.435A1.312,1.312,0,0,1,9.538,223.657Z" transform="translate(0 0)" fill="#101010"/>
    <path id="Path_109" data-name="Path 109" d="M118.916,228.955a1.306,1.306,0,0,1-.61-.151l-4.477-2.354-4.463,2.354a1.311,1.311,0,0,1-1.9-1.382l.854-4.983-3.622-3.519a1.312,1.312,0,0,1,.725-2.238l5-.726,2.24-4.534a1.364,1.364,0,0,1,2.351,0l2.24,4.534,5.008.726a1.312,1.312,0,0,1,.726,2.238l-3.622,3.519.854,4.983a1.315,1.315,0,0,1-.522,1.284A1.338,1.338,0,0,1,118.916,228.955Zm-5.088-5.3a1.3,1.3,0,0,1,.61.151l2.736,1.439-.522-3.045a1.312,1.312,0,0,1,.379-1.162l2.207-2.145-3.055-.443a1.311,1.311,0,0,1-.987-.717l-1.368-2.771-1.368,2.771a1.312,1.312,0,0,1-.986.717l-3.043.442,2.208,2.144a1.315,1.315,0,0,1,.379,1.163l-.522,3.041,2.722-1.435A1.312,1.312,0,0,1,113.828,223.657Z" transform="translate(-83.31 0)" fill="#101010"/>
    <path id="Path_111" data-name="Path 111" d="M213.044,228.955a1.31,1.31,0,0,1-1.291-1.533l.854-4.983-3.622-3.519a1.312,1.312,0,0,1,.725-2.238l5-.726,2.24-4.534a1.364,1.364,0,0,1,2.351,0l2.24,4.534,5.007.726a1.312,1.312,0,0,1,.726,2.238l-3.623,3.519.854,4.983a1.311,1.311,0,0,1-1.9,1.382l-4.477-2.354-4.463,2.354A1.327,1.327,0,0,1,213.044,228.955Zm5.074-5.3a1.3,1.3,0,0,1,.61.151l2.737,1.439-.521-3.045a1.311,1.311,0,0,1,.378-1.162l2.208-2.145-3.055-.443a1.312,1.312,0,0,1-.987-.717l-1.367-2.771-1.368,2.771a1.311,1.311,0,0,1-.986.717l-3.043.442,2.208,2.144a1.315,1.315,0,0,1,.379,1.163l-.522,3.041,2.722-1.435A1.3,1.3,0,0,1,218.118,223.657Z" transform="translate(-166.621 0)" fill="#101010"/>
    <path id="Path_113" data-name="Path 113" d="M317.327,228.955a1.31,1.31,0,0,1-1.292-1.533l.852-4.983-3.623-3.519a1.312,1.312,0,0,1,.726-2.238l5-.726,2.238-4.534a1.364,1.364,0,0,1,2.351,0l2.24,4.536,5.008.726a1.312,1.312,0,0,1,.726,2.238l-3.623,3.519.854,4.983a1.31,1.31,0,0,1-1.9,1.382l-4.478-2.354-4.462,2.354A1.332,1.332,0,0,1,317.327,228.955Zm5.075-5.3a1.3,1.3,0,0,1,.61.151l2.738,1.439-.52-3.045a1.312,1.312,0,0,1,.378-1.162l2.208-2.145-3.055-.443a1.311,1.311,0,0,1-.987-.717l-1.369-2.772-1.368,2.771a1.311,1.311,0,0,1-.987.717l-3.042.442,2.208,2.145a1.31,1.31,0,0,1,.378,1.162l-.519,3.041,2.72-1.434A1.32,1.32,0,0,1,322.4,223.657Z" transform="translate(-249.924 0)" fill="#101010"/>
    <path id="Path_115" data-name="Path 115" d="M421.617,228.955a1.31,1.31,0,0,1-1.292-1.533l.852-4.983-3.623-3.519a1.312,1.312,0,0,1,.727-2.238l5-.726,2.238-4.534a1.364,1.364,0,0,1,2.351,0l2.24,4.536,5.008.726a1.312,1.312,0,0,1,.726,2.238l-3.623,3.519.854,4.983a1.31,1.31,0,0,1-1.9,1.382l-4.478-2.354-4.462,2.354A1.333,1.333,0,0,1,421.617,228.955Zm5.074-5.3a1.3,1.3,0,0,1,.61.151l2.738,1.439-.521-3.045a1.311,1.311,0,0,1,.378-1.162l2.208-2.145-3.055-.443a1.312,1.312,0,0,1-.987-.717l-1.369-2.772-1.367,2.771a1.311,1.311,0,0,1-.987.717l-3.042.442,2.208,2.145a1.309,1.309,0,0,1,.378,1.162l-.519,3.041,2.72-1.434A1.32,1.32,0,0,1,426.692,223.657Z" transform="translate(-333.235 0)" fill="#101010"/>
  </g>
</svg>
