<svg xmlns="http://www.w3.org/2000/svg" width="25.529" height="25.529" viewBox="0 0 25.529 25.529">
  <g id="Group_3491" data-name="Group 3491" transform="translate(-194.45 -66.874)">
    <g id="Group_3458" data-name="Group 3458" transform="translate(194.45 66.874)">
      <circle id="Ellipse_1176" data-name="Ellipse 1176" cx="12.764" cy="12.764" r="12.764" transform="translate(0 0)" fill="#101010"/>
    </g>
    <g id="Group_3461" data-name="Group 3461" transform="translate(194.99 67.413)">
      <g id="Group_3459" data-name="Group 3459" transform="translate(0.219 0.219)">
        <path id="Path_11518" data-name="Path 11518" d="M220.336,104.766a12.006,12.006,0,1,1,8.49-3.516A11.927,11.927,0,0,1,220.336,104.766Z" transform="translate(-208.33 -80.754)" fill="#101010"/>
      </g>
      <g id="Group_3460" data-name="Group 3460" transform="translate(0 0)">
        <path id="Path_11519" data-name="Path 11519" d="M216.554,77.191a11.749,11.749,0,1,1-4.588.926,11.713,11.713,0,0,1,4.588-.926m0-.437a12.224,12.224,0,1,0,12.224,12.224,12.224,12.224,0,0,0-12.224-12.224Z" transform="translate(-204.33 -76.754)" fill="#e8eae9"/>
      </g>
    </g>
    <g id="Group_3464" data-name="Group 3464" transform="translate(197.605 70.028)">
      <g id="Group_3462" data-name="Group 3462" transform="translate(0 0)">
        <circle id="Ellipse_1177" data-name="Ellipse 1177" cx="7.988" cy="7.988" r="7.988" transform="translate(0 15.548) rotate(-76.717)" fill="#101010"/>
      </g>
      <g id="Group_3463" data-name="Group 3463" transform="translate(1.403 1.403)">
        <path id="Path_11520" data-name="Path 11520" d="M286.06,150.714a7.769,7.769,0,1,1-5.494,2.276,7.719,7.719,0,0,1,5.494-2.276m0-.437a8.206,8.206,0,1,0,8.206,8.207,8.207,8.207,0,0,0-8.206-8.207Z" transform="translate(-277.853 -150.277)" fill="#e8eae9"/>
      </g>
    </g>
    <g id="Group_3476" data-name="Group 3476" transform="translate(202.957 73.896)">
      <g id="Group_3465" data-name="Group 3465" transform="translate(0 6.755)">
        <path id="Path_11521" data-name="Path 11521" d="M350.729,322.345v1.362a2.453,2.453,0,0,1-.6-.581v-4.148h6.838c1.28,0,1.682.4,1.682,1.682v.187c0,1.13-.4,1.5-1.682,1.5Zm6.235-.569c.812,0,1.088-.218,1.088-.938v-.178c0-.8-.276-1.063-1.088-1.063h-6.235v2.179Z" transform="translate(-350.126 -318.978)" fill="#e8eae9"/>
      </g>
      <g id="Group_3466" data-name="Group 3466" transform="translate(3.941 5.156)">
        <rect id="Rectangle_1951" data-name="Rectangle 1951" width="0.611" height="0.603" fill="#e8eae9"/>
      </g>
      <g id="Group_3467" data-name="Group 3467" transform="translate(7.402 3.865)">
        <path id="Path_11522" data-name="Path 11522" d="M485.57,266.711h.628c.009-.1.014-.209.014-.325v-.151c0-.047,0-.092,0-.136h-.63a1.808,1.808,0,0,1,.014.236v.067A1.933,1.933,0,0,1,485.57,266.711Z" transform="translate(-485.57 -266.1)" fill="#e8eae9"/>
      </g>
      <g id="Group_3468" data-name="Group 3468" transform="translate(0 5.156)">
        <path id="Path_11523" data-name="Path 11523" d="M353.831,289.716h-3.663c-.017.2-.034.4-.042.6h3.7Z" transform="translate(-350.126 -289.716)" fill="#e8eae9"/>
      </g>
      <g id="Group_3469" data-name="Group 3469" transform="translate(0 3.865)">
        <path id="Path_11524" data-name="Path 11524" d="M350.126,266.1l.042.611h3.9v2.042h.611v-2.042h3.968V266.1Z" transform="translate(-350.126 -266.1)" fill="#e8eae9"/>
      </g>
      <g id="Group_3470" data-name="Group 3470" transform="translate(3.941 6.755)">
        <rect id="Rectangle_1952" data-name="Rectangle 1952" width="0.611" height="0.619" fill="#e8eae9"/>
      </g>
      <g id="Group_3473" data-name="Group 3473" transform="translate(3.941 7.611)">
        <g id="Group_3471" data-name="Group 3471">
          <rect id="Rectangle_1953" data-name="Rectangle 1953" width="0.611" height="1.706" fill="#e8eae9"/>
        </g>
        <g id="Group_3472" data-name="Group 3472" transform="translate(0 1.942)">
          <rect id="Rectangle_1954" data-name="Rectangle 1954" width="0.611" height="0.018" fill="#e8eae9"/>
        </g>
      </g>
      <g id="Group_3474" data-name="Group 3474" transform="translate(4.788 4.713)">
        <path id="Path_11525" data-name="Path 11525" d="M440.818,281.607c-.143.323-.476.443-1.123.443h-1.947v.6h1.972c1.1,0,1.611-.289,1.759-1.046Z" transform="translate(-437.748 -281.607)" fill="#e8eae9"/>
      </g>
      <g id="Group_3475" data-name="Group 3475" transform="translate(0 0)">
        <path id="Path_11526" data-name="Path 11526" d="M357.983,199h.663c-.123-.7-.641-1.034-1.828-1.034h-4.935c-.887,0-1.147-.251-1.147-.937v-.059c0-.7.276-.979,1.18-.979h6.654l.075-.619h-6.729c-1.348,0-1.791.444-1.791,1.532v.184c0,1,.427,1.448,1.758,1.448h4.935C357.512,198.537,357.848,198.673,357.983,199Z" transform="translate(-350.126 -195.373)" fill="#e8eae9"/>
      </g>
    </g>
    <g id="Group_3477" data-name="Group 3477" transform="translate(206.219 84.711)">
      <path id="Path_11527" data-name="Path 11527" d="M410.271,394.32l.1.071a.1.1,0,0,1,.036.111l-.21.647.55-.4a.1.1,0,0,1,.117,0l.55.4-.21-.647a.1.1,0,0,1,.036-.111l.55-.4h-.68a.1.1,0,0,1-.094-.069l-.21-.646-.21.646a.1.1,0,0,1-.094.069h-.68l.178.129Z" transform="translate(-409.819 -393.276)" fill="#e8eae9"/>
    </g>
    <g id="Group_3478" data-name="Group 3478" transform="translate(197.085 68.798)">
      <path id="Path_11528" data-name="Path 11528" d="M243.979,210.734c-.111-.055-.222-.114-.334-.172l.425-.98c.043-.1.028-.144-.058-.182s-.127-.018-.17.081l-.255.589c-.148.342-.317.4-.585.282l-.047-.02c-.29-.126-.356-.3-.2-.646l.436-1.005.327.193-.417.962c-.039.091-.018.137.061.171s.131.02.17-.071l.247-.571c.155-.358.331-.429.576-.323l.056.024c.3.132.364.307.22.639Z" transform="translate(-242.671 -202.855)" fill="#e8eae9"/>
      <path id="Path_11529" data-name="Path 11529" d="M259.5,177.385l-1.264-.888.869-1.236.309.217-.653.93.208.146.634-.9.232.163-.634.9.209.147.653-.93.307.216Z" transform="translate(-257.387 -171.263)" fill="#e8eae9"/>
      <path id="Path_11530" data-name="Path 11530" d="M282.787,149.635l-1.065-1.118,1.094-1.042.26.273-.822.784.175.184.8-.76.2.2-.8.76.177.185.822-.784.259.271Z" transform="translate(-279.588 -144.995)" fill="#e8eae9"/>
      <path id="Path_11531" data-name="Path 11531" d="M312.973,125.23l-1.376-.359.54.875-.306.189-.811-1.314.34-.21,1.335.356-.527-.854.3-.187.811,1.314Z" transform="translate(-307.285 -122.543)" fill="#e8eae9"/>
      <path id="Path_11532" data-name="Path 11532" d="M363.139,107.946l-.312-1.125-.521.144-.1-.363,1.4-.389.1.363-.519.144.312,1.125Z" transform="translate(-355.673 -105.989)" fill="#e8eae9"/>
      <path id="Path_11533" data-name="Path 11533" d="M398.577,103.757l-.124-1.539,1.506-.121.03.376-1.132.091.02.253,1.1-.088.023.282-1.1.088.021.255,1.132-.091.03.374Z" transform="translate(-389.94 -102.097)" fill="#e8eae9"/>
      <path id="Path_11534" data-name="Path 11534" d="M434.726,105.637l-.123-.35-.84-.117-.214.3-.425-.059L434.157,104l.387.054.6,1.644Zm-.427-1.243-.355.5.562.078Z" transform="translate(-422.715 -103.894)" fill="#e8eae9"/>
      <path id="Path_11535" data-name="Path 11535" d="M476.309,112.255l.325-.818-.7.668-.323-.128-.053-.968-.325.818-.319-.127.57-1.435.38.151.053,1.272.913-.888.369.147-.57,1.435Z" transform="translate(-462.219 -109.818)" fill="#e8eae9"/>
      <path id="Path_11536" data-name="Path 11536" d="M524.174,138.684l-.3.368-.291-.236.974-1.2.915.743c.28.228.3.389.066.673l-.092.113c-.2.251-.369.273-.65.045Zm1.078.115c.048-.059.041-.1-.017-.147l-.624-.507-.227.279.624.507a.089.089,0,0,0,.146-.012Z" transform="translate(-508.232 -135.676)" fill="#e8eae9"/>
      <path id="Path_11537" data-name="Path 11537" d="M551.774,166.934l.083-.666-.263-.33-.375.3-.234-.293,1.207-.963.8,1c.209.261.18.434-.1.655l-.091.073c-.279.223-.438.163-.639-.073l-.068.7Zm.869-.57c.07-.056.094-.095.043-.158l-.556-.7-.293.234.556.7c.042.053.085.056.15,0Z" transform="translate(-534.135 -161.544)" fill="#e8eae9"/>
      <path id="Path_11538" data-name="Path 11538" d="M576.188,203.2c-.165-.344-.1-.5.239-.66l.49-.235c.344-.165.5-.117.664.227l.359.747c.16.334.105.495-.239.66l-.49.235c-.342.164-.5.107-.664-.227Zm1.349.4c.087-.042.1-.085.061-.164l-.357-.745c-.037-.077-.078-.095-.165-.053l-.49.235c-.085.041-.1.082-.06.161l.357.745c.039.081.079.1.164.056Z" transform="translate(-557.879 -196.744)" fill="#e8eae9"/>
    </g>
    <g id="Group_3479" data-name="Group 3479" transform="translate(197.08 82.906)">
      <path id="Path_11539" data-name="Path 11539" d="M242.588,360.813c.115-.046.233-.091.35-.136l.451.969c.045.1.089.117.175.077s.1-.083.052-.18l-.271-.582c-.157-.338-.087-.5.177-.625l.047-.022c.287-.133.458-.069.619.277l.462.993-.362.116-.442-.951c-.042-.09-.09-.1-.168-.068s-.1.085-.06.174l.262.564c.165.354.1.532-.141.645l-.055.026c-.3.14-.471.068-.623-.26Z" transform="translate(-242.588 -360.25)" fill="#e8eae9"/>
      <path id="Path_11540" data-name="Path 11540" d="M260.689,390.728l1.244-.916.9,1.217-.3.224-.673-.915-.2.15.654.888-.228.168-.653-.888-.206.152.673.915-.3.222Z" transform="translate(-259.7 -388.196)" fill="#e8eae9"/>
      <path id="Path_11541" data-name="Path 11541" d="M284.344,417.19l1.045-1.137,1.112,1.022-.255.278-.836-.768-.172.187.811.746-.191.208-.811-.746-.173.188.836.768-.254.276Z" transform="translate(-282.062 -413.003)" fill="#e8eae9"/>
      <path id="Path_11542" data-name="Path 11542" d="M314.606,440.028l-.317-1.387-.527.883-.308-.184.792-1.326.343.2.3,1.349.514-.862.307.183-.792,1.326Z" transform="translate(-309.58 -433.763)" fill="#e8eae9"/>
      <path id="Path_11543" data-name="Path 11543" d="M369.755,462.319l.3-1.128-.523-.139.1-.364,1.405.375-.1.364-.52-.139-.3,1.128Z" transform="translate(-362.596 -455.198)" fill="#e8eae9"/>
      <path id="Path_11544" data-name="Path 11544" d="M399.687,469.908l.114-1.54,1.507.112-.028.376-1.133-.084-.019.253,1.1.082-.021.282-1.1-.081-.019.255,1.133.084-.028.374Z" transform="translate(-391.102 -462.459)" fill="#e8eae9"/>
      <path id="Path_11545" data-name="Path 11545" d="M438.95,469.143l-.215-.3-.84.119-.123.351-.425.06.6-1.645.387-.055,1.034,1.414Zm-.753-1.077-.2.578.563-.079Z" transform="translate(-426.704 -461.799)" fill="#e8eae9"/>
      <path id="Path_11546" data-name="Path 11546" d="M476.421,453.458l-.323-.818-.055.968-.324.128-.7-.669.323.818-.319.126-.567-1.437.38-.15.909.891.058-1.273.37-.146.567,1.437Z" transform="translate(-461.784 -446.888)" fill="#e8eae9"/>
      <path id="Path_11547" data-name="Path 11547" d="M523.321,427.115l.3.37-.293.234-.965-1.206.92-.736c.282-.226.443-.208.672.078l.091.114c.2.252.188.419-.094.644Zm.341-1.029c-.048-.06-.089-.061-.147-.015l-.628.5.224.28.628-.5a.089.089,0,0,0,.019-.145Z" transform="translate(-507.07 -422.049)" fill="#e8eae9"/>
      <path id="Path_11548" data-name="Path 11548" d="M551.429,398.89l-.669.059-.267.327.372.3-.237.29-1.2-.978.811-.993c.212-.259.386-.267.661-.043l.09.074c.277.226.252.394.063.64l.7-.081Zm-.74-.73c-.07-.057-.113-.072-.164-.009l-.564.69.29.237.564-.69c.043-.052.037-.095-.028-.147Z" transform="translate(-532.663 -395.651)" fill="#e8eae9"/>
      <path id="Path_11549" data-name="Path 11549" d="M576.011,365.394c-.171.341-.328.386-.668.216l-.486-.243c-.341-.171-.4-.322-.228-.664l.37-.741c.166-.331.326-.387.668-.216l.486.243c.339.17.393.332.228.664Zm-.508-1.313c-.086-.043-.127-.026-.167.052l-.37.739c-.038.076-.027.12.059.163l.486.243c.084.042.124.027.164-.051l.37-.739c.04-.08.028-.121-.056-.164Z" transform="translate(-556.396 -363.467)" fill="#e8eae9"/>
    </g>
    <g id="Group_3480" data-name="Group 3480" transform="translate(197.365 69.789)">
      <path id="Path_11550" data-name="Path 11550" d="M264.609,123.1a9.839,9.839,0,1,0,2.586,9.388l-1.839-.532,1.839.532a9.913,9.913,0,0,0,.3-2.423A9.785,9.785,0,0,0,264.609,123.1Z" transform="translate(-247.796 -120.22)" fill="none"/>
    </g>
    <g id="Group_3484" data-name="Group 3484" transform="translate(196.928 69.789)">
      <g id="Group_3481" data-name="Group 3481" transform="translate(0.437 0)">
        <path id="Path_11551" data-name="Path 11551" d="M257.645,120.22a9.859,9.859,0,0,0-9.566,7.489l1.679.486-1.679-.486a9.967,9.967,0,0,0,0,4.715l1.68-.486-1.68.486a9.855,9.855,0,0,0,19.117.069,9.974,9.974,0,0,0,0-4.852l-1.837.531,1.837-.531a9.86,9.86,0,0,0-9.549-7.42Z" transform="translate(-247.796 -120.22)" fill="none"/>
      </g>
      <g id="Group_3482" data-name="Group 3482" transform="translate(19.835 7.299)">
        <path id="Path_11552" data-name="Path 11552" d="M603.17,253.78l-.419.121a9.976,9.976,0,0,1,0,4.852l.419.121a10.357,10.357,0,0,0,0-5.095Z" transform="translate(-602.751 -253.78)" fill="#e8eae9"/>
      </g>
      <g id="Group_3483" data-name="Group 3483" transform="translate(0 7.367)">
        <path id="Path_11553" data-name="Path 11553" d="M240.233,257.517a9.918,9.918,0,0,1,.284-2.361l-.419-.121a10.342,10.342,0,0,0,0,4.957l.419-.121A9.917,9.917,0,0,1,240.233,257.517Z" transform="translate(-239.796 -255.035)" fill="#e8eae9"/>
      </g>
    </g>
  </g>
</svg>
