<svg xmlns="http://www.w3.org/2000/svg" width="18.814" height="18.782" viewBox="0 0 18.814 18.782">
  <path id="Path_401" data-name="Path 401" d="M721.983,420.978h-6.2a.713.713,0,0,1-.679-.932,5.5,5.5,0,0,1,5.225-3.72,5.331,5.331,0,0,1,3.065.961.713.713,0,0,0,.816-1.169,6.775,6.775,0,0,0-1.422-.759,3.629,3.629,0,0,0,1.18-2.394,5.366,5.366,0,0,1,6.8-.556.713.713,0,1,0,.816-1.169,6.773,6.773,0,0,0-1.422-.759,3.635,3.635,0,1,0-4.9-.008q-.149.057-.3.122a6.771,6.771,0,0,0-1.255.721,3.635,3.635,0,1,0-5.832,4.03,6.855,6.855,0,0,0-4.139,4.265,2.139,2.139,0,0,0,2.036,2.794h6.2a.713.713,0,1,0,0-1.426Zm5.738-15.4a2.21,2.21,0,1,1-2.21,2.21A2.212,2.212,0,0,1,727.721,405.581Zm-7.378,4.878a2.21,2.21,0,1,1-2.21,2.21A2.212,2.212,0,0,1,720.344,410.459Zm11.415,6.334-3.528,4.928-.024.032a1.838,1.838,0,0,1-1.307.681q-.061,0-.121,0a1.838,1.838,0,0,1-1.265-.505l-2.277-2.186a.713.713,0,1,1,.987-1.028L726.5,420.9a.407.407,0,0,0,.586-.03l3.514-4.908a.713.713,0,0,1,1.159.83Z" transform="translate(-713.381 -403.905)" fill="#1a1a1a" stroke="#1a1a1a" stroke-width="0.5"/>
</svg>
