<svg xmlns="http://www.w3.org/2000/svg" width="79.74" height="79.74" viewBox="0 0 79.74 79.74">
  <g id="Icon_feather-image" data-name="Icon feather-image" transform="translate(2 2)">
    <path id="Path_320" data-name="Path 320" d="M12.825,4.5H71.1a8.325,8.325,0,0,1,8.325,8.325V71.1A8.325,8.325,0,0,1,71.1,79.424H12.825A8.325,8.325,0,0,1,4.5,71.1V12.825A8.325,8.325,0,0,1,12.825,4.5Z" transform="translate(-4.5 -4.5)" fill="none" stroke="#fff" stroke-linecap="round" stroke-linejoin="round" stroke-width="4"/>
    <path id="Path_321" data-name="Path 321" d="M25.258,17.879A7.379,7.379,0,1,1,17.879,10.5,7.379,7.379,0,0,1,25.258,17.879Z" transform="translate(5.544 5.544)" fill="none" stroke="#fff" stroke-linecap="round" stroke-linejoin="round" stroke-width="4"/>
    <path id="Path_322" data-name="Path 322" d="M72.585,39.6,52.246,15,7.5,69.112" transform="translate(2.339 5.811)" fill="none" stroke="#fff" stroke-linecap="round" stroke-linejoin="round" stroke-width="4"/>
  </g>
</svg>
