<svg xmlns="http://www.w3.org/2000/svg" width="26.011" height="23.738" viewBox="0 0 26.011 23.738">
  <g id="like-icon" transform="translate(0.5 0.5)">
    <path id="Path_41" data-name="Path 41" d="M-676.722,242.179a6.587,6.587,0,0,0-5.684,3.491,6.587,6.587,0,0,0-5.684-3.491c-4.036,0-6.821,3.479-6.821,7.545,0,4.9,4.368,8.41,8.806,12.3.938.822,1.908,1.672,2.939,2.6a1.135,1.135,0,0,0,.761.292,1.134,1.134,0,0,0,.761-.292c1.031-.928,2-1.778,2.939-2.6,4.8-4.2,8.806-7.55,8.806-12.3,0-4.073-2.792-7.545-6.821-7.545Z" transform="translate(694.912 -242.179)" fill="#fff" stroke="#101010" stroke-width="2"/>
  </g>
</svg>
