<svg xmlns="http://www.w3.org/2000/svg" width="16.525" height="16.526" viewBox="0 0 16.525 16.526">
  <g id="Group_3589" data-name="Group 3589" transform="translate(-552 -970.475)">
    <ellipse id="Ellipse_51" data-name="Ellipse 51" cx="8.263" cy="8.263" rx="8.263" ry="8.263" transform="translate(552 970.475)" fill="#51d392"/>
    <path id="progress_check_icon_135275" d="M8.25,2.03V3.174a4.53,4.53,0,0,1,0,8.992V13.3a5.662,5.662,0,0,0,0-11.268m-1.132.017A5.564,5.564,0,0,0,4.1,3.293l.81.838a4.527,4.527,0,0,1,2.208-.951V2.047M3.3,4.091A5.6,5.6,0,0,0,2.05,7.109H3.182A4.539,4.539,0,0,1,4.111,4.9l-.81-.81m6.364,1.6L6.9,8.457l-1.2-1.2-.6.6,1.8,1.8,3.363-3.363-.6-.6M2.056,8.241a5.685,5.685,0,0,0,1.251,3.018l.8-.81a4.531,4.531,0,0,1-.923-2.208H2.056m2.854,3.041-.81.776a5.659,5.659,0,0,0,3.018,1.28V12.2A4.531,4.531,0,0,1,4.909,11.282Z" transform="translate(552.564 971.054)" fill="#fff"/>
  </g>
</svg>
