<svg xmlns="http://www.w3.org/2000/svg" width="10.5" height="10.501" viewBox="0 0 10.5 10.501">
  <g id="Group_297" data-name="Group 297" transform="translate(597.78 -536)">
    <path id="Path_284" data-name="Path 284" d="M-587.279,542.766c-.026.073-.048.147-.079.218a.931.931,0,0,1-.4.438c-.32.19-.639.38-.955.575a.236.236,0,0,0-.1.128c-.075.29-.148.581-.21.874a.924.924,0,0,1-.966.741c-.337-.026-.674-.047-1.011-.078a.392.392,0,0,0-.351.1c-.179.178-.376.338-.568.5a.915.915,0,0,1-1.225,0c-.213-.182-.42-.371-.634-.551a.239.239,0,0,0-.152-.056c-.378.023-.756.052-1.133.082a.927.927,0,0,1-.974-.732c-.065-.285-.138-.569-.2-.854a.249.249,0,0,0-.128-.18c-.311-.178-.617-.363-.924-.548a.922.922,0,0,1-.4-1.215c.118-.287.235-.573.357-.858a.247.247,0,0,0,0-.213q-.191-.446-.371-.9a.915.915,0,0,1,.4-1.173c.29-.173.582-.343.869-.52a.241.241,0,0,0,.1-.12c.111-.34.218-.681.323-1.022a.93.93,0,0,1,1.007-.658c.37.038.741.062,1.113.087a.181.181,0,0,0,.115-.046c.2-.176.409-.352.608-.535a1.254,1.254,0,0,1,.48-.256h.328a1.6,1.6,0,0,1,.679.433c.135.125.275.246.415.365a.154.154,0,0,0,.1.04c.371-.026.743-.047,1.112-.087a.923.923,0,0,1,1.019.678c.083.305.152.614.225.922a.212.212,0,0,0,.107.149c.327.191.651.387.975.581a.937.937,0,0,1,.429.564l.026.087v.287c-.032.093-.06.187-.1.278-.117.29-.239.577-.354.867a.228.228,0,0,0,0,.152c.148.382.3.762.453,1.143Zm-7.707-5.392c-.3-.012-.382.045-.454.274-.115.367-.234.733-.344,1.1a.432.432,0,0,1-.208.265c-.324.189-.646.382-.969.572a.317.317,0,0,0-.154.464c.138.334.273.669.415,1a.455.455,0,0,1,0,.384c-.142.332-.278.667-.416,1a.32.32,0,0,0,.158.47c.361.214.721.43,1.082.643a.381.381,0,0,1,.187.255c.079.338.163.675.244,1.013.059.249.178.326.436.3.4-.037.8-.063,1.194-.1a.408.408,0,0,1,.325.116c.238.216.481.426.723.636a.31.31,0,0,0,.472,0c.24-.209.48-.416.715-.63a.416.416,0,0,1,.334-.119c.4.034.8.061,1.194.1a.34.34,0,0,0,.43-.3c.079-.331.162-.661.237-.993a.417.417,0,0,1,.209-.286c.359-.211.716-.425,1.073-.639a.321.321,0,0,0,.151-.473c-.143-.343-.281-.687-.425-1.029a.385.385,0,0,1,0-.316c.144-.342.284-.686.425-1.03a.317.317,0,0,0-.155-.471q-.539-.325-1.08-.646a.387.387,0,0,1-.193-.262c-.082-.355-.17-.708-.259-1.062a.285.285,0,0,0-.326-.245q-.644.043-1.287.1a.4.4,0,0,1-.32-.1c-.234-.21-.471-.417-.706-.625a.324.324,0,0,0-.511,0q-.362.318-.722.637a.368.368,0,0,1-.293.091C-594.213,537.433-594.628,537.4-594.986,537.374Z" fill="#101010"/>
    <path id="Path_285" data-name="Path 285" d="M-503.562,626.842a3.382,3.382,0,0,1,3.385,3.393,3.385,3.385,0,0,1-3.4,3.372,3.387,3.387,0,0,1-3.37-3.5A3.386,3.386,0,0,1-503.562,626.842Zm.009.616a2.781,2.781,0,0,0-2.774,2.755,2.779,2.779,0,0,0,2.76,2.779,2.782,2.782,0,0,0,2.774-2.765A2.779,2.779,0,0,0-503.553,627.457Z" transform="translate(-88.969 -88.976)" fill="#101010"/>
    <path id="Path_286" data-name="Path 286" d="M-430.5,733.274c.538-.538,1.068-1.066,1.6-1.6a.318.318,0,0,1,.333-.1.306.306,0,0,1,.144.5c-.051.06-.11.112-.165.168l-1.645,1.645a.323.323,0,0,1-.53,0q-.584-.583-1.167-1.166a.309.309,0,0,1,.116-.532.311.311,0,0,1,.326.094q.456.457.913.913C-430.555,733.222-430.53,733.245-430.5,733.274Z" transform="translate(-162.335 -191.546)" fill="#101010"/>
  </g>
</svg>
