<svg xmlns="http://www.w3.org/2000/svg" width="52.211" height="21.429" viewBox="0 0 52.211 21.429">
  <path id="Icon_awesome-apple-pay" data-name="Icon awesome-apple-pay" d="M9.536,11.525a3.2,3.2,0,0,1-2.57,1.215,3.616,3.616,0,0,1,.922-2.659,3.835,3.835,0,0,1,2.553-1.313,3.881,3.881,0,0,1-.905,2.757m.889,1.4c-1.419-.082-2.635.808-3.3.808-.685,0-1.713-.767-2.839-.742A4.193,4.193,0,0,0,.727,15.155c-1.534,2.635-.4,6.526,1.085,8.671.726,1.06,1.591,2.227,2.733,2.186,1.085-.041,1.509-.7,2.814-.7s1.7.7,2.839.685c1.183-.024,1.925-1.06,2.651-2.121a9.221,9.221,0,0,0,1.183-2.439,3.854,3.854,0,0,1-2.309-3.5,3.924,3.924,0,0,1,1.868-3.287,4.032,4.032,0,0,0-3.165-1.721m8.19-2.953v15.9h2.472V20.441H24.5a5.045,5.045,0,0,0,5.31-5.245,4.987,4.987,0,0,0-5.229-5.221H18.615Zm2.472,2.08h2.847c2.145,0,3.369,1.142,3.369,3.149s-1.224,3.165-3.377,3.165H21.087ZM34.318,26a4.073,4.073,0,0,0,3.638-2.031h.049v1.909h2.284V17.961c0-2.292-1.835-3.777-4.658-3.777-2.618,0-4.56,1.5-4.633,3.557h2.227a2.171,2.171,0,0,1,2.333-1.623c1.509,0,2.357.7,2.357,2V19l-3.083.188c-2.863.171-4.413,1.346-4.413,3.385C30.427,24.626,32.026,26,34.318,26Zm.669-1.884c-1.313,0-2.154-.636-2.154-1.6,0-1,.808-1.583,2.349-1.672l2.741-.171v.9a2.681,2.681,0,0,1-2.937,2.545ZM43.348,30.2c2.406,0,3.54-.922,4.527-3.7l4.332-12.154H49.695l-2.9,9.389h-.049l-2.9-9.389H41.26l4.177,11.575-.228.7a1.964,1.964,0,0,1-2.08,1.656c-.2,0-.571-.024-.726-.041V30.14A8.55,8.55,0,0,0,43.348,30.2Z" transform="translate(0.004 -8.768)" fill="#fff"/>
</svg>
