<svg xmlns="http://www.w3.org/2000/svg" width="15.621" height="14.505" viewBox="0 0 15.621 14.505">
  <g id="Icon_ionic-md-pricetags" data-name="Icon ionic-md-pricetags" transform="translate(-2.249 -3.375)">
    <path id="Path_812" data-name="Path 812" d="M23.535,7.523V12.44l-7.42,7.1a1.589,1.589,0,0,0,1,.429,1.737,1.737,0,0,0,1.095-.429l6.646-6.266V8.814Z" transform="translate(-6.99 -2.091)" fill="#101010"/>
    <path id="Path_813" data-name="Path 813" d="M14.523,3.375H8.944L2.678,9.916a1.427,1.427,0,0,0-.429.99,1.525,1.525,0,0,0,.429,1.112l4.317,4.31a1.6,1.6,0,0,0,1,.436,1.74,1.74,0,0,0,1.091-.436l6.548-6.259V4.491Zm-1.07,3.581A1.117,1.117,0,1,1,14.2,6.21,1.086,1.086,0,0,1,13.452,6.956Z" transform="translate(0)" fill="#101010"/>
  </g>
</svg>
