<svg xmlns="http://www.w3.org/2000/svg" width="10" height="9.993" viewBox="0 0 10 9.993">
  <g id="Group_296" data-name="Group 296" transform="translate(310.094 1257.684)">
    <path id="Path_280" data-name="Path 280" d="M-301.245-1250.338c-.141-.355-.289-.708-.42-1.066a.372.372,0,0,1,.441-.511.464.464,0,0,1,.273.229q.433,1.011.829,2.038a.375.375,0,0,1-.445.5,1.1,1.1,0,0,1-.229-.081c-.584-.256-1.164-.52-1.753-.765a.812.812,0,0,0-.373-.018,1.522,1.522,0,0,0-.987.61,3.576,3.576,0,0,1-3.822,1.021.557.557,0,0,0-.331.019c-.466.192-.926.4-1.386.6a.425.425,0,0,1-.517-.038.429.429,0,0,1-.057-.532c.161-.374.3-.756.464-1.131a.307.307,0,0,0-.033-.327,3.038,3.038,0,0,1,.753-4.125.585.585,0,0,0,.242-.412,3.851,3.851,0,0,1,2.1-2.826,4.464,4.464,0,0,1,5.689,1.242,3.529,3.529,0,0,1,.674,2.669c-.039.28-.2.42-.436.4s-.362-.2-.332-.486a2.955,2.955,0,0,0-1.088-2.713,3.724,3.724,0,0,0-5.255.519,2.927,2.927,0,0,0,.5,4.086,3.653,3.653,0,0,0,3.743.61.714.714,0,0,1,.575.021c.376.174.758.336,1.137.5Zm-3.359.565a4.287,4.287,0,0,1-4-3.293c-.034.032-.062.056-.087.083a2.223,2.223,0,0,0-.147,2.9.615.615,0,0,1,.088.734c-.08.153-.132.321-.215.527.316-.139.574-.267.844-.365a.6.6,0,0,1,.383-.02,3.18,3.18,0,0,0,1.551.187A2.939,2.939,0,0,0-304.6-1249.773Z" fill="#101010"/>
    <path id="Path_281" data-name="Path 281" d="M-225.434-1177.3a.393.393,0,0,1-.4.384.393.393,0,0,1-.376-.39.389.389,0,0,1,.392-.394A.392.392,0,0,1-225.434-1177.3Z" transform="translate(-80.127 -76.406)" fill="#101010"/>
    <path id="Path_282" data-name="Path 282" d="M-190.941-1176.926a.394.394,0,0,1-.383-.406.391.391,0,0,1,.407-.379.394.394,0,0,1,.373.393A.394.394,0,0,1-190.941-1176.926Z" transform="translate(-113.456 -76.396)" fill="#101010"/>
    <path id="Path_283" data-name="Path 283" d="M-155.653-1177.321a.394.394,0,0,1-.386.4.394.394,0,0,1-.394-.371.39.39,0,0,1,.373-.412A.393.393,0,0,1-155.653-1177.321Z" transform="translate(-146.785 -76.403)" fill="#101010"/>
  </g>
</svg>
