<svg xmlns="http://www.w3.org/2000/svg" width="9.8" height="9.72" viewBox="0 0 9.8 9.72">
  <g id="Group_298" data-name="Group 298" transform="translate(-69.509 -51.402)">
    <path id="Path_278" data-name="Path 278" d="M74.793,51.452c.166.025.334.04.5.077.252.057.5.12.75.2a.369.369,0,0,1,.244.485.375.375,0,0,1-.488.226,4.122,4.122,0,0,0-.965-.207c0,.112,0,.221,0,.33a.386.386,0,0,1-.374.39.38.38,0,0,1-.378-.384c0-.109,0-.218,0-.327a4.016,4.016,0,0,0-3.651,3.643h.327a.376.376,0,1,1,.005.752c-.109,0-.218,0-.327,0a4.024,4.024,0,0,0,3.645,3.652c0-.109,0-.218,0-.327a.376.376,0,1,1,.752,0c0,.109,0,.218,0,.327a4.036,4.036,0,0,0,3.65-3.653c-.109,0-.218,0-.327,0a.38.38,0,0,1-.392-.379.385.385,0,0,1,.392-.372h.329a3.875,3.875,0,0,0-.2-.957.376.376,0,1,1,.7-.278,4.385,4.385,0,0,1,.243,1c.012.092.026.184.038.276v.676a.255.255,0,0,0-.015.044c-.033.216-.053.434-.1.647a4.789,4.789,0,0,1-5.1,3.759,4.8,4.8,0,0,1-.43-9.516c.164-.034.332-.05.5-.075Z" transform="translate(0 0)" fill="#101010" stroke="#1a1a1a" stroke-width="0.1"/>
    <path id="Path_279" data-name="Path 279" d="M201.912,51.9a2.025,2.025,0,0,1-.2.278q-1.761,1.769-3.529,3.53a.127.127,0,0,0-.037.159,1.068,1.068,0,0,1-.237,1.155,1.05,1.05,0,0,1-1.132.3,1.078,1.078,0,0,1-.773-.882.986.986,0,0,1,.064-.587.1.1,0,0,0-.029-.127q-.642-.638-1.28-1.281a.375.375,0,0,1,.161-.635.383.383,0,0,1,.391.12c.417.419.837.835,1.253,1.255a.119.119,0,0,0,.152.031,1.058,1.058,0,0,1,.786,0,.112.112,0,0,0,.143-.034q1.77-1.773,3.544-3.542a1.917,1.917,0,0,1,.271-.191h.15a.462.462,0,0,1,.3.3Zm-5.163,4.352a.358.358,0,0,0,.717.006.361.361,0,0,0-.361-.362A.354.354,0,0,0,196.749,56.254Z" transform="translate(-122.653 0)" fill="#101010" stroke="#1a1a1a" stroke-width="0.1"/>
  </g>
</svg>
