<svg xmlns="http://www.w3.org/2000/svg" width="13.516" height="15.974" viewBox="0 0 13.516 15.974">
  <path id="Icon_ionic-md-notifications-outline" data-name="Icon ionic-md-notifications-outline" d="M12.422,6.158a5.551,5.551,0,0,1,.918.172,3.913,3.913,0,0,1,2.983,3.834v4.9l.358.36.3.3H7.787l.3-.3.358-.36v-4.9A3.913,3.913,0,0,1,11.427,6.33a6.8,6.8,0,0,1,.918-.172m.038-2.783a1.174,1.174,0,0,0-1.193,1.2v.559a5.177,5.177,0,0,0-3.975,5.032v4.393l-1.59,1.6v.8H19.141v-.8l-1.59-1.6V10.164a5.177,5.177,0,0,0-3.975-5.032V4.573a1.174,1.174,0,0,0-1.193-1.2Zm1.59,14.376h-3.18a1.59,1.59,0,1,0,3.18,0Z" transform="translate(-5.625 -3.375)" fill="#101010"/>
</svg>
