<svg xmlns="http://www.w3.org/2000/svg" width="60.182" height="60.064" viewBox="0 0 60.182 60.064">
  <g id="Group_537" data-name="Group 537" transform="translate(13561 -3530)">
    <path id="Path_412" data-name="Path 412" d="M720.346,681.909a2.348,2.348,0,0,0,1.956-1.044,20.447,20.447,0,0,1,33.945-.041,2.351,2.351,0,0,0,3.9-2.625,25.091,25.091,0,0,0-12.368-9.627,13.282,13.282,0,1,0-16.844-.052,25.084,25.084,0,0,0-12.541,9.731,2.35,2.35,0,0,0,.646,3.261A4.5,4.5,0,0,0,720.346,681.909ZM739.39,649.7a8.581,8.581,0,1,1-8.581,8.581,8.59,8.59,0,0,1,8.581-8.581Z" transform="translate(-14270.299 2885)" fill="#101010"/>
    <path id="Path_413" data-name="Path 413" d="M213.245,229.777a1.369,1.369,0,0,1-1.35-1.6l.892-5.208L209,219.289a1.371,1.371,0,0,1,.758-2.339l5.221-.759,2.341-4.739a1.426,1.426,0,0,1,2.457,0l2.341,4.739,5.234.759a1.371,1.371,0,0,1,.759,2.339l-3.786,3.678.892,5.208a1.37,1.37,0,0,1-1.989,1.444l-4.679-2.46-4.665,2.46A1.387,1.387,0,0,1,213.245,229.777Zm5.3-5.537a1.357,1.357,0,0,1,.637.157l2.86,1.5-.544-3.182a1.371,1.371,0,0,1,.395-1.214l2.308-2.242-3.193-.463a1.371,1.371,0,0,1-1.032-.75l-1.429-2.9-1.43,2.9a1.37,1.37,0,0,1-1.03.75l-3.181.462,2.308,2.241a1.374,1.374,0,0,1,.4,1.216l-.546,3.178,2.845-1.5A1.363,1.363,0,0,1,218.548,224.24Z" transform="translate(-13729.346 3360.287)" fill="#101010"/>
    <path id="Path_414" data-name="Path 414" d="M213.245,229.777a1.369,1.369,0,0,1-1.35-1.6l.892-5.208L209,219.289a1.371,1.371,0,0,1,.758-2.339l5.221-.759,2.341-4.739a1.426,1.426,0,0,1,2.457,0l2.341,4.739,5.234.759a1.371,1.371,0,0,1,.759,2.339l-3.786,3.678.892,5.208a1.37,1.37,0,0,1-1.989,1.444l-4.679-2.46-4.665,2.46A1.387,1.387,0,0,1,213.245,229.777Zm5.3-5.537a1.357,1.357,0,0,1,.637.157l2.86,1.5-.544-3.182a1.371,1.371,0,0,1,.395-1.214l2.308-2.242-3.193-.463a1.371,1.371,0,0,1-1.032-.75l-1.429-2.9-1.43,2.9a1.37,1.37,0,0,1-1.03.75l-3.181.462,2.308,2.241a1.374,1.374,0,0,1,.4,1.216l-.546,3.178,2.845-1.5A1.363,1.363,0,0,1,218.548,224.24Z" transform="translate(-13749.286 3352.176)" fill="#101010"/>
    <path id="Path_415" data-name="Path 415" d="M213.245,229.777a1.369,1.369,0,0,1-1.35-1.6l.892-5.208L209,219.289a1.371,1.371,0,0,1,.758-2.339l5.221-.759,2.341-4.739a1.426,1.426,0,0,1,2.457,0l2.341,4.739,5.234.759a1.371,1.371,0,0,1,.759,2.339l-3.786,3.678.892,5.208a1.37,1.37,0,0,1-1.989,1.444l-4.679-2.46-4.665,2.46A1.387,1.387,0,0,1,213.245,229.777Zm5.3-5.537a1.357,1.357,0,0,1,.637.157l2.86,1.5-.544-3.182a1.371,1.371,0,0,1,.395-1.214l2.308-2.242-3.193-.463a1.371,1.371,0,0,1-1.032-.75l-1.429-2.9-1.43,2.9a1.37,1.37,0,0,1-1.03.75l-3.181.462,2.308,2.241a1.374,1.374,0,0,1,.4,1.216l-.546,3.178,2.845-1.5A1.363,1.363,0,0,1,218.548,224.24Z" transform="translate(-13769.587 3360.287)" fill="#101010"/>
  </g>
</svg>
