<svg xmlns="http://www.w3.org/2000/svg" width="3.485" height="5.578" viewBox="0 0 3.485 5.578">
  <g id="Group_227" data-name="Group 227" transform="translate(-904.297 -319.087)">
    <path id="Icon_ionic-ios-arrow-forward" data-name="Icon ionic-ios-arrow-forward" d="M12.638,7.937,11.32,6.62a.248.248,0,0,1,0-.352.251.251,0,0,1,.353,0l1.494,1.493a.248.248,0,0,1,.007.343l-1.5,1.5a.249.249,0,0,1-.353-.352Z" transform="translate(898.102 332.326) rotate(-90)" fill="#fff"/>
    <path id="Icon_ionic-ios-arrow-forward-2" data-name="Icon ionic-ios-arrow-forward" d="M12.638,7.937,11.32,6.62a.248.248,0,0,1,0-.352.251.251,0,0,1,.353,0l1.494,1.493a.248.248,0,0,1,.007.343l-1.5,1.5a.249.249,0,0,1-.353-.352Z" transform="translate(913.977 311.427) rotate(90)" fill="#fff"/>
  </g>
</svg>
