<svg id="Component_17_1" data-name="Component 17 – 1" xmlns="http://www.w3.org/2000/svg" width="12.15" height="11.595" viewBox="0 0 12.15 11.595">
  <path id="Path_112" data-name="Path 112" d="M324.625,216.969l1.62,3.282,3.624.526-2.622,2.547.618,3.607-3.24-1.7-3.232,1.7.618-3.607-2.622-2.547,3.616-.526Z" transform="translate(-318.554 -216.172)" fill="#101010"/>
  <path id="Path_113" data-name="Path 113" d="M315.708,222.343a.834.834,0,0,1-.823-.976l.543-3.173-2.307-2.241a.836.836,0,0,1,.463-1.425l3.181-.463,1.425-2.888a.869.869,0,0,1,1.5,0l1.426,2.888,3.189.463a.835.835,0,0,1,.463,1.425l-2.307,2.241.544,3.173a.834.834,0,0,1-1.211.88l-2.852-1.5-2.842,1.5A.849.849,0,0,1,315.708,222.343Zm3.232-3.373a.83.83,0,0,1,.388.1l1.743.916-.331-1.939a.835.835,0,0,1,.24-.74l1.406-1.366-1.946-.282a.835.835,0,0,1-.629-.457l-.872-1.765-.871,1.764a.835.835,0,0,1-.629.457l-1.937.281,1.406,1.366a.834.834,0,0,1,.241.74l-.331,1.936,1.732-.914A.84.84,0,0,1,318.939,218.969Z" transform="translate(-312.868 -210.749)" fill="#222"/>
</svg>
