<svg xmlns="http://www.w3.org/2000/svg" width="12.15" height="11.595" viewBox="0 0 12.15 11.595">
  <path id="Path_115" data-name="Path 115" d="M420,222.343a.834.834,0,0,1-.823-.976l.543-3.173-2.307-2.241a.835.835,0,0,1,.463-1.425l3.182-.463,1.425-2.888a.869.869,0,0,1,1.5,0l1.426,2.888,3.189.463a.835.835,0,0,1,.463,1.425l-2.307,2.241.544,3.173a.834.834,0,0,1-1.211.88l-2.852-1.5-2.842,1.5A.849.849,0,0,1,420,222.343Zm3.232-3.373a.83.83,0,0,1,.388.1l1.744.916-.332-1.939a.835.835,0,0,1,.24-.74l1.406-1.366-1.946-.282a.835.835,0,0,1-.629-.457l-.872-1.765-.871,1.764a.835.835,0,0,1-.629.457l-1.937.281L421.2,217.3a.834.834,0,0,1,.24.74l-.331,1.936,1.732-.914A.841.841,0,0,1,423.229,218.969Z" transform="translate(-417.158 -210.749)" fill="#ffffff"/>
</svg>
