<?xml version="1.0" standalone="no"?>
<!DOCTYPE svg PUBLIC "-//W3C//DTD SVG 1.1//EN" "http://www.w3.org/Graphics/SVG/1.1/DTD/svg11.dtd" >
<svg xmlns="http://www.w3.org/2000/svg">
<metadata>Generated by IcoMoon</metadata>
<defs>
<font id="seen-icons" horiz-adv-x="1024">
<font-face units-per-em="1024" ascent="960" descent="-64" />
<missing-glyph horiz-adv-x="1024" />
<glyph unicode="&#x20;" horiz-adv-x="512" d="" />
<glyph unicode="&#xe900;" d="M767.989 192.009c-141.381-141.381-370.604-141.381-511.985 0s-141.381 370.604 0 511.985c141.381 141.381 370.604 141.381 511.985 0s141.381-370.604 0-511.985z" />
<glyph unicode="&#xe901;" d="M702.925 426.654l0.050 42.713h-169.581l-0.017 169.597h-42.763v-169.581l-169.597-0.017 0.050-42.713h169.581l0.017-169.597h42.663v169.581z" />
<glyph unicode="&#xe902;" glyph-name="icon_amex" horiz-adv-x="1536" d="M79.298 590.856h59.324l-29.886 71.976zM493.321 240.191l49.312 52.649-46.672 52.649h-108.636v-32.676h94.64v-36.66h-94.64v-36.013zM598.67 291.994l65.999-73.321v144.45zM790.689 323.325q0 22.016-26.649 22.016h-56.037v-46.025h55.538q27.346 0 27.346 24.009zM983.355 326.015q0 19.326-27.993 19.326h-54.791v-40.645h53.994q28.741-0.050 28.741 21.319zM797.961 636.681q0 19.326-27.993 19.326h-54.791v-39.848h53.994q28.691 0 28.691 20.671zM1103.945 590.706h59.324l-29.338 71.976zM465.975 694.013v-180.662h-43.982v141.312l-62.661-141.312h-38.005l-62.661 141.312v-141.312h-87.865l-16.686 39.848h-90.157l-16.686-39.848h-46.622l77.355 180.662h63.956l73.321-171.347v171.347h70.681l56.684-122.683 51.354 122.683h71.976zM836.663 323.325c0.007-0.371 0.011-0.807 0.011-1.245 0-7.903-1.354-15.489-3.843-22.54l0.146 0.474c-2.247-6.405-5.409-11.943-9.39-16.78l0.075 0.094c-4.067-4.629-9.047-8.349-14.672-10.898l-0.271-0.11c-4.776-2.34-10.52-4.607-16.455-6.441l-0.879-0.234c-6.241-1.688-13.453-2.764-20.88-2.985l-0.14-0.003q-13-0.648-21.020-0.648t-21.667 0.349-19.675 0.349v-60.669h-83.93l-53.347 59.772-55.339-59.772h-170.75v180.612h173.34l53.347-59.324 54.791 59.324h138.024q72.673 0 72.673-59.324zM642.652 550.659v-37.358h-144.45v180.712h144.45v-38.005h-101.314v-32.676h98.674v-36.66h-98.674v-36.013zM1536 177.978v-152.669c0.006-0.382 0.009-0.832 0.009-1.284 0-24.123-9.81-45.954-25.658-61.723l-0.004-0.004c-15.316-16.245-36.981-26.36-61.009-26.36-0.458 0-0.916 0.004-1.373 0.011l0.069-0.001h-1360.070c-0.388-0.006-0.846-0.010-1.304-0.010-24.028 0-45.693 10.115-60.97 26.318l-0.039 0.042c-15.852 15.772-25.662 37.604-25.662 61.726 0 0.451 0.003 0.902 0.010 1.352l-0.001-0.068v452.028h73.968l16.686 40.645h36.66l16.686-40.645h145.297v30.683l12.652-30.683h75.313l13.349 31.331v-31.331h360.676v65.999l6.675 0.648q6.675 0 6.675-9.315v-57.332h185.992v15.342c10.607-5.431 22.911-9.608 35.869-11.889l0.791-0.115c10.159-2.178 22.127-3.727 34.348-4.314l0.519-0.020q13.648-0.349 41.99 0.349t34.319 0.648l16.686 40.645h37.358l16.686-40.645h151.324v38.802l22.664-38.653h121.338v251.841h-119.893v-29.338l-16.686 29.338h-123.28v-29.338l-15.342 29.338h-166.018c-2.184 0.113-4.742 0.177-7.315 0.177-23.76 0-46.242-5.469-66.257-15.216l0.898 0.395v14.644h-114.564v-14.644c-11.764 9.267-26.798 14.863-43.138 14.863-1.945 0-3.872-0.079-5.777-0.235l0.25 0.016h-418.755l-28.691-64.753-28.691 64.753h-131.947v-29.338l-14.644 29.338h-112.671l-52.002-119.545v260.856c-0.006 0.382-0.009 0.832-0.009 1.284 0 24.123 9.81 45.954 25.658 61.723l0.004 0.004c15.316 16.245 36.981 26.36 61.009 26.36 0.458 0 0.916-0.004 1.373-0.011l-0.069 0.001h1359.821c0.388 0.006 0.846 0.010 1.304 0.010 24.028 0 45.693-10.115 60.97-26.318l0.039-0.042c15.852-15.772 25.662-37.604 25.662-61.726 0-0.451-0.003-0.902-0.010-1.352l0.001 0.068v-451.979h-79.846c-1.404 0.079-3.046 0.123-4.7 0.123-18.351 0-35.414-5.513-49.624-14.973l0.329 0.206v14.644h-117.901c-2.178 0.227-4.705 0.356-7.263 0.356-16.884 0-32.45-5.638-44.921-15.133l0.182 0.133v14.644h-210.698v-14.644c-14.81 9.301-32.814 14.818-52.107 14.818-2.066 0-4.117-0.063-6.151-0.188l0.279 0.014h-139.469v-14.644c-14.117 9.55-31.521 15.246-50.256 15.246-3.669 0-7.288-0.218-10.843-0.643l0.43 0.042h-155.856l-36.013-38.653-33.323 38.653h-232.714v-251.99h228.679l36.66 39.35 34.867-39.35h140.664v59.324h13.997c2.123-0.1 4.612-0.157 7.115-0.157 18.859 0 36.963 3.232 53.788 9.172l-1.131-0.348v-67.991h116.008v65.999h5.33c0.7 0.301 1.514 0.477 2.37 0.477 3.384 0 6.127-2.743 6.127-6.127 0-0.855-0.175-1.67-0.492-2.41l0.015 0.040v-57.979h352.657c1.777-0.12 3.851-0.188 5.942-0.188 19.683 0 37.954 6.047 53.056 16.385l-0.322-0.208v-15.989h112.023c1.897-0.088 4.121-0.138 6.357-0.138 20.564 0 40.14 4.227 57.908 11.859l-0.955-0.365zM1030.625 333.984c0-0.045 0-0.098 0-0.151 0-10.554-2.984-20.412-8.155-28.775l0.135 0.235c-5.238-8.727-13.040-15.452-22.355-19.216l-0.309-0.11c9.654-2.825 17.566-9.005 22.567-17.164l0.097-0.17c3.82-8.095 6.050-17.583 6.050-27.592 0-1.087-0.026-2.168-0.078-3.242l0.006 0.151v-36.013h-43.335v29.886c0.207 1.502 0.325 3.238 0.325 5.001 0 9.099-3.144 17.463-8.405 24.067l0.060-0.078c-7.259 4.579-16.091 7.295-25.558 7.295-1.805 0-3.588-0.099-5.342-0.291l0.217 0.019h-46.025v-65.999h-43.335v180.811h102.659c1.464 0.068 3.179 0.107 4.904 0.107 16.839 0 32.811-3.71 47.143-10.358l-0.693 0.288c11.801-6.953 19.595-19.597 19.595-34.060 0-1.618-0.098-3.214-0.287-4.781l0.019 0.189zM845.978 645.299c0.001-0.139 0.002-0.304 0.002-0.469 0-10.703-3.1-20.682-8.451-29.089l0.131 0.22c-5.277-8.573-12.913-15.247-22.003-19.205l-0.312-0.121c9.78-2.583 17.838-8.679 22.918-16.824l0.094-0.161c3.641-8.122 5.762-17.604 5.762-27.581 0-1.196-0.030-2.385-0.091-3.567l0.007 0.166v-35.315h-43.335q0 5.977 0.349 17.683t0 16.686c-0.394 4.614-1.099 8.826-2.11 12.917l0.118-0.564c-0.714 4.235-2.753 7.903-5.669 10.651l-0.009 0.009c-3.304 2.523-7.197 4.476-11.421 5.624l-0.235 0.054c-5.372 1.501-11.54 2.364-17.91 2.364-0.621 0-1.239-0.008-1.856-0.024l0.091 0.002h-46.672v-65.351h-42.687v180.612l102.011-0.648c1.529 0.071 3.32 0.112 5.122 0.112 16.956 0 33.073-3.598 47.627-10.072l-0.747 0.297c11.797-6.768 19.615-19.291 19.615-33.639 0-1.662-0.105-3.299-0.308-4.906l0.020 0.191zM1198.635 239.295v-37.358h-144.002v180.712h144.002v-37.358h-100.667v-32.676h98.923v-36.66h-98.923v-36.013zM914.716 693.963v-180.662h-44.082v180.712zM1376.707 259.319q0-57.332-67.991-57.332h-84.080v38.653h83.98q22.664 0 22.664 16.686c0.005 0.136 0.008 0.296 0.008 0.457 0 6.75-4.865 12.364-11.281 13.527l-0.084 0.013c-7.678 2.133-16.494 3.358-25.597 3.358-0.72 0-1.439-0.008-2.155-0.023l0.107 0.002c-11.662 0.034-23.091 0.902-34.268 2.547l1.293-0.156c-11.232 1.491-20.973 6.948-27.95 14.892l-0.044 0.051c-7.155 8.985-11.481 20.501-11.481 33.028 0 1.278 0.045 2.546 0.134 3.802l-0.010-0.169c-0.046 0.79-0.072 1.713-0.072 2.643 0 14.913 6.736 28.253 17.331 37.144l0.075 0.061c11.309 8.764 25.698 14.049 41.321 14.049 0.936 0 1.868-0.019 2.794-0.057l-0.133 0.004h86.67v-38.005h-79.298q-24.009 0-24.009-16.686c-0.004-0.121-0.006-0.263-0.006-0.406 0-6.778 5.051-12.376 11.594-13.235l0.068-0.007c7.196-1.759 15.457-2.767 23.954-2.767 1.421 0 2.835 0.028 4.242 0.084l-0.202-0.006c1.432 0.032 3.12 0.050 4.813 0.050 9.821 0 19.497-0.616 28.994-1.81l-1.131 0.116c11.155-1.349 20.886-6.594 27.963-14.312l0.030-0.033c7.335-8.772 11.79-20.173 11.79-32.614 0-1.301-0.049-2.591-0.144-3.868l0.010 0.17zM1536.1 292.642v-67.344c-12.236-14.576-30.464-23.776-50.842-23.776-2.761 0-5.483 0.169-8.155 0.497l0.32-0.032h-83.432v38.653h83.333q22.016 0 22.016 16.686c0.003 0.105 0.005 0.228 0.005 0.352 0 5.543-3.404 10.291-8.235 12.268l-0.088 0.032c-5.296 2.38-11.479 3.766-17.986 3.766-0.945 0-1.882-0.029-2.812-0.087l0.127 0.006c-1.153-0.025-2.513-0.040-3.876-0.040-8.027 0-15.936 0.503-23.697 1.48l0.924-0.095c-10.007 1.133-19.043 3.006-27.761 5.616l1.113-0.286c-8.738 2.812-15.901 8.458-20.58 15.835l-0.091 0.154c-5.261 8.444-8.38 18.696-8.38 29.676 0 0.932 0.022 1.859 0.067 2.781l-0.005-0.13c-0.043 0.761-0.068 1.652-0.068 2.548 0 15.013 6.882 28.418 17.664 37.232l0.086 0.068c11.465 8.765 26.001 14.044 41.77 14.044 0.901 0 1.798-0.017 2.69-0.051l-0.129 0.004h86.022v-38.005h-78.8q-24.009 0-24.009-16.686 0-13.349 19.326-14.644t45.676-3.337c0.124 0.001 0.271 0.002 0.417 0.002 14.91 0 28.253-6.705 37.18-17.264l0.059-0.072zM1426.019 693.316v-180.014h-61.366l-81.34 135.335v-135.335h-88.015l-17.334 39.848h-89.31l-16.686-39.848h-49.81c-2.933-0.395-6.324-0.62-9.767-0.62-42.64 0-77.206 34.566-77.206 77.206 0 4.264 0.346 8.446 1.010 12.522l-0.060-0.445q0 92 88.662 92h41.99v-39.35q-4.682 0-18.679 0.648t-18.978 0.349q-4.981-0.349-15.342-1.345c-5.34-0.081-10.288-1.686-14.45-4.398l0.105 0.064q-3.985-3.337-9.663-9.016c-3.891-4.101-6.621-9.339-7.645-15.164l-0.026-0.177c-1.272-6.309-2-13.562-2-20.985 0-0.467 0.003-0.934 0.009-1.4l-0.001 0.071c-0.085-1.284-0.134-2.784-0.134-4.295 0-12.643 3.396-24.494 9.326-34.688l-0.177 0.33c6.839-8.332 17.139-13.606 28.67-13.606 1.534 0 3.047 0.093 4.533 0.275l-0.178-0.018h19.326l61.316 142.009h64.753l72.673-170.65v170.7h65.75l76.011-125.323v125.323h44.032z" />
<glyph unicode="&#xe903;" glyph-name="icon_analytics" horiz-adv-x="1026" d="M636.026 144.79l172.814-172.814c23.222-22.288 54.812-36.012 89.607-36.012s66.385 13.724 89.651 36.054l-0.044-0.042c23.684 22.58 38.412 54.374 38.412 89.607s-14.728 67.027-38.362 89.56l-0.050 0.047-172.814 172.814c32.001 59.299 50.918 129.743 51.195 204.581v0.086c0.125 2.049 0.196 4.445 0.196 6.858 0 10.059-1.238 19.829-3.571 29.166l0.175-0.826 118.419 118.39c5.136 5.615 8.283 13.125 8.283 21.37 0 17.512-14.197 31.709-31.709 31.709-8.245 0-15.755-3.147-21.395-8.305l0.024 0.022-86.479-86.479c-20.517 75.757-59.523 140.677-111.942 191.937l-0.077 0.075c-78.147 77.829-185.937 125.945-304.965 125.945-238.694 0-432.194-193.5-432.194-432.194s193.5-432.194 432.194-432.194c74.129 0 143.899 18.663 204.868 51.546l-2.295-1.132zM940.029 106.393c12.726-11.639 20.677-28.317 20.677-46.852 0-35.025-28.393-63.418-63.418-63.418-18.535 0-35.212 7.951-46.808 20.629l-0.044 0.048-163.215 163.186c34.261 25.819 63.793 55.342 88.806 88.466l0.815 1.126zM172.007 788.022c66.628 67.011 158.879 108.485 260.817 108.485 182.751 0 334.369-133.298 362.93-307.971l0.287-2.125-63.995-63.995-105.62 105.591c-5.645 5.919-13.592 9.599-22.398 9.599s-16.753-3.68-22.386-9.587l-166.427-166.398-73.594 73.594c-5.645 5.919-13.592 9.599-22.398 9.599s-16.753-3.68-22.386-9.587l-128.030-128.001c-5.136-5.615-8.283-13.125-8.283-21.37 0-17.512 14.197-31.709 31.709-31.709 8.245 0 15.755 3.147 21.395 8.305l-0.024-0.022 105.591 105.591c47.996-38.397 83.222-108.82 118.419-73.594l166.415 166.415 105.591-105.62c5.648-5.911 13.594-9.586 22.398-9.586s16.75 3.675 22.387 9.574l0.011 0.012 44.796 44.796c-7.227-91.424-46.171-172.584-105.693-233.569l0.073 0.075c-66.145-63.378-156.069-102.396-255.106-102.396-203.781 0-368.978 165.197-368.978 368.978 0 99.001 38.99 188.896 102.453 255.166l-0.127-0.134z" />
<glyph unicode="&#xe904;" glyph-name="icon_apple_pay" horiz-adv-x="2495" d="M455.876 828.255c-28.254-35.518-71.472-58.086-119.96-58.086-1.002 0-2.002 0.010-2.999 0.029l0.15-0.002c-0.239 3.405-0.375 7.379-0.375 11.384 0 44.561 16.868 85.183 44.567 115.828l-0.133-0.15c30.219 34.865 73.019 58.128 121.263 62.687l0.734 0.056c0.257-3.657 0.403-7.924 0.403-12.226 0-45.665-16.504-87.474-43.873-119.79l0.223 0.271zM498.357 761.355c-67.808 3.918-125.915-38.611-157.693-38.611-32.733 0-81.857 36.652-135.664 35.457-73.027-1.998-136.096-42.772-169.549-102.399l-0.52-1.009c-73.303-125.915-19.114-311.85 51.847-414.35 34.692-50.653 76.027-106.419 130.598-104.46 51.847 1.959 72.109 33.45 134.469 33.45s81.236-33.45 135.664-32.733c56.53 1.147 91.987 50.653 126.68 101.353 23.172 33.5 42.382 72.136 55.664 113.431l0.867 3.119c-65.060 28.986-109.723 92.828-110.337 167.171l-0.001 0.079c0.966 66.188 36.077 123.966 88.471 156.611l0.793 0.461c-34.017 48.262-88.701 79.988-150.902 82.23l-0.339 0.010zM889.77 902.275v-759.793h118.126v259.715h163.045c3.844-0.219 8.341-0.344 12.867-0.344 133.144 0 241.079 107.935 241.079 241.079 0 3.482-0.074 6.947-0.22 10.393l0.017-0.492c0.176 3.426 0.276 7.44 0.276 11.476 0 131.614-106.694 238.307-238.307 238.307-4.165 0-8.305-0.107-12.417-0.318l0.576 0.024h-285.090zM1007.896 802.881h136.046c102.5 0 160.99-54.571 160.99-150.477s-58.49-151.242-161.372-151.242h-135.711zM1640.101 136.557c1.608-0.048 3.5-0.075 5.398-0.075 71.585 0 134.144 38.646 167.95 96.213l0.497 0.915h2.341v-91.223h109.143v378.319c0 109.525-87.687 180.487-222.586 180.487-125.103 0-217.903-71.679-221.391-169.974h106.419c11.813 45.267 52.335 78.136 100.533 78.136 3.858 0 7.666-0.211 11.414-0.621l-0.463 0.041c72.109 0 112.631-33.45 112.631-95.571v-42.147l-147.323-8.984c-136.81-8.171-210.878-64.32-210.878-161.755 0.382-98.104 76.792-163.762 186.316-163.762zM1672.070 226.585c-62.743 0-102.93 30.392-102.93 76.457 0 47.786 38.611 75.645 112.249 79.898l130.981 8.171v-43.007c-3.24-68.17-59.298-122.213-127.978-122.213-4.356 0-8.661 0.217-12.904 0.642l0.535-0.043zM2071.606-64.143c114.972 0 169.161 44.058 216.326 176.807l207.008 580.787h-120.038l-138.579-448.66h-2.341l-138.579 448.66h-123.574l199.601-553.12-10.895-33.45c-7.259-45.231-46.007-79.37-92.727-79.37-2.346 0-4.672 0.086-6.975 0.255l0.308-0.018c-9.557 0-27.286 1.147-34.692 1.959v-90.984c13.425-1.697 29.095-2.735 44.982-2.866l0.176-0.001z" />
<glyph unicode="&#xe905;" d="M1023.968 448.016c0-282.761-229.223-511.984-511.984-511.984s-511.984 229.223-511.984 511.984c0 282.761 229.223 511.984 511.984 511.984s511.984-229.223 511.984-511.984z" />
<glyph unicode="&#xe906;" d="M877.651 448.016c0-201.97-163.729-365.698-365.698-365.698s-365.698 163.729-365.698 365.698c0 201.97 163.729 365.698 365.698 365.698s365.698-163.729 365.698-365.698z" />
<glyph unicode="&#xe907;" d="M667.988 617.275l-212.753-203.13-99.159 94.794-71.024-67.71 170.183-162.504 283.586 270.84z" />
<glyph unicode="&#xe909;" glyph-name="icon_arrow_down" horiz-adv-x="540" d="M270.193 29.094l204.209 204.395c6.964 7.007 16.608 11.344 27.265 11.344s20.301-4.337 27.263-11.342l0.002-0.002c6.934-7.027 11.216-16.685 11.216-27.343s-4.282-20.316-11.22-27.347l-231.563-231.563c-6.966-6.929-16.569-11.212-27.173-11.212-9.984 0-19.081 3.797-25.926 10.026l0.031-0.028-233.030 232.625c-7.011 6.992-11.349 16.661-11.349 27.343 0 21.326 17.288 38.614 38.614 38.614 10.644 0 20.281-4.306 27.266-11.272l-0.001 0.001z" />
<glyph unicode="&#xe90a;" glyph-name="icon_arrow_left" horiz-adv-x="1941" d="M176.489 447.823l387.496-387.142c13.284-13.203 21.505-31.486 21.505-51.69s-8.222-38.487-21.502-51.686l-0.004-0.004c-13.321-13.145-31.631-21.264-51.837-21.264s-38.516 8.119-51.845 21.272l-439.001 439.001c-13.136 13.205-21.256 31.411-21.256 51.514 0 18.928 7.199 36.174 19.008 49.151l-0.053-0.059 441.015 441.782c13.255 13.292 31.586 21.515 51.837 21.515 40.43 0 73.205-32.775 73.205-73.205 0-20.178-8.164-38.45-21.369-51.691l0.002 0.002z" />
<glyph unicode="&#xe90b;" glyph-name="icon_arrow_right" horiz-adv-x="1941" d="M1764.828 448.177l-387.496 387.142c-13.284 13.203-21.505 31.486-21.505 51.69s8.222 38.487 21.502 51.686l0.004 0.004c13.321 13.145 31.631 21.264 51.837 21.264s38.516-8.119 51.845-21.272l439.001-439.001c13.136-13.205 21.256-31.411 21.256-51.514 0-18.928-7.199-36.174-19.008-49.151l0.053 0.059-441.015-441.782c-13.255-13.292-31.586-21.515-51.837-21.515-40.43 0-73.205 32.775-73.205 73.205 0 20.178 8.164 38.45 21.369 51.691l-0.002-0.002z" />
<glyph unicode="&#xe90c;" glyph-name="icon_arrow_up" horiz-adv-x="540" d="M269.944 866.906l-204.209-204.395c-6.964-7.007-16.608-11.344-27.265-11.344s-20.301 4.337-27.263 11.342l-0.002 0.002c-6.934 7.027-11.216 16.685-11.216 27.343s4.282 20.316 11.22 27.347l231.563 231.563c6.966 6.929 16.569 11.212 27.173 11.212 9.984 0 19.081-3.797 25.926-10.026l-0.031 0.028 233.030-232.625c7.011-6.992 11.349-16.661 11.349-27.343 0-21.326-17.288-38.614-38.614-38.614-10.644 0-20.281 4.306-27.266 11.272l0.001-0.001z" />
<glyph unicode="&#xe90d;" d="M1023.938 448c0-282.77-229.216-512-511.969-512s-511.969 229.23-511.969 512c0 282.77 229.216 512 511.969 512s511.969-229.23 511.969-512z" />
<glyph unicode="&#xe90e;" d="M905.687 448.155c0-217.513-176.329-393.841-393.841-393.841s-393.841 176.329-393.841 393.841c0 217.513 176.329 393.841 393.841 393.841s393.841-176.329 393.841-393.841z" />
<glyph unicode="&#xe90f;" d="M471.086 669.265h92.080v-110.044l-23.818-202.434h-43.857l-24.406 202.434zM473.13 322.067h87.682v-85.049h-87.682z" />
<glyph unicode="&#xe910;" glyph-name="icon_availability" horiz-adv-x="1025" d="M549.551 958.298c17.601-2.621 35.475-4.222 52.804-8.137 26.759-6.026 53.416-12.733 79.597-20.767 16.563-4.824 28.46-19.867 28.46-37.689 0-4.966-0.924-9.716-2.609-14.089l0.091 0.268c-5.654-15.565-20.316-26.482-37.529-26.482-5.138 0-10.049 0.973-14.558 2.744l0.27-0.094c-29.902 10.662-64.678 18.43-100.726 21.826l-1.749 0.133c0-11.916 0-23.491 0-35.032 0.003-0.187 0.005-0.408 0.005-0.629 0-22.158-17.64-40.195-39.642-40.836l-0.059-0.001c-22.19 0.095-40.143 18.105-40.143 40.309 0 0.192 0.001 0.383 0.004 0.574v-0.029c-0.17 11.575 0 23.15 0 34.76-206.115-18.484-369.006-181.151-387.715-385.525l-0.123-1.667c11.609 0 23.185 0 34.76 0 0.086 0.001 0.188 0.001 0.289 0.001 22.037 0 39.902-17.865 39.902-39.902 0-21.935-17.7-39.737-39.597-39.9h-0.016c-11.575 0-23.15 0-34.76 0 18.775-205.957 181.224-368.675 385.394-387.745l1.696-0.128c0 11.609 0 23.15 0 34.726 0 22.055 17.879 39.935 39.935 39.935s39.935-17.879 39.935-39.935v0c0-11.575 0-23.116 0-34.76 205.93 19.491 368.4 182.125 387.506 386.408l0.129 1.702c-11.609 0-23.15 0-34.692 0-0.365-0.012-0.795-0.019-1.226-0.019-22.27 0-40.33 18.030-40.377 40.289v0.005c0.733 21.988 18.734 39.533 40.832 39.533 0.271 0 0.541-0.003 0.811-0.008l-0.040 0.001c11.575 0 23.116 0 34.896 0-3.23 37.376-10.943 71.888-22.655 104.495l0.9-2.871c-1.79 4.376-2.83 9.454-2.83 14.775 0 22.086 17.904 39.99 39.99 39.99 16.765 0 31.12-10.316 37.064-24.946l0.096-0.268c11.839-30.679 20.907-66.448 25.603-103.581l0.237-2.298c1.328-9.771 2.724-19.508 4.085-29.279v-71.869c-0.597-1.312-1.134-2.867-1.528-4.478l-0.039-0.187c-3.404-22.912-5.617-46.097-10.486-68.668-51.208-230.962-254.274-401.125-497.084-401.125-15.522 0-30.883 0.695-46.051 2.057l1.958-0.142c-262.552 22.583-467.111 241.276-467.111 507.747 0 58.072 9.715 113.874 27.609 165.871l-1.072-3.582c65.332 188.2 200.354 300.071 394.92 340.448 17.431 3.643 35.27 5.345 52.906 7.966zM1023.796 910.465c-6.658-11.17-13.593-20.815-21.258-29.821l0.253 0.304q-187.11-187.791-374.697-374.902c-3.319-2.511-5.442-6.453-5.442-10.89 0-2.236 0.539-4.347 1.494-6.209l-0.036 0.077c5.174-12.516 8.178-27.050 8.178-42.285 0-31.359-12.729-59.746-33.301-80.275l-0.002-0.002c-20.534-23.173-50.37-37.706-83.6-37.706-13.116 0-25.703 2.264-37.391 6.422l0.78-0.242c-43.153 12.481-75.383 48.554-82.072 92.992l-0.078 0.631c-1.268 6.116-1.995 13.144-1.995 20.342 0 15.205 3.241 29.654 9.069 42.693l-0.265-0.664c0.884 1.48 1.406 3.265 1.406 5.172 0 3.496-1.757 6.582-4.436 8.423l-0.035 0.022q-68.090 67.783-135.941 136.009c-7.72 7.276-12.528 17.57-12.528 28.987 0 18.336 12.4 33.775 29.271 38.391l0.279 0.065c3.187 0.893 6.847 1.406 10.626 1.406 12.325 0 23.375-5.458 30.866-14.088l0.043-0.050c44.258-44.497 88.891-88.517 133.013-133.285 2.338-3.029 5.97-4.962 10.053-4.962 2.231 0 4.328 0.577 6.149 1.59l-0.065-0.033c12.216 4.96 26.386 7.838 41.228 7.838 15.229 0 29.751-3.030 42.994-8.52l-0.745 0.274c1.605-0.859 3.511-1.363 5.535-1.363 3.975 0 7.495 1.946 9.66 4.937l0.024 0.035q187.927 188.268 376.297 376.127c8.478 7.241 17.881 13.988 27.832 19.911l0.936 0.516h15.933c15.196-4.953 26.929-16.696 31.768-31.553l0.098-0.347zM475.674 448.306c0.431-20.688 17.303-37.294 38.054-37.294 20.524 0 37.253 16.244 38.034 36.576l0.002 0.071c0 0.040 0 0.088 0 0.136 0 21.172-17.163 38.334-38.334 38.334-0.012 0-0.024 0-0.036 0h0.002c-0.122 0.001-0.266 0.002-0.41 0.002-20.683 0-37.449-16.767-37.449-37.449 0-0.132 0.001-0.265 0.002-0.397v0.020z" />
<glyph unicode="&#xe911;" glyph-name="icon_behance" horiz-adv-x="1638" d="M473.71 959.938c1.984 0.023 4.327 0.037 6.673 0.037 44.060 0 87.026-4.68 128.429-13.571l-3.999 0.719c38.399-8.051 72.386-22.504 102.519-42.334l-1.111 0.687c28.094-19.28 50.387-45.089 64.991-75.31l0.499-1.146c14.638-32.383 23.167-70.209 23.167-110.028 0-2.905-0.045-5.799-0.136-8.682l0.010 0.421c0.084-2.285 0.132-4.969 0.132-7.665 0-44.283-12.957-85.541-35.286-120.188l0.529 0.877c-26.073-36.128-60.678-64.564-100.936-82.66l-1.581-0.635c57.171-14.4 104.995-47.738 137.58-92.817l0.485-0.705c28.533-43.17 45.52-96.147 45.52-153.092 0-2.818-0.042-5.627-0.124-8.425l0.010 0.41c0.091-2.678 0.143-5.826 0.143-8.986 0-44.667-10.377-86.911-28.851-124.452l0.737 1.657c-19.051-37.44-45.828-68.455-78.416-91.899l-0.752-0.514c-32.553-23.115-70.611-41.125-111.621-51.832l-2.417-0.536c-39.094-10.993-83.989-17.312-130.36-17.312-0.023 0-0.046 0-0.069 0h-489.479v1007.55h473.71zM1156.582 129.636c31.206-27.519 72.438-44.317 117.593-44.317 4.147 0 8.26 0.142 12.336 0.42l-0.551-0.030c1.332-0.036 2.901-0.056 4.474-0.056 37.437 0 72.18 11.538 100.865 31.253l-0.604-0.392c24.353 14.786 42.963 36.939 52.943 63.332l0.287 0.865h176.386c-20.722-77.854-66.828-142.794-128.739-187.036l-1.010-0.686c-56.314-35.686-124.884-56.868-198.4-56.868-4.175 0-8.333 0.068-12.475 0.204l0.604-0.016c-1.891-0.031-4.121-0.048-6.356-0.048-53.479 0-104.614 10.032-151.627 28.317l2.852-0.976c-45.885 18.36-84.991 44.749-117.374 77.759l-0.052 0.053c-31.542 33.693-56.569 73.926-72.789 118.395l-0.772 2.42c-16.148 44.355-25.486 95.558-25.486 148.941 0 2.133 0.015 4.263 0.045 6.389l-0.004-0.322c-0.006 0.826-0.009 1.803-0.009 2.781 0 53.661 10.179 104.945 28.711 152.026l-0.977-2.818c34.872 92.485 104.565 165.026 192.686 202.86l2.306 0.881c42.534 18.738 92.124 29.645 144.262 29.645 2.566 0 5.125-0.026 7.678-0.079l-0.382 0.006c2.829 0.083 6.157 0.131 9.496 0.131 55.732 0 108.37-13.248 154.936-36.766l-1.97 0.902c45.465-23.536 83.364-55.742 112.759-94.723l0.601-0.832c29.085-39.039 51.192-85.157 63.412-135.153l0.538-2.604c9.76-38.798 15.361-83.337 15.361-129.185 0-11.707-0.365-23.329-1.085-34.855l0.079 1.577h-525.030c-0.092-2.299-0.144-4.997-0.144-7.708 0-50.906 18.386-97.518 48.88-133.557l-0.251 0.304-5.483-2.033zM457.445 126.248c0.703-0.006 1.535-0.010 2.367-0.010 20.98 0 41.434 2.247 61.136 6.515l-1.894-0.344c19.682 3.991 37.149 11.090 52.79 20.843l-0.669-0.389c15.136 9.929 27.202 23.377 35.221 39.221l0.265 0.578c8.297 17.354 13.143 37.719 13.143 59.217 0 2.228-0.052 4.444-0.155 6.647l0.012-0.312c0.351 3.617 0.551 7.82 0.551 12.069 0 39.216-17.034 74.453-44.106 98.716l-0.125 0.11c-29.752 20.651-66.629 32.992-106.388 32.992-3.167 0-6.317-0.078-9.446-0.233l0.44 0.017h-239.35v-276.439h236.208v1.848zM1386.198 511.981c-26.819 25.248-63.048 40.763-102.902 40.763-3.593 0-7.157-0.126-10.687-0.374l0.475 0.027c-2.057 0.090-4.471 0.14-6.896 0.14-26.421 0-51.429-6.052-73.712-16.846l1.009 0.441c-20.094-9.89-36.951-23.476-50.3-40.012l-0.219-0.28c-11.86-14.401-21.041-31.501-26.487-50.192l-0.251-1.004c-4.412-14.095-7.683-30.582-9.177-47.579l-0.064-0.907h325.11c-2.661 44.392-19.784 84.337-46.671 115.653l0.218-0.26v-0.678zM445.124 553.936c1.94-0.085 4.215-0.133 6.501-0.133 33.864 0 65.255 10.586 91.046 28.628l-0.513-0.34c23.478 19.42 38.324 48.558 38.324 81.163 0 3.593-0.18 7.144-0.532 10.644l0.036-0.441c0.019 0.829 0.030 1.806 0.030 2.786 0 19.982-4.556 38.901-12.686 55.773l0.334-0.77c-8.391 14.373-19.793 26.129-33.408 34.689l-0.415 0.243c-14.2 8.36-30.78 14.503-48.444 17.443l-0.843 0.116c-16.55 3.219-35.582 5.061-55.045 5.061-0.813 0-1.626-0.003-2.437-0.010l0.124 0.001h-206.698v-234.853h224.626zM1066.325 892.477h407.481v-99.313h-407.481v99.437z" />
<glyph unicode="&#xe912;" glyph-name="icon_bin" horiz-adv-x="832" d="M64 640v-640c0.202-35.229 28.757-63.721 63.99-63.822h576.233c35.305 0.101 63.899 28.694 64 63.99v639.832h-704.223zM256 64h-64v448h64zM384 64h-64v448h64zM512 64h-64v448h64zM640 64h-64v448h64zM784 832h-208v80.223c-0.076 26.479-21.521 47.924-47.993 48h-224.007c-26.479-0.076-47.924-21.521-48-47.993v-80.23h-208c-26.46-0.101-47.88-21.536-47.955-47.993v-80.23h832v80.223c-0.076 26.495-21.546 47.949-48.040 48h-0.005zM512.134 832h-192.134v63.198h192v-63.198z" />
<glyph unicode="&#xe915;" glyph-name="icon_category" d="M909.689-64.035h-232.128c-63.152 0-114.346 51.195-114.346 114.346v0 312.332c0.040 18.84 15.302 34.103 34.139 34.143h312.336c63.152 0 114.346-51.195 114.346-114.346v-232.128c0-63.152-51.195-114.346-114.346-114.346v0zM631.499 328.571v-278.189c0-0.052 0-0.114 0-0.176 0-25.342 20.544-45.886 45.886-45.886 0.074 0 0.148 0 0.222 0.001h232.117c0.052 0 0.114 0 0.176 0 25.342 0 45.886 20.544 45.886 45.886 0 0.062 0 0.123 0 0.185v-0.009 232.128c0 0.052 0 0.114 0 0.176 0 25.342-20.544 45.886-45.886 45.886-0.062 0-0.123 0-0.185 0h0.009zM346.475-64.035h-232.128c-63.152 0-114.346 51.195-114.346 114.346v0 232.128c0 63.152 51.195 114.346 114.346 114.346v0h312.332c18.84-0.040 34.103-15.302 34.143-34.139v-312.336c0-63.152-51.195-114.346-114.346-114.346v0zM114.346 328.571c-0.052 0-0.114 0-0.176 0-25.342 0-45.886-20.544-45.886-45.886 0-0.062 0-0.123 0-0.185v0.009-232.128c0-0.052 0-0.114 0-0.176 0-25.342 20.544-45.886 45.886-45.886 0.062 0 0.123 0 0.185 0h232.119c0.052 0 0.114 0 0.176 0 25.342 0 45.886 20.544 45.886 45.886 0 0.062 0 0.123 0 0.185v-0.009 278.189zM909.689 499.179h-312.332c-18.84 0.040-34.103 15.302-34.143 34.139v312.336c0 63.152 51.195 114.346 114.346 114.346v0h232.128c63.152 0 114.346-51.195 114.346-114.346v0-232.128c0-63.152-51.195-114.346-114.346-114.346v0zM631.499 567.429h278.189c0.052 0 0.114 0 0.176 0 25.342 0 45.886 20.544 45.886 45.886 0 0.062 0 0.123 0 0.185v-0.009 232.128c0 0.052 0 0.114 0 0.176 0 25.342-20.544 45.886-45.886 45.886-0.062 0-0.123 0-0.185 0h-232.119c-0.063 0-0.137 0-0.211 0-25.342 0-45.886-20.544-45.886-45.886 0-0.062 0-0.124 0-0.185v0.010zM426.678 499.179h-312.332c-63.152 0-114.346 51.195-114.346 114.346v0 232.128c0 63.152 51.195 114.346 114.346 114.346h232.128c63.152 0 114.346-51.195 114.346-114.346v0-312.332c-0.040-18.84-15.302-34.103-34.139-34.143h-0.004zM114.346 891.785c-0.052 0-0.114 0-0.176 0-25.342 0-45.886-20.544-45.886-45.886 0-0.062 0-0.123 0-0.185v0.009-232.128c0-0.052 0-0.114 0-0.176 0-25.342 20.544-45.886 45.886-45.886 0.062 0 0.123 0 0.185 0h278.25v278.189c0 0.052 0 0.114 0 0.176 0 25.342-20.544 45.886-45.886 45.886-0.062 0-0.123 0-0.185 0h0.009z" />
<glyph unicode="&#xe916;" glyph-name="icon_checked" d="M910.196 846.235v-796.431h-796.431v796.431h796.431zM910.196 960h-796.431c-62.741-0.223-113.542-51.024-113.765-113.743v-796.452c0.223-62.741 51.024-113.542 113.743-113.765h796.452c62.741 0.223 113.542 51.024 113.765 113.743v796.452c-0.223 62.741-51.024 113.542-113.743 113.765h-0.021zM715.143 668.266l-276.775-264.375-129.314 123.37-92.271-87.941 221.585-211.665 369.164 352.474z" />
<glyph unicode="&#xe91a;" glyph-name="icon_comms" horiz-adv-x="1025" d="M906.658 207.28c-14.418 36.389-29.594 72.433-43.081 109.271-2.243 4.698-3.553 10.212-3.553 16.031 0 20.954 16.987 37.941 37.941 37.941 3.862 0 7.589-0.577 11.1-1.649l-0.269 0.071c12.25-3.896 22.121-12.275 27.883-23.162l0.125-0.258q44.357-103.476 84.988-208.815c1.703-4.187 2.691-9.045 2.691-14.134 0-21.24-17.219-38.459-38.459-38.459-3.483 0-6.858 0.463-10.066 1.331l0.269-0.062c-8.934 2.113-16.753 4.955-24.12 8.574l0.666-0.296c-59.809 26.214-119.308 53.29-179.566 78.366-6.907 2.065-14.843 3.253-23.057 3.253-5.36 0-10.602-0.506-15.681-1.473l0.52 0.082c-41.853-7.038-77.37-29.896-100.857-62.090l-0.309-0.444c-106.925-117.273-240.961-144.211-391.623-104.58-4.144 1.077-8.901 1.696-13.802 1.696-7.224 0-14.134-1.343-20.493-3.794l0.39 0.132c-47.771-19.626-94.853-40.839-142.038-61.81-6.74-4.501-15.028-7.183-23.943-7.183-11.162 0-21.342 4.205-29.043 11.117l0.040-0.036c-7.844 7.928-12.69 18.836-12.69 30.876 0 8.769 2.571 16.938 6.999 23.794l-0.104-0.172c16.453 38.355 31.043 77.504 47.565 115.859 2.070 4.081 3.282 8.898 3.282 13.998 0 7.375-2.535 14.158-6.782 19.525l0.050-0.066c-32.036 48.143-51.118 107.301-51.118 170.916 0 103.12 50.141 194.528 127.372 251.175l0.87 0.609c13.542 9.747 22.781 24.74 24.74 41.943l0.025 0.275c21.654 127.974 102.384 233.4 212.611 288.7l2.274 1.034c62.874 34.639 137.809 55.019 217.505 55.019 148.825 0 281.050-71.072 364.586-181.127l0.825-1.134c45.714-59.909 73.244-135.83 73.244-218.18 0-19.535-1.549-38.707-4.531-57.402l0.271 2.061c-4.001-28.732-20.040-42.977-44.84-40.528-23.731 2.38-37.113 20.419-33.975 49.772 1.777 12.323 2.791 26.554 2.791 41.021 0 95.68-44.376 180.995-113.67 236.486l-0.6 0.464c-65.421 54.272-150.247 87.203-242.764 87.203-118.933 0-225.155-54.421-295.124-139.72l-0.533-0.67c-39.040-50.131-62.593-113.997-62.593-183.363 0-95.138 44.304-179.928 113.407-234.865l0.614-0.471c115.134-95.577 244.894-110.064 383.517-62.534 8.010 3.28 17.307 5.184 27.047 5.184 11.578 0 22.529-2.69 32.26-7.479l-0.43 0.191c38.528-17.832 77.642-34.492 116.48-51.566zM562.531 149.402c-212.885 24.834-352.371 131.449-410.248 337.436-3.449-3.449-6.347-5.76-8.864-8.451-38.919-40.772-62.869-96.125-62.869-157.072 0-52.82 17.989-101.438 48.174-140.062l-0.378 0.502c10.825-11.292 17.49-26.646 17.49-43.557 0-11.654-3.165-22.568-8.682-31.93l0.16 0.294c-8.175-15.694-13.521-32.871-22.006-53.98 32.354 14.245 58.843 27.387 86.506 37.389 6.718 2.734 14.511 4.32 22.675 4.32 5.876 0 11.559-0.822 16.943-2.356l-0.435 0.106c34.773-13.814 75.065-21.825 117.227-21.825 14.706 0 29.185 0.975 43.375 2.863l-1.663-0.181c63.342 8.954 119.055 36.447 162.808 76.731l-0.212-0.193zM464.332 552.373c-0.513-21.852-18.349-39.371-40.276-39.371-0.392 0-0.782 0.006-1.171 0.017l0.057-0.001c-21.367 0.963-38.343 18.446-38.493 39.927v0.015c-0.001 0.123-0.002 0.269-0.002 0.415 0 22.040 17.867 39.907 39.907 39.907 0.098 0 0.195 0 0.293-0.001h-0.015c21.987-0.269 39.707-18.155 39.707-40.18 0-0.256-0.002-0.511-0.007-0.765l0.001 0.038zM583.674 513.018c-21.799 0.627-39.231 18.448-39.231 40.34 0 0.369 0.005 0.738 0.015 1.105l-0.001-0.054c0.67 21.573 18.319 38.807 39.993 38.807 0.613 0 1.223-0.014 1.829-0.041l-0.086 0.003c21.317-1.185 38.158-18.748 38.183-40.25v-0.002c-0.252-22.095-18.223-39.909-40.353-39.909-0.122 0-0.244 0.001-0.366 0.002h0.019zM784.384 554.27c0.009-0.321 0.014-0.698 0.014-1.076 0-22.007-17.631-39.896-39.538-40.314l-0.039-0.001c-0.031 0-0.068 0-0.105 0-21.432 0-38.958 16.721-40.245 37.828l-0.006 0.113c-0.040 0.67-0.063 1.454-0.063 2.243 0 21.501 16.959 39.041 38.231 39.972l0.084 0.003c0.42 0.016 0.912 0.025 1.407 0.025 21.725 0 39.433-17.196 40.257-38.719l0.002-0.075z" />
<glyph unicode="&#xe91c;" horiz-adv-x="1976" d="M1786.776 900.457l-568.721-542.87-265.188 253.512-189.574-180.957 454.848-434.296 758.295 723.827z" />
<glyph unicode="&#xe91d;" horiz-adv-x="1976" d="M517.28-34.162l-486.057 464.103 220.72 210.751 265.337-253.352 568.578 542.897 220.72-210.751-789.299-753.648z" />
<glyph unicode="&#xe91e;" horiz-adv-x="1976" d="M1085.858 900.452l-568.578-542.897-265.337 253.352-189.526-180.966 454.863-434.318 758.104 723.863-189.526 180.966zM1085.858 960.024l251.915-240.537-820.493-783.434-517.252 493.889 251.915 240.537 265.337-253.353 568.578 542.898z" />
<glyph unicode="&#xe922;" glyph-name="icon_event" horiz-adv-x="1074" d="M868.916 671.123l-177.552 25.798-79.191 160.734c-13.968 27.809-42.267 46.559-74.946 46.559s-60.978-18.75-74.727-46.078l-0.219-0.48-79.322-160.734-177.388-25.766c-40.678-6.112-71.51-40.816-71.51-82.721 0-23.44 9.647-44.627 25.187-59.807l0.016-0.016 128.371-125.139-30.305-176.67c-0.768-4.255-1.207-9.152-1.207-14.152 0-46.171 37.429-83.6 83.6-83.6 14.21 0 27.591 3.545 39.309 9.799l-0.45-0.219 158.676 83.404 158.676-83.404c11.268-6.035 24.649-9.58 38.859-9.58 46.171 0 83.6 37.429 83.6 83.6 0 5-0.439 9.897-1.28 14.656l0.074-0.504-30.305 176.67 128.371 125.139c15.537 15.193 25.17 36.367 25.17 59.791 0 41.905-30.832 76.609-71.049 82.664l-0.461 0.057zM865.226 579.882l-141.858-138.266c-6.665-6.527-10.797-15.618-10.797-25.674 0-2.132 0.186-4.221 0.542-6.251l-0.031 0.216 33.473-195.251c0.111-0.611 0.174-1.313 0.174-2.031 0-6.583-5.337-11.92-11.92-11.92-2.035 0-3.95 0.51-5.626 1.409l0.064-0.031-175.331 92.188c-4.835 2.585-10.576 4.103-16.671 4.103s-11.836-1.518-16.865-4.197l0.194 0.094-175.364-92.025c-1.612-0.868-3.528-1.378-5.563-1.378-6.583 0-11.92 5.337-11.92 11.92 0 0.717 0.063 1.42 0.185 2.103l-0.011-0.072 33.636 195.088c0.325 1.815 0.511 3.903 0.511 6.035 0 10.056-4.132 19.147-10.791 25.668l-0.006 0.006-141.858 138.266c-2.252 2.171-3.651 5.215-3.651 8.585 0 5.97 4.389 10.915 10.116 11.784l0.066 0.008 195.937 28.476c11.895 1.792 21.742 9.2 26.88 19.388l0.094 0.206 87.715 177.65c1.982 3.994 6.032 6.69 10.711 6.69s8.729-2.697 10.68-6.621l0.031-0.069 87.649-177.617c5.232-10.394 15.079-17.802 26.776-19.569l0.198-0.025 195.937-28.476c5.875-0.8 10.354-5.785 10.354-11.816 0-3.375-1.402-6.422-3.656-8.59l-0.004-0.004zM224.773 844.169c6.627-7.693 16.381-12.534 27.265-12.534 19.839 0 35.922 16.083 35.922 35.922 0 6.918-1.955 13.379-5.344 18.86l0.089-0.154-42.845 58.944c-6.63 7.773-16.434 12.67-27.381 12.67-19.839 0-35.922-16.083-35.922-35.922 0-6.974 1.987-13.483 5.426-18.993l-0.088 0.151zM95.454 380.941l-70.701-22.859c-13.148-5.533-22.211-18.309-22.211-33.202 0-19.839 16.083-35.922 35.922-35.922 2.992 0 5.898 0.366 8.677 1.055l-0.247-0.052 70.701 22.859c15.894 3.933 27.492 18.071 27.492 34.919 0 19.839-16.083 35.922-35.922 35.922-4.946 0-9.659-1-13.947-2.808l0.236 0.088zM799.652 836.266c5.826-4.247 13.128-6.795 21.024-6.795 11.87 0 22.395 5.757 28.936 14.632l0.070 0.099 42.845 58.944c3.351 5.359 5.338 11.868 5.338 18.842 0 19.839-16.083 35.922-35.922 35.922-10.947 0-20.751-4.897-27.339-12.62l-0.042-0.050-42.845-58.944c-4.247-5.826-6.795-13.128-6.795-21.024 0-11.87 5.757-22.395 14.632-28.936l0.099-0.070zM1049.7 357.983l-70.701 22.859c-4.052 1.72-8.765 2.72-13.711 2.72-19.839 0-35.922-16.083-35.922-35.922 0-16.847 11.598-30.986 27.245-34.867l0.247-0.052 70.701-22.859c4.052-1.72 8.765-2.72 13.711-2.72 19.839 0 35.922 16.083 35.922 35.922 0 16.847-11.598 30.986-27.245 34.867l-0.247 0.052zM537.227 80.308c-19.839 0-35.922-16.083-35.922-35.922v0-72.693c1.529-18.568 16.976-33.059 35.808-33.059s34.278 14.49 35.799 32.929l0.009 0.129v72.889c-0.11 19.675-16.021 35.597-35.681 35.726h-0.012z" />
<glyph unicode="&#xe923;" glyph-name="icon_expand" horiz-adv-x="178" d="M178.112 470.264c0-49.184-39.872-89.056-89.056-89.056s-89.056 39.872-89.056 89.056c0 49.184 39.872 89.056 89.056 89.056s89.056-39.872 89.056-89.056zM178.112 25.020c0-49.184-39.872-89.056-89.056-89.056s-89.056 39.872-89.056 89.056c0 49.184 39.872 89.056 89.056 89.056s89.056-39.872 89.056-89.056zM178.112 870.944c0-49.184-39.872-89.056-89.056-89.056s-89.056 39.872-89.056 89.056c0 49.184 39.872 89.056 89.056 89.056s89.056-39.872 89.056-89.056z" />
<glyph unicode="&#xe924;" glyph-name="icon_facebook" horiz-adv-x="548" d="M512.507 383.995l28.455 185.31h-177.826v120.292c-0.234 2.472-0.368 5.345-0.368 8.249 0 51.172 41.483 92.655 92.655 92.655 4.294 0 8.521-0.292 12.66-0.858l-0.481 0.054h80.844v157.79c-42.626 7.255-92.192 11.777-142.677 12.504l-0.729 0.008c-146.525 0-242.26-88.757-242.26-249.471v-141.224h-162.78v-185.31h162.78v-447.995h200.317v447.995z" />
<glyph unicode="&#xe926;" glyph-name="icon_form_check" horiz-adv-x="1311" d="M1105.863 960l-614.105-614.368-286.969 286.705-204.789-204.789 491.758-491.547 818.947 819.211z" />
<glyph unicode="&#xe927;" glyph-name="icon_form_required" d="M1024 448c0-282.77-229.23-512-512-512s-512 229.23-512 512c0 282.77 229.23 512 512 512s512-229.23 512-512z" />
<glyph unicode="&#xe929;" d="M1024 448c0-282.77-229.23-512-512-512s-512 229.23-512 512c0 282.77 229.23 512 512 512s512-229.23 512-512z" />
<glyph unicode="&#xe92a;" d="M899.879 463.515c0-222.788-180.606-403.394-403.394-403.394s-403.394 180.606-403.394 403.394c0 222.788 180.606 403.394 403.394 403.394s403.394-180.606 403.394-403.394z" />
<glyph unicode="&#xe92b;" d="M467.999 321.396h85.054v-82.51h-85.054zM363.768 526.941c-0.089 1.824-0.14 3.962-0.14 6.112 0 45.025 22.338 84.833 56.536 108.946l0.421 0.281c22.151 13.655 48.994 21.746 77.727 21.746 1.791 0 3.575-0.031 5.351-0.094l-0.258 0.007c2.009 0.081 4.366 0.127 6.735 0.127 37.513 0 72.322-11.581 101.045-31.362l-0.601 0.391c26.124-19.43 42.864-50.208 42.864-84.896 0-2.272-0.072-4.527-0.213-6.763l0.015 0.306c0.035-0.998 0.054-2.17 0.054-3.347 0-22.162-6.991-42.69-18.889-59.501l0.216 0.322c-12.132-14.972-25.836-27.956-41.053-38.98l-0.621-0.428-20.263-15.701c-10.097-7.43-17.743-17.661-21.84-29.544l-0.129-0.431c-2.334-9.081-3.674-19.506-3.674-30.243 0-1.161 0.016-2.317 0.047-3.47l-0.004 0.17h-77.079c-0.016 0.987-0.025 2.152-0.025 3.319 0 22.576 3.343 44.372 9.56 64.919l-0.412-1.585c9.324 17.289 22.247 31.532 37.849 42.124l0.411 0.263 20.852 16.26c6.442 4.738 11.922 10.308 16.419 16.626l0.151 0.224c7.13 9.463 11.419 21.416 11.419 34.371 0 0.058 0 0.116 0 0.174v-0.009c0.001 0.124 0.001 0.27 0.001 0.416 0 14.699-4.76 28.287-12.824 39.304l0.131-0.188c-9.822 11.188-24.154 18.212-40.126 18.212-2.208 0-4.384-0.134-6.521-0.395l0.257 0.026c-1.436 0.143-3.103 0.225-4.79 0.225-17.425 0-32.815-8.716-42.048-22.025l-0.111-0.169c-8.553-12.876-13.699-28.661-13.839-45.64v-0.036z" />
<glyph unicode="&#xe92c;" glyph-name="icon_instagram" d="M512.237 710.529c-144.973-0.022-262.489-117.552-262.489-262.529 0-144.991 117.538-262.529 262.529-262.529s262.529 117.538 262.529 262.529v0c0 0.117 0 0.257 0 0.396 0 144.772-117.361 262.133-262.133 262.133-0.153 0-0.306 0-0.459 0h0.024zM512.237 277.307c-94.271 0-170.693 76.422-170.693 170.693s76.422 170.693 170.693 170.693c94.271 0 170.693-76.422 170.693-170.693v0c-0.18-94.199-76.494-170.513-170.676-170.693h-0.017zM846.937 721.291c0-33.827-27.423-61.25-61.25-61.25s-61.25 27.423-61.25 61.25c0 33.827 27.423 61.25 61.25 61.25v0c0.047 0 0.103 0 0.158 0 33.74 0 61.092-27.352 61.092-61.092 0-0.056 0-0.111 0-0.167v0.009zM1020.835 659.131c0.041 1.861 0.064 4.053 0.064 6.251 0 80.758-31.589 154.138-83.086 208.458l0.128-0.136c-54.451 51.277-128.017 82.787-208.942 82.787-1.98 0-3.955-0.019-5.926-0.056l0.295 0.004c-84.555 4.788-337.944 4.788-422.499 0-1.795 0.038-3.911 0.060-6.032 0.060-80.758 0-154.177-31.421-208.699-82.704l0.157 0.147c-51.253-54.3-82.756-127.722-82.756-208.502 0-2.135 0.022-4.264 0.066-6.389l-0.005 0.317c-4.788-84.555-4.788-337.944 0-422.499-0.043-1.909-0.068-4.159-0.068-6.415 0-80.679 31.527-153.994 82.934-208.298l-0.131 0.14c54.503-51.254 128.101-82.745 209.055-82.745 1.94 0 3.877 0.018 5.808 0.054l-0.29-0.004c84.555-4.788 337.944-4.788 422.499 0 1.906-0.043 4.151-0.068 6.402-0.068 80.664 0 153.967 31.511 208.273 82.895l-0.141-0.132c51.277 54.446 82.787 128.006 82.787 208.927 0 1.985-0.019 3.966-0.057 5.942l0.004-0.296c4.788 84.555 4.788 337.706 0 422.262zM911.431 146.142c-17.952-44.659-52.676-79.383-96.174-96.922l-1.161-0.414c-67.264-26.747-227.353-20.575-301.858-20.575s-234.673-5.935-301.858 20.575c-44.659 17.952-79.383 52.676-96.922 96.174l-0.414 1.161c-26.747 67.264-20.575 227.353-20.575 301.858s-5.935 234.673 20.575 301.858c17.952 44.659 52.676 79.383 96.174 96.922l1.161 0.414c67.264 26.747 227.353 20.575 301.858 20.575s234.673 5.935 301.858-20.575c44.659-17.952 79.383-52.676 96.922-96.174l0.414-1.161c26.747-67.264 20.575-227.353 20.575-301.858s6.172-234.673-20.575-301.858z" />
<glyph unicode="&#xe92d;" glyph-name="icon_linkedin" d="M229.204-64h-212.271v683.598h212.271zM122.938 712.903c-0.168-0.001-0.367-0.001-0.566-0.001-68.234 0-123.549 55.315-123.549 123.549s55.315 123.549 123.549 123.549c68.034 0 123.224-54.991 123.547-122.949v-0.031c0-0.040 0-0.088 0-0.135 0-68.122-54.939-123.413-122.927-123.981h-0.054zM1023.782-63.913h-211.835v332.678c0 79.296-1.615 181.024-110.369 181.024-110.369 0-127.302-86.192-127.302-175.307v-338.526h-212.053v683.641h203.63v-93.218h2.968c39.42 66.601 110.892 110.56 192.632 110.56 2.855 0 5.697-0.054 8.526-0.16l-0.408 0.012c214.846 0 254.385-141.485 254.385-325.259v-375.534z" />
<glyph unicode="&#xe92e;" glyph-name="icon_location" horiz-adv-x="723" d="M530.322 258.667c41.084-8.675 77.505-22.574 110.904-41.234l-1.979 1.016c19.392-10.978 36.124-23.564 51.035-38.017l-0.064 0.061c20.396-18.413 33.159-44.946 33.159-74.46 0-31.437-14.48-59.492-37.134-77.859l-0.187-0.147c-28.415-25.542-62.593-45.293-100.297-57.046l-1.924-0.517c-64.959-22.036-139.781-34.754-217.574-34.754-16.193 0-32.258 0.551-48.176 1.636l2.153-0.118c-69.416 2.652-134.885 16.067-195.925 38.62l4.386-1.419c-40.113 13.277-74.251 35.382-101.445 64.124l-0.106 0.113c-16.86 17.614-27.239 41.552-27.239 67.914 0 25.832 9.966 49.336 26.262 66.878l-0.056-0.061c24.292 27.089 54.915 48.010 89.57 60.487l1.535 0.483c21.394 8.379 43.709 14.439 65.634 21.506 2.793 0.95 5.865 1.843 10.892 3.435-23.768 26.421-46.055 52.116-69.348 76.917-31.699 31.613-58.871 67.742-80.473 107.346l-1.22 2.444c-23.372 46.108-37.062 100.528-37.062 158.144 0 196.575 159.356 355.931 355.931 355.931 175.872 0 321.952-127.557 350.771-295.204l0.3-2.113c3.424-18.341 5.382-39.444 5.382-61.003 0-91.653-35.389-175.041-93.249-237.244l0.197 0.214c-27.482-31.197-55.859-61.668-83.592-92.502-3.463-3.994-6.647-8.211-11.060-13.574zM361.433 160.915c3.016 3.435 5.362 5.921 7.569 8.602 67.030 80.995 132.050 163.526 204.079 240.388 47.368 49.311 76.538 116.412 76.538 190.326 0 13.888-1.030 27.536-3.017 40.871l0.184-1.506c-18.48 142.548-139.123 251.531-285.22 251.531-158.769 0-287.476-128.708-287.476-287.476 0-76.087 29.559-145.27 77.821-196.692l-0.143 0.154c53.736-58.652 104.204-120.096 155.901-180.647 18.238-21.366 35.47-43.318 53.764-65.662zM373.331 3.952c15.054 1.033 42.062 1.955 68.846 4.804 54.829 4.913 105.316 18.371 151.867 39.076l-3.032-1.204c21.202 8.663 39.183 21.284 53.785 37.075l0.090 0.099c6.367 5.497 10.373 13.579 10.373 22.597 0 9.198-4.167 17.422-10.716 22.889l-0.048 0.039c-11.797 11.562-25.124 21.633-39.632 29.864l-0.949 0.496c-32.331 16.907-69.85 29.754-109.439 36.544l-2.278 0.323c-1.429 0.454-3.073 0.715-4.778 0.715-5.818 0-10.924-3.046-13.812-7.63l-0.040-0.068c-26.728-33.18-53.904-65.997-80.855-99.009-6.157-10.981-17.723-18.281-30.994-18.281-13.181 0-24.68 7.201-30.778 17.884l-0.091 0.174q-41.391 50.748-83.118 101.272c-2.592 3.247-6.474 5.369-10.858 5.585l-0.034 0.001c-41.701-6.66-79.173-18.566-113.952-35.2l2.486 1.071c-19.227-8.398-35.441-20.457-48.399-35.414l-0.142-0.168c-5.281-5.34-8.543-12.686-8.543-20.793s3.262-15.453 8.546-20.796l-0.003 0.003c5.375-7.106 11.762-13.101 19.014-17.893l0.285-0.177c15.895-10.032 34.434-19.823 53.722-28.214l2.723-1.055c60.694-22.198 130.769-35.036 203.842-35.036 5.966 0 11.912 0.086 17.837 0.256l-0.87-0.020zM542.024 603.036c-0.416-99.268-80.984-179.579-180.31-179.579-99.583 0-180.312 80.728-180.312 180.312s80.728 180.312 180.312 180.312c0.549 0 1.098-0.002 1.646-0.007l-0.084 0.001c98.909-0.885 178.749-81.271 178.749-180.305 0-0.258-0.001-0.515-0.002-0.773v0.040zM360.986 491.765c0.205-0.001 0.447-0.002 0.69-0.002 61.885 0 112.052 50.168 112.052 112.052s-50.168 112.052-112.052 112.052c-61.393 0-111.254-49.373-112.043-110.579l-0.001-0.075c-0.006-0.416-0.009-0.907-0.009-1.399 0-61.642 49.775-111.659 111.326-112.050h0.037z" />
<glyph unicode="&#xe931;" glyph-name="icon_mastercard" horiz-adv-x="1657" d="M783.132 31.602c4.004-3.36 8.285-6.766 12.474-10.080-79.678-53.609-177.803-85.567-283.392-85.567-282.808 0-512.069 229.261-512.069 512.069s229.261 512.069 512.069 512.069c105.589 0 203.713-31.958 285.229-86.73l-1.837 1.162c-4.16-3.285-7.871-6.676-11.327-10.311l-0.043-0.045c-117.052-101.556-190.644-250.536-190.644-416.705 0-165.741 73.214-314.381 189.064-415.345l0.66-0.563zM1144.963 960c-0.282 0.001-0.617 0.001-0.951 0.001-105.264 0-203.070-31.928-284.263-86.629l1.816 1.153c4.16-3.285 7.871-6.676 11.327-10.311l0.043-0.045c117.052-101.556 190.644-250.536 190.644-416.705 0-165.741-73.214-314.381-189.064-415.345l-0.66-0.563c-4.004-3.36-8.285-6.766-12.474-10.080 79.693-53.637 177.843-85.613 283.461-85.613 282.808 0 512.069 229.261 512.069 512.069 0 282.749-229.166 511.974-511.893 512.069h-0.009zM828.516 850.222c-6.628-5.201-13.072-10.356-19.332-15.972-108.161-94.326-176.122-232.374-176.122-386.296s67.961-291.97 175.513-385.776l0.609-0.52c6.214-5.523 12.796-10.909 19.332-16.018 6.628 5.109 13.072 10.495 19.332 16.018 108.161 94.326 176.122 232.374 176.122 386.296s-67.961 291.97-175.513 385.776l-0.609 0.52c-6.214 5.523-12.704 10.817-19.332 15.972z" />
<glyph unicode="&#xe933;" glyph-name="icon_menu" horiz-adv-x="1536" d="M0-64h1536.022v170.659h-1536.022zM0 362.649h1536.022v170.703h-1536.022zM0 960v-170.659h1536.022v170.659z" />
<glyph unicode="&#xe936;" glyph-name="icon_nav_down" horiz-adv-x="1791" d="M895.757 244.595l677.073 677.78c23.087 23.203 55.043 37.563 90.353 37.563s67.266-14.36 90.348-37.558l0.005-0.005c23.006-23.292 37.217-55.317 37.217-90.662s-14.21-67.37-37.229-90.675l-767.236-767.766c-23.107-23.082-55.015-37.358-90.258-37.358-33.357 0-63.727 12.788-86.475 33.73l0.090-0.082-772.549 771.047c-23.214 23.181-37.574 55.222-37.574 90.618 0 70.725 57.334 128.059 128.059 128.059 35.33 0 67.318-14.307 90.487-37.443l-0.002 0.002z" />
<glyph unicode="&#xe937;" glyph-name="icon_nav_left" horiz-adv-x="586" d="M176.458 447.798l387.56-387.156c13.268-13.201 21.479-31.474 21.479-51.665s-8.211-38.463-21.476-51.662l-0.003-0.003c-13.318-13.155-31.631-21.281-51.841-21.281s-38.523 8.126-51.849 21.288l-439.016 438.713c-13.199 13.213-21.361 31.458-21.361 51.61 0 19.074 7.313 36.44 19.287 49.447l-0.047-0.051 440.892 441.75c13.255 13.274 31.577 21.485 51.816 21.485 40.441 0 73.226-32.784 73.226-73.226 0-20.202-8.181-38.493-21.41-51.741l0.001 0.001z" />
<glyph unicode="&#xe938;" glyph-name="icon_nav_right" horiz-adv-x="586" d="M409.075 448.202l-387.56 387.156c-13.268 13.201-21.479 31.474-21.479 51.665s8.211 38.463 21.476 51.662l0.003 0.003c13.318 13.155 31.631 21.281 51.841 21.281s38.523-8.126 51.849-21.288l439.016-438.713c13.199-13.213 21.361-31.458 21.361-51.61 0-19.074-7.313-36.44-19.287-49.447l0.047 0.051-440.892-441.75c-13.255-13.274-31.577-21.485-51.816-21.485-40.441 0-73.226 32.784-73.226 73.226 0 20.202 8.181 38.493 21.41 51.741l-0.001-0.001z" />
<glyph unicode="&#xe939;" glyph-name="icon_nav_up" horiz-adv-x="1791" d="M895.051 651.405l-677.073-677.78c-23.087-23.203-55.043-37.563-90.353-37.563s-67.266 14.36-90.348 37.558l-0.005 0.005c-23.006 23.292-37.217 55.317-37.217 90.662s14.21 67.37 37.229 90.675l767.236 767.766c23.107 23.082 55.015 37.358 90.258 37.358 33.357 0 63.727-12.788 86.475-33.73l-0.090 0.082 772.549-771.047c23.214-23.181 37.574-55.222 37.574-90.618 0-70.725-57.334-128.059-128.059-128.059-35.33 0-67.318 14.307-90.487 37.443l0.002-0.002z" />
<glyph unicode="&#xe93b;" glyph-name="icon_paypal" horiz-adv-x="4635" d="M3039.254 627.058h-132.864c0 0 0 0 0 0-13.147 0-24.75-6.609-31.669-16.686l-0.085-0.13-183.523-270.219-77.713 259.669c-4.902 15.874-19.386 27.233-36.543 27.366h-130.582c-0.008 0-0.016 0-0.025 0-12.72 0-23.032-10.312-23.032-23.032 0-2.655 0.449-5.205 1.276-7.578l-0.049 0.162 146.233-429.926-137.721-194.386c-2.744-3.745-4.391-8.444-4.391-13.527 0-12.72 10.312-23.032 23.032-23.032 0.056 0 0.113 0 0.169 0.001h132.855c12.928 0.108 24.327 6.555 31.254 16.382l0.081 0.122 442.304 638.414c2.562 3.66 4.094 8.206 4.094 13.109 0 12.72-10.312 23.032-23.032 23.032-0.007 0-0.015 0-0.022 0h0.001zM2150.050 369.478c-10.688-71.895-71.986-126.425-146.021-126.425-1.177 0-2.35 0.014-3.52 0.041l0.174-0.003c-3.188-0.352-6.885-0.552-10.629-0.552-56.649 0-102.572 45.923-102.572 102.572 0 9.484 1.287 18.668 3.697 27.386l-0.17-0.72c10.588 72.297 72.175 127.182 146.582 127.182 0.649 0 1.296-0.004 1.943-0.012l-0.098 0.001c1.793 0.103 3.89 0.162 6.001 0.162 32.506 0 61.762-13.916 82.135-36.116l0.074-0.082c15.416-19.267 24.739-43.994 24.739-70.897 0-8.032-0.831-15.87-2.412-23.433l0.129 0.741zM2334.461 627.058h-132.289c-0.004 0-0.009 0-0.014 0-11.466 0-20.976-8.379-22.739-19.349l-0.017-0.132-5.797-36.924-9.244 13.37c-34.253 35.025-81.989 56.743-134.798 56.743-7.563 0-15.021-0.445-22.351-1.311l0.888 0.085c-151.938-3.38-276.188-117.609-295.231-264.829l-0.161-1.525c-2.985-14.487-4.694-31.138-4.694-48.187 0-58.83 20.345-112.907 54.383-155.581l-0.388 0.503c38.007-41.665 92.529-67.706 153.132-67.706 4.739 0 9.441 0.159 14.101 0.473l-0.631-0.034c0.77-0.008 1.681-0.013 2.592-0.013 70.696 0 134.628 28.956 180.585 75.656l0.033 0.034-5.902-36.558c-0.181-1.083-0.284-2.331-0.284-3.604 0-12.72 10.312-23.032 23.032-23.032 0.008 0 0.016 0 0.024 0h119.179c0.030 0 0.065 0 0.1 0 19.070 0 34.887 13.924 37.839 32.16l0.029 0.22 71.55 453.010c0.175 1.067 0.275 2.298 0.275 3.551 0 12.72-10.312 23.032-23.032 23.032-0.005 0-0.010 0-0.015 0h0.001zM1540.361 623.924c-15.093-99.23-90.821-99.23-164.147-99.23h-41.833l29.247 185.194c1.78 11.072 11.266 19.428 22.703 19.428 0.005 0 0.011 0 0.016 0h19.166c49.876 0 96.984 0 121.269-28.411 10.412-14.737 16.643-33.074 16.643-52.866 0-8.598-1.176-16.921-3.375-24.817l0.154 0.649zM1508.503 882.757h-276.381c-0.014 0-0.030 0-0.047 0-19.098 0-34.939-13.947-37.892-32.212l-0.029-0.22-111.712-708.658c-0.181-1.083-0.284-2.331-0.284-3.604 0-12.71 10.295-23.015 23-23.032h132.030c0.001 0 0.002 0 0.003 0 19.080 0 34.908 13.92 37.884 32.159l0.030 0.222 30.187 191.2c2.982 18.483 18.82 32.43 37.916 32.432h87.375c182.061 0 287.244 88.053 314.506 262.698 4.112 15.634 6.473 33.582 6.473 52.082 0 47.621-15.645 91.588-42.075 127.042l0.401-0.563c-45.958 44.372-108.613 71.713-177.654 71.713-8.355 0-16.617-0.4-24.767-1.183l1.037 0.081zM4461.531 863.277l-113.435-721.61c-0.181-1.083-0.284-2.331-0.284-3.604 0-12.71 10.295-23.015 23-23.032h114.064c0.012 0 0.025 0 0.039 0 19.088 0 34.918 13.951 37.848 32.213l0.029 0.219 111.869 708.606c0.181 1.083 0.284 2.331 0.284 3.604 0 12.72-10.312 23.032-23.032 23.032-0.008 0-0.016 0-0.024 0h-127.588c-0.004 0-0.009 0-0.014 0-11.466 0-20.976-8.379-22.739-19.349l-0.017-0.132zM4121.121 369.53c-10.642-71.944-71.964-126.528-146.035-126.528-1.153 0-2.303 0.013-3.45 0.040l0.17-0.003c-3.188-0.352-6.885-0.552-10.629-0.552-56.649 0-102.572 45.923-102.572 102.572 0 9.484 1.287 18.668 3.697 27.386l-0.17-0.72c10.565 72.321 72.164 127.233 146.589 127.233 0.609 0 1.218-0.004 1.826-0.011l-0.092 0.001c1.793 0.103 3.89 0.162 6.001 0.162 32.506 0 61.762-13.916 82.135-36.116l0.074-0.082c15.416-19.267 24.739-43.994 24.739-70.897 0-8.032-0.831-15.87-2.412-23.433l0.129 0.741zM4305.532 627.11h-132.341c-0.004 0-0.009 0-0.014 0-11.466 0-20.976-8.379-22.739-19.349l-0.017-0.132-5.797-36.976-9.296 13.37c-34.238 35.031-81.965 56.753-134.764 56.753-7.593 0-15.081-0.449-22.44-1.323l0.891 0.086c-151.938-3.38-276.188-117.609-295.231-264.829l-0.161-1.525c-2.985-14.487-4.694-31.138-4.694-48.187 0-58.83 20.345-112.907 54.383-155.581l-0.388 0.503c38.007-41.665 92.529-67.706 153.132-67.706 4.739 0 9.441 0.159 14.101 0.473l-0.631-0.034c0.77-0.008 1.681-0.013 2.592-0.013 70.696 0 134.628 28.956 180.585 75.656l0.033 0.034-5.902-36.558c-0.181-1.083-0.284-2.331-0.284-3.604 0-12.72 10.312-23.032 23.032-23.032 0.008 0 0.016 0 0.024 0h119.231c0.030 0 0.065 0 0.1 0 19.070 0 34.887 13.924 37.839 32.16l0.029 0.22 71.55 453.010c0.181 1.083 0.284 2.331 0.284 3.604 0 12.72-10.312 23.032-23.032 23.032-0.008 0-0.016 0-0.024 0h0.001zM3511.432 623.976c-15.093-99.23-90.821-99.23-164.147-99.23h-41.781l29.247 185.194c1.78 11.072 11.266 19.428 22.703 19.428 0.005 0 0.011 0 0.016 0h19.166c49.876 0 96.984 0 121.269-28.411 10.381-14.738 16.592-33.065 16.592-52.841 0-8.606-1.176-16.938-3.376-24.842l0.154 0.65zM3479.574 882.81h-276.381c-0.014 0-0.030 0-0.047 0-19.098 0-34.939-13.947-37.892-32.212l-0.029-0.22-111.712-708.71c-0.181-1.083-0.284-2.331-0.284-3.604 0-12.71 10.295-23.015 23-23.032h141.796c13.348 0.016 24.417 9.753 26.51 22.511l0.021 0.156 31.701 200.914c2.982 18.483 18.82 32.43 37.916 32.432h87.427c182.061 0 287.244 88.053 314.506 262.698 4.112 15.634 6.473 33.582 6.473 52.082 0 47.621-15.645 91.588-42.075 127.042l0.401-0.563c-45.958 44.372-108.613 71.713-177.654 71.713-8.355 0-16.617-0.4-24.767-1.183l1.037 0.081zM289.229 460.56h85.651c186.030 0 291.579 83.562 325.161 255.909 1.097 5.693 2.089 11.124 2.872 16.608 1.572 9.309 2.713 20.412 3.169 31.692l0.017 0.532c0.313 6.894 0.522 11.020 0.47 14.832-0.033 19.433-4.123 37.901-11.467 54.617l0.343-0.876c-8.532 18.176-19.123 33.796-31.764 47.495l0.115-0.126c-50.269 49.076-119.084 79.351-194.97 79.351-6.115 0-12.185-0.197-18.202-0.584l0.82 0.042h-291.788c-20.766-0.005-37.992-15.159-41.226-35.012l-0.032-0.241-118.084-761.668c-0.191-1.162-0.3-2.5-0.3-3.865 0-13.84 11.216-25.061 25.054-25.069h143.048l43.818 260.296c5.978 37.638 38.199 66.066 77.059 66.066 0.064 0 0.129 0 0.193 0h-0.010zM759.265 697.302c-40.893-194.647-173.287-297.69-384.281-297.69h-85.755c-0.008 0-0.018 0-0.028 0-8.547 0-15.628-6.279-16.881-14.476l-0.012-0.095-57.031-353.885h150.046c18.156 0.008 33.216 13.25 36.060 30.602l0.029 0.212 1.515 7.729 28.62 181.382 1.88 10.027c2.872 17.564 17.933 30.805 36.087 30.813h22.719c147.121 0 262.228 59.747 295.914 232.563 5.256 17.032 8.283 36.612 8.283 56.898 0 43.578-13.968 83.894-37.672 116.714l0.403-0.586z" />
<glyph unicode="&#xe941;" glyph-name="icon_quality" d="M1023.932 300.252c-2.533-7.084-4.723-14.34-7.666-21.253-8.209-18.31-21.718-33.022-38.562-42.511l-0.455-0.235c-31.179-18.481-62.323-37.031-93.159-56.094-4.453-2.914-7.785-7.222-9.401-12.295l-0.045-0.163c-7.358-28.27-14.409-56.642-20.535-85.185-8.526-41.595-44.828-72.438-88.335-72.438-2.059 0-4.101 0.069-6.125 0.205l0.274-0.015c-32.856 2.533-65.745 4.586-98.533 7.564-2.298 0.491-4.938 0.773-7.644 0.773-10.336 0-19.714-4.106-26.59-10.776l0.010 0.009c-17.455-17.318-36.655-32.924-55.375-48.941-15.745-14.229-36.717-22.935-59.722-22.935s-43.977 8.707-59.8 23.004l0.078-0.069c-20.706 17.797-41.070 36.175-61.844 53.733-3.984 3.349-9.158 5.398-14.81 5.442h-0.009c-36.86-2.225-73.72-5.065-110.511-8.009-1.949-0.15-4.221-0.235-6.513-0.235-43.288 0-79.468 30.43-88.317 71.065l-0.109 0.597c-6.332 27.825-13.484 55.478-19.85 83.303-1.245 7.636-5.905 13.977-12.331 17.494l-0.126 0.063c-30.289 17.318-60.201 35.422-90.113 53.425-28.781 15.378-48.032 45.221-48.032 79.561 0 14.167 3.277 27.57 9.114 39.49l-0.235-0.53c11.499 27.961 22.896 55.923 34.806 83.679 1.554 3.088 2.465 6.73 2.465 10.584 0 3.688-0.833 7.181-2.321 10.301l0.062-0.145q-18.652 43.465-36.244 87.444c-4.775 10.577-7.556 22.931-7.556 35.935 0 33.696 18.679 63.030 46.248 78.211l0.461 0.233c28.304 16.839 56.71 33.472 84.774 50.687 4.242 2.801 7.475 6.829 9.222 11.576l0.053 0.163c10.849 33.129 21.219 66.396 31.452 99.696 11.479 37.823 46.039 64.879 86.918 64.879 3.986 0 7.912-0.257 11.761-0.756l-0.455 0.048c36.073-3.73 72.282-6.058 108.492-8.488 4.336 0.15 8.25 1.838 11.242 4.532l-0.016-0.014c19.953 17.112 39.837 34.225 59.243 52.158 13.046 11.232 28.709 19.825 45.923 24.739l0.862 0.211h32c26.199-8.633 48.464-23.171 66.068-42.103l0.088-0.096c13.211-12.184 26.798-23.957 40.488-35.594 2.505-2.291 5.809-3.745 9.449-3.901l0.031-0.001c36.175 2.498 72.419 4.586 108.458 8.522 3.683 0.534 7.935 0.839 12.259 0.839 41.522 0 76.475-28.126 86.846-66.365l0.146-0.63c8.077-29.775 14.853-59.893 21.904-89.942 1.157-6.297 5.030-11.508 10.333-14.457l0.106-0.054c31.863-18.618 63.452-37.647 95.11-56.676 20.367-12.134 35.399-31.423 41.739-54.323l0.152-0.642c0.821-2.841 1.677-5.647 2.567-8.488v-27.996c-3.114-9.035-5.852-18.242-9.412-27.106-11.397-28.235-23.341-56.265-34.498-84.603-0.892-2.317-1.409-4.997-1.409-7.798 0-2.512 0.416-4.926 1.182-7.178l-0.046 0.157c14.409-37.271 29.399-74.302 44.184-111.435zM272.394 826.045c-29.365 1.164-37.236-4.415-44.252-26.764-11.191-35.799-22.794-71.495-33.506-107.431-3.109-11.176-10.405-20.279-20.049-25.696l-0.212-0.109c-31.624-18.447-63.007-37.202-94.494-55.82-11.639-4.574-19.728-15.714-19.728-28.743 0-6.109 1.778-11.803 4.846-16.591l-0.074 0.123c13.45-32.548 26.593-65.232 40.488-97.574 2.603-5.484 4.122-11.917 4.122-18.704s-1.52-13.219-4.237-18.975l0.115 0.271c-13.895-32.342-27.106-65.027-40.522-97.54-3.025-4.72-4.823-10.479-4.823-16.657 0-13.297 8.323-24.649 20.044-29.132l0.214-0.072c35.149-20.911 70.263-41.925 105.48-62.734 9.26-5.24 15.953-14.097 18.198-24.604l0.044-0.243c7.666-32.993 15.914-65.848 23.786-98.772 5.784-24.265 17.386-31.795 42.541-29.433 38.776 3.628 77.621 6.16 116.364 9.446 1.137 0.116 2.457 0.181 3.793 0.181 10.891 0 20.759-4.382 27.937-11.479l-0.004 0.004c23.204-21.014 46.888-41.549 70.537-62.015 5.579-6.437 13.768-10.485 22.902-10.485 9.276 0 17.577 4.175 23.127 10.748l0.037 0.045c23.375 20.329 46.819 40.59 69.75 61.399 7.331 7.291 17.438 11.798 28.597 11.798 1.403 0 2.79-0.071 4.157-0.21l-0.172 0.014c38.811-3.422 77.656-5.921 116.364-9.48 2.673-0.776 5.744-1.223 8.919-1.223 17.294 0 31.493 13.251 32.998 30.153l0.009 0.127c7.701 32.274 15.846 64.479 23.067 96.856 2.461 12.117 10.036 22.097 20.324 27.753l0.211 0.106c35.012 20.535 69.784 41.48 104.59 62.323 11.684 4.711 19.78 15.955 19.78 29.090 0 6.323-1.876 12.209-5.102 17.129l0.073-0.119c-13.895 33.403-27.38 67.012-41.412 100.381-2.081 4.527-3.294 9.822-3.294 15.401s1.213 10.874 3.391 15.636l-0.096-0.235c13.998 33.369 27.653 66.909 41.412 100.381 3.215 4.788 5.131 10.681 5.131 17.022 0 13.228-8.338 24.508-20.045 28.872l-0.213 0.070q-52.569 31.658-105.343 63.007c-9.581 5.313-16.506 14.427-18.78 25.252l-0.043 0.245c-7.974 34.601-16.565 69.099-25.258 103.529-1.821 13.764-13.481 24.276-27.597 24.276-1.481 0-2.936-0.116-4.355-0.339l0.157 0.020q-62.768-4.175-125.467-9.514c-1.559-0.223-3.359-0.351-5.189-0.351-10.027 0-19.16 3.826-26.019 10.097l0.030-0.027c-22.828 20.535-45.895 40.625-68.86 60.92-5.825 7.532-14.865 12.334-25.026 12.334-10.054 0-19.010-4.702-24.789-12.028l-0.051-0.067q-35.32-30.973-70.434-62.152c-6.325-5.683-14.733-9.159-23.953-9.159-1.618 0-3.212 0.107-4.773 0.315l0.183-0.020c-40.111 3.354-80.599 6.4-115.508 9.172zM511.795 778.028c0.113 0 0.245 0 0.378 0 182.118 0 329.754-147.636 329.754-329.754 0-0.397-0.001-0.794-0.002-1.191v0.062c-0.699-181.777-148.219-328.866-330.094-328.866-0.386 0-0.772 0.001-1.157 0.002h0.060c-181.749 0.885-328.744 148.425-328.744 330.298 0 3.913 0.068 7.81 0.203 11.69l-0.016-0.563c6.553 177.061 151.58 318.136 329.599 318.323h0.019zM512.65 717.964c-148.528-0.458-268.926-120.243-270.373-268.492l-0.001-0.137c0.035-149.006 120.312-269.909 269.077-270.956l0.1-0.001c148.862 0.52 269.445 120.852 270.374 269.567v0.089c-0.635 148.525-120.673 268.802-269.044 269.826l-0.098 0.001zM482.259 401.42c52.466 52.432 104.111 103.94 155.585 155.619 5.733 6.821 14.269 11.126 23.811 11.126 3.089 0 6.072-0.451 8.888-1.291l-0.22 0.056c12.709-3.626 21.858-15.135 21.858-28.782 0-7.78-2.974-14.865-7.846-20.182l0.020 0.022c-4.963-5.818-10.678-10.952-16.12-16.394l-160.342-160.479c-5.773-8.187-15.189-13.469-25.84-13.469s-20.067 5.282-25.773 13.369l-0.066 0.099q-56.916 56.847-113.797 113.728c-6.49 5.558-10.577 13.761-10.577 22.918 0 13.697 9.143 25.258 21.658 28.913l0.213 0.053c2.638 0.83 5.671 1.308 8.815 1.308 9.146 0 17.348-4.045 22.914-10.443l0.031-0.037q44.492-44.492 88.984-88.984c2.293-2.122 4.757-4.278 7.803-7.153z" />
<glyph unicode="&#xe945;" glyph-name="icon_review" horiz-adv-x="5792" d="M822.158-63.888c-0.003 0-0.006 0-0.009 0-12.546 0-24.357 3.143-34.69 8.685l0.393-0.193-251.726 132.387-250.995-132.162c-9.913-5.291-21.68-8.398-34.173-8.398-40.72 0-73.729 33.010-73.729 73.729 0 4.377 0.381 8.666 1.113 12.833l-0.064-0.442 48.028 280.239-204.148 197.68c-13.766 13.417-22.305 32.141-22.305 52.858 0 36.973 27.193 67.594 62.67 72.954l0.407 0.051 281.195 40.83 125.975 254.988c13.582 22.779 38.091 37.799 66.109 37.799s52.527-15.021 65.915-37.449l0.194-0.351 125.975-254.988 281.645-40.83c35.908-5.389 63.127-36.022 63.127-73.012 0-20.714-8.536-39.435-22.282-52.836l-203.713-197.92 48.028-280.239c0.67-3.739 1.053-8.042 1.053-12.435 0-24.474-11.888-46.171-30.204-59.631l-0.205-0.144c-12.105-8.73-27.23-13.973-43.578-14.004h-0.007zM536.014 234.179c0.032 0 0.069 0 0.106 0 12.513 0 24.291-3.143 34.589-8.684l-0.39 0.192 153.87-80.928-29.357 171.248c-0.671 3.737-1.054 8.038-1.054 12.429 0 20.749 8.565 39.498 22.352 52.904l0.017 0.017 124.12 120.633-171.81 24.914c-24.487 3.665-44.76 18.918-55.315 39.899l-0.193 0.424-76.935 155.895-76.879-155.951c-10.731-21.398-30.983-36.65-55.045-40.273l-0.406-0.050-171.135-24.858 124.176-120.576c13.803-13.449 22.365-32.219 22.365-52.988 0-4.387-0.382-8.684-1.114-12.861l0.064 0.444-29.357-171.023 153.083 80.703c9.908 5.279 21.668 8.38 34.152 8.38 0.054 0 0.108 0 0.162 0h-0.008zM2002.109-63.888c-0.007 0-0.015 0-0.023 0-12.541 0-24.348 3.143-34.676 8.685l0.393-0.192-251.782 132.387-250.995-132.387c-9.913-5.291-21.68-8.398-34.173-8.398-40.72 0-73.729 33.010-73.729 73.729 0 4.377 0.381 8.666 1.113 12.833l-0.064-0.442 48.028 280.239-203.698 197.905c-13.766 13.417-22.305 32.141-22.305 52.858 0 36.973 27.193 67.594 62.67 72.954l0.407 0.051 281.195 40.83 125.975 254.988c13.582 22.779 38.091 37.799 66.109 37.799s52.527-15.021 65.915-37.449l0.194-0.351 125.975-254.988 281.645-40.83c35.908-5.389 63.127-36.022 63.127-73.012 0-20.714-8.536-39.435-22.282-52.836l-203.713-197.92 48.028-280.239c0.67-3.739 1.053-8.042 1.053-12.435 0-24.474-11.888-46.171-30.204-59.631l-0.205-0.144c-12.141-8.756-27.317-14.004-43.72-14.004-0.091 0-0.182 0-0.273 0h0.014zM1715.965 234.179c0.032 0 0.069 0 0.106 0 12.513 0 24.291-3.143 34.589-8.684l-0.39 0.192 153.87-80.928-29.357 171.248c-0.671 3.737-1.054 8.038-1.054 12.429 0 20.749 8.565 39.498 22.352 52.904l0.017 0.017 124.12 120.633-171.81 24.914c-24.491 3.656-44.767 18.912-55.315 39.899l-0.193 0.424-76.935 155.838-76.935-155.838c-10.738-21.392-30.987-36.64-55.044-40.273l-0.407-0.051-171.135-24.858 124.176-120.576c13.803-13.449 22.365-32.219 22.365-52.988 0-4.387-0.382-8.684-1.114-12.861l0.064 0.444-29.357-171.023 153.083 80.703c9.881 5.245 21.604 8.324 34.045 8.324 0.092 0 0.183 0 0.275-0.001h-0.014zM2610.446-63.888c-0.002 0-0.004 0-0.007 0-40.689 0-73.673 32.985-73.673 73.673 0 4.431 0.391 8.771 1.141 12.986l-0.066-0.445 48.028 280.239-203.698 197.905c-13.766 13.417-22.305 32.141-22.305 52.858 0 36.973 27.193 67.594 62.67 72.954l0.407 0.051 281.195 40.83 125.975 254.988c13.582 22.779 38.091 37.799 66.109 37.799s52.527-15.021 65.915-37.449l0.194-0.351 125.975-254.988 281.589-40.83c35.908-5.389 63.127-36.022 63.127-73.012 0-20.714-8.536-39.435-22.282-52.836l-203.769-197.92 48.028-280.239c0.667-3.725 1.049-8.014 1.049-12.391 0-40.72-33.010-73.729-73.729-73.729-12.493 0-24.261 3.107-34.572 8.591l0.398-0.193-251.782 132.387-250.995-132.387c-10.030-5.35-21.936-8.493-34.576-8.493-0.122 0-0.245 0-0.367 0.001h0.019zM2895.803 234.179c0.032 0 0.069 0 0.106 0 12.513 0 24.291-3.143 34.589-8.684l-0.39 0.192 153.926-80.928-29.301 171.248c-0.679 3.757-1.067 8.081-1.067 12.495 0 20.72 8.547 39.444 22.308 52.838l0.017 0.016 124.176 120.633-171.81 24.914c-24.487 3.665-44.76 18.918-55.315 39.899l-0.193 0.424-76.879 155.838-76.935-155.838c-10.731-21.398-30.983-36.65-55.045-40.273l-0.406-0.050-171.135-24.858 124.176-120.576c13.803-13.449 22.365-32.219 22.365-52.988 0-4.387-0.382-8.684-1.114-12.861l0.064 0.444-29.357-171.023 153.083 80.703c9.828 5.244 21.494 8.324 33.88 8.324 0.090 0 0.181 0 0.271 0h-0.014zM3790.341-63.888c-0.019 0-0.041 0-0.063 0-40.689 0-73.673 32.985-73.673 73.673 0 4.431 0.391 8.771 1.141 12.986l-0.066-0.445 47.916 280.239-203.754 197.905c-13.761 13.417-22.297 32.137-22.297 52.851 0 36.99 27.219 67.623 62.72 72.961l0.406 0.050 281.195 40.83 125.863 254.988c13.582 22.779 38.091 37.799 66.109 37.799s52.527-15.021 65.915-37.449l0.194-0.351 125.975-255.1 281.645-40.83c35.908-5.389 63.127-36.022 63.127-73.012 0-20.714-8.536-39.435-22.282-52.836l-203.769-197.92 48.028-280.239c0.679-3.756 1.067-8.080 1.067-12.494 0-40.689-32.985-73.673-73.673-73.673-12.524 0-24.318 3.125-34.644 8.637l0.396-0.193-251.838 132.387-250.938-132.387c-9.997-5.28-21.851-8.38-34.428-8.38-0.095 0-0.191 0-0.286 0.001h0.015zM4075.754 234.179c0.032 0 0.069 0 0.106 0 12.513 0 24.291-3.143 34.589-8.684l-0.39 0.192 153.982-80.928-29.244 171.248c-0.676 3.751-1.062 8.068-1.062 12.476 0 20.726 8.545 39.456 22.305 52.859l0.016 0.016 124.176 120.633-171.81 24.914c-24.491 3.656-44.767 18.912-55.315 39.899l-0.193 0.424-76.991 155.895-76.935-155.838c-10.741-21.412-31.017-36.668-55.103-40.274l-0.405-0.050-171.079-24.858 124.176-120.633c13.78-13.402 22.329-32.12 22.329-52.835 0-4.422-0.39-8.752-1.136-12.96l0.065 0.445-29.188-171.023 152.97 80.647c9.879 5.225 21.59 8.301 34.018 8.323h0.007zM4970.179-63.888c-0.019 0-0.041 0-0.063 0-40.689 0-73.673 32.985-73.673 73.673 0 4.431 0.391 8.771 1.141 12.986l-0.066-0.445 47.916 280.239-203.754 197.905c-13.757 13.416-22.29 32.134-22.29 52.844 0 37.007 27.244 67.651 62.77 72.969l0.405 0.050 281.195 40.83 125.863 254.988c13.582 22.779 38.091 37.799 66.109 37.799s52.527-15.021 65.915-37.449l0.194-0.351 125.975-255.1 281.645-40.83c35.908-5.389 63.127-36.022 63.127-73.012 0-20.714-8.536-39.435-22.282-52.836l-203.769-197.92 48.028-280.239c0.679-3.756 1.067-8.080 1.067-12.494 0-40.689-32.985-73.673-73.673-73.673-12.524 0-24.318 3.125-34.644 8.637l0.396-0.193-251.838 132.387-250.938-132.387c-10.002-5.281-21.86-8.38-34.442-8.38-0.11 0-0.221 0-0.331 0.001h0.017zM5255.536 234.179c0.032 0 0.069 0 0.106 0 12.513 0 24.291-3.143 34.589-8.684l-0.39 0.192 153.982-80.928-29.301 171.248c-0.679 3.757-1.067 8.081-1.067 12.495 0 20.72 8.547 39.444 22.308 52.838l0.017 0.016 124.176 120.633-171.81 24.914c-24.487 3.665-44.76 18.918-55.315 39.899l-0.193 0.424-76.991 155.895-76.879-155.838c-10.741-21.412-31.017-36.668-55.103-40.274l-0.405-0.050-171.079-24.858 124.176-120.633c13.782-13.393 22.333-32.106 22.333-52.815 0-4.429-0.391-8.766-1.141-12.979l0.066 0.445-29.188-171.023 152.97 80.647c9.916 5.245 21.676 8.323 34.154 8.323 0.014 0 0.028 0 0.041 0h-0.002z" />
<glyph unicode="&#xe946;" glyph-name="icon_review_filled" horiz-adv-x="5793" d="M536.094 889.634l143.086-289.841 320.068-46.436-231.577-224.897 54.759-318.59-286.118 150.424-285.625-150.479 54.759 318.59-231.742 224.951 319.302 46.436zM822.212-63.89c-12.539 0.001-24.345 3.142-34.673 8.68l0.393-0.193-251.893 132.353-251.017-132.353c-9.972-5.365-21.822-8.517-34.408-8.517-40.737 0-73.761 33.024-73.761 73.761 0 4.402 0.386 8.714 1.125 12.904l-0.065-0.444 48.024 280.258-203.705 197.9c-13.788 13.425-22.342 32.167-22.342 52.907 0 37 27.222 67.641 62.731 72.989l0.407 0.050 281.080 40.577 125.947 255.014c13.562 22.816 38.084 37.867 66.122 37.867s52.56-15.051 65.928-37.515l0.194-0.353 125.947-255.014 281.627-40.85c35.964-5.324 63.248-35.98 63.248-73.008 0-20.76-8.577-39.517-22.38-52.921l-0.018-0.017-203.705-197.9 48.024-280.258c0.665-3.726 1.046-8.016 1.046-12.394 0-24.472-11.882-46.168-30.192-59.635l-0.205-0.144c-12.066-8.597-27.108-13.745-43.352-13.745-0.045 0-0.089 0-0.134 0h0.007zM536.313 234c0.035 0 0.076 0 0.117 0 12.5 0 24.266-3.142 34.551-8.679l-0.389 0.191 153.929-80.934-29.351 171.233c-0.671 3.737-1.055 8.038-1.055 12.43 0 20.74 8.56 39.48 22.339 52.882l0.017 0.017 124.139 120.471-171.835 24.916c-24.502 3.663-44.785 18.931-55.333 39.933l-0.193 0.425-76.663 155.9-76.663-155.9c-10.723-21.419-30.987-36.687-55.065-40.307l-0.406-0.050-171.178-24.861 124.194-120.471c13.8-13.444 22.36-32.208 22.36-52.971 0-4.404-0.385-8.718-1.124-12.911l0.065 0.445-29.351-171.013 153.326 80.661c9.723 5.262 21.257 8.424 33.514 8.597l0.053 0.001zM1715.994 889.634l143.086-289.841 320.068-46.436-231.577-224.897 54.759-318.59-286.118 150.424-285.406-150.424 54.759 318.59-231.577 224.897 319.302 46.436zM2002.112-63.89c-0.002 0-0.005 0-0.008 0-12.536 0-24.339 3.141-34.664 8.68l0.393-0.192-251.893 132.353-251.017-132.353c-9.975-5.373-21.829-8.531-34.421-8.531-40.707 0-73.706 32.999-73.706 73.706 0 4.426 0.39 8.762 1.138 12.973l-0.065-0.445 48.024 280.258-203.705 197.9c-13.788 13.425-22.342 32.167-22.342 52.907 0 37 27.222 67.641 62.731 72.989l0.407 0.050 280.97 40.85 125.947 255.014c13.562 22.816 38.084 37.867 66.122 37.867s52.56-15.051 65.928-37.515l0.194-0.353 125.947-255.014 281.627-40.85c35.964-5.324 63.248-35.98 63.248-73.008 0-20.76-8.577-39.517-22.38-52.921l-0.018-0.017-203.705-197.9 48.024-280.258c0.665-3.726 1.046-8.016 1.046-12.394 0-24.472-11.882-46.168-30.192-59.635l-0.205-0.144c-12.061-8.705-27.123-13.948-43.407-14.018h-0.017zM1715.994 234.055c0.035 0 0.076 0 0.117 0 12.5 0 24.266-3.142 34.551-8.679l-0.389 0.191 153.929-80.934-29.351 171.233c-0.669 3.731-1.051 8.026-1.051 12.41 0 20.745 8.558 39.491 22.336 52.901l0.017 0.016 124.085 120.471-171.835 24.916c-24.506 3.653-44.793 18.925-55.333 39.933l-0.193 0.425-76.663 155.845-76.663-155.845c-10.731-21.413-30.991-36.678-55.064-40.307l-0.407-0.050-171.178-24.861 124.194-120.471c13.8-13.444 22.36-32.208 22.36-52.971 0-4.404-0.385-8.718-1.124-12.911l0.065 0.445-29.351-171.013 153.326 80.661c9.743 5.252 21.299 8.397 33.577 8.542h0.045zM2895.948 889.634l143.086-289.841 320.068-46.436-231.577-224.897 54.759-318.59-286.118 150.424-285.406-150.424 54.759 318.59-231.906 224.897 319.302 46.436zM2610.543-63.89c-0.010 0-0.023 0-0.035 0-40.677 0-73.651 32.975-73.651 73.651 0 4.431 0.391 8.77 1.141 12.985l-0.066-0.445 48.024 280.258-203.705 197.9c-13.788 13.425-22.342 32.167-22.342 52.907 0 37 27.222 67.641 62.731 72.989l0.407 0.050 280.97 40.85 125.947 255.014c13.562 22.816 38.084 37.867 66.122 37.867s52.56-15.051 65.928-37.515l0.194-0.353 125.947-255.014 281.627-40.85c35.964-5.324 63.248-35.98 63.248-73.008 0-20.76-8.577-39.517-22.38-52.921l-0.018-0.017-203.76-197.9 48.024-280.258c0.679-3.757 1.067-8.082 1.067-12.497 0-40.707-32.999-73.706-73.706-73.706-12.568 0-24.401 3.146-34.756 8.692l0.395-0.193-251.893 132.353-251.017-132.353c-9.992-5.33-21.849-8.468-34.438-8.488h-0.006zM2895.948 234.055c0.035 0 0.076 0 0.117 0 12.5 0 24.266-3.142 34.551-8.679l-0.389 0.191 153.929-80.934-29.296 171.233c-0.676 3.751-1.063 8.068-1.063 12.475 0 20.717 8.541 39.439 22.293 52.837l124.21 120.486-171.835 24.916c-24.502 3.663-44.785 18.931-55.333 39.933l-0.193 0.425-76.663 155.845-76.663-155.845c-10.731-21.413-30.991-36.678-55.064-40.307l-0.407-0.050-171.178-24.861 124.194-120.471c13.8-13.444 22.36-32.208 22.36-52.971 0-4.404-0.385-8.718-1.124-12.911l0.065 0.445-29.351-171.013 153.326 80.661c9.707 5.254 21.227 8.399 33.468 8.542h0.044zM4075.848 889.634l143.086-289.841 320.068-46.436-231.577-224.897 54.759-318.59-286.118 150.424-285.406-150.424 54.759 318.59-231.577 224.897 319.302 46.436zM3790.497-63.89c-0.027 0-0.058 0-0.090 0-40.677 0-73.651 32.975-73.651 73.651 0 4.431 0.391 8.77 1.141 12.985l-0.066-0.445 47.969 280.258-203.76 197.9c-13.784 13.424-22.335 32.164-22.335 52.9 0 37.017 27.247 67.669 62.779 72.996l0.406 0.050 280.97 40.85 125.947 255.014c13.562 22.816 38.084 37.867 66.122 37.867s52.56-15.051 65.928-37.515l0.194-0.353 125.947-255.069 281.627-40.85c35.964-5.324 63.248-35.98 63.248-73.008 0-20.76-8.577-39.517-22.38-52.921l-0.018-0.017-203.76-197.955 48.024-280.258c0.675-3.748 1.062-8.061 1.062-12.465 0-40.707-32.999-73.706-73.706-73.706-12.544 0-24.356 3.134-34.696 8.661l0.396-0.193-251.893 132.353-250.962-132.353c-10.001-5.279-21.857-8.378-34.438-8.378-0.002 0-0.004 0-0.006 0v0zM4075.903 234.055c0.015 0 0.032 0 0.049 0 12.523 0 24.312-3.142 34.621-8.68l-0.391 0.192 153.983-80.934-29.296 171.233c-0.676 3.751-1.063 8.068-1.063 12.475 0 20.717 8.541 39.439 22.293 52.837l124.21 120.486-171.835 24.916c-24.502 3.663-44.785 18.931-55.333 39.933l-0.193 0.425-76.992 155.9-76.663-155.845c-10.733-21.433-31.020-36.705-55.121-40.308l-0.405-0.050-171.068-24.861 124.194-120.471c13.773-13.397 22.317-32.108 22.317-52.814 0-4.421-0.39-8.751-1.136-12.958l0.065 0.445-29.187-171.013 152.943 80.661c9.853 5.233 21.535 8.326 33.934 8.378h0.016zM5255.748 889.634l143.086-289.841 320.068-46.436-231.577-224.897 54.759-318.59-286.118 150.424-285.406-150.424 54.759 318.59-231.577 224.897 319.302 46.436zM4970.397-63.89c-0.027 0-0.058 0-0.090 0-40.677 0-73.651 32.975-73.651 73.651 0 4.431 0.391 8.77 1.141 12.985l-0.066-0.445 47.914 280.258-203.76 197.9c-13.821 13.421-22.398 32.178-22.398 52.939 0 37.028 27.284 67.684 62.845 72.959l0.403 0.049 280.97 40.85 125.947 255.014c13.562 22.816 38.084 37.867 66.122 37.867s52.56-15.051 65.928-37.515l0.194-0.353 125.947-255.069 281.627-40.85c35.964-5.324 63.248-35.98 63.248-73.008 0-20.76-8.577-39.517-22.38-52.921l-0.018-0.017-203.76-197.955 48.024-280.258c0.675-3.748 1.062-8.061 1.062-12.465 0-40.707-32.999-73.706-73.706-73.706-12.544 0-24.356 3.134-34.696 8.661l0.396-0.193-251.893 132.353-250.962-132.353c-9.986-5.274-21.825-8.372-34.387-8.378h-0.002zM5255.803 234.055c0.015 0 0.032 0 0.049 0 12.523 0 24.312-3.142 34.621-8.68l-0.391 0.192 153.983-80.934-29.296 171.233c-0.676 3.751-1.063 8.068-1.063 12.475 0 20.717 8.541 39.439 22.293 52.837l124.21 120.486-171.835 24.916c-24.502 3.663-44.785 18.931-55.333 39.933l-0.193 0.425-76.992 155.9-76.663-155.845c-10.741-21.426-31.024-36.695-55.12-40.308l-0.406-0.050-171.068-24.861 124.194-120.471c13.773-13.397 22.317-32.108 22.317-52.814 0-4.421-0.39-8.751-1.136-12.958l0.065 0.445-29.187-171.013 152.943 80.661c9.854 5.231 21.535 8.324 33.934 8.378h0.017z" />
<glyph unicode="&#xe94b;" glyph-name="icon_shortlist" horiz-adv-x="1113" d="M1048.952 838.771c-55.535 71.595-140.48 118.089-236.392 121.216l-0.5 0.013c-84.252-2.731-160.057-36.785-216.594-90.829l0.124 0.118-45.643-50.25-64.761 63.916c-2.534 2.42-5.278 4.676-8.181 6.721l-0.226 0.151c-51.658 41.182-117.706 66.311-189.6 66.986l-0.152 0.001c-68.352-0.366-131.153-23.833-181.067-62.982l0.644 0.486c-65.263-55.82-106.366-138.25-106.366-230.28 0-58.536 16.629-113.189 45.42-159.491l-0.744 1.285c1.536-2.342 2.994-4.607 4.53-6.833l444.264-535.666c14.13-16.805 35.164-27.411 58.676-27.411s44.546 10.606 58.581 27.294l0.096 0.117 456.357 546.3c1.995 2.032 3.78 4.282 5.315 6.706l0.098 0.165c80.461 121.92 24.875 256.816-23.877 322.267zM171.057 601.61c-12.040 20.891-19.142 45.943-19.142 72.654 0 46.628 21.644 88.201 55.432 115.22l0.294 0.227c22.595 14.877 50.193 23.917 79.871 24.413l0.129 0.002c36.055-1.26 68.984-13.668 95.703-33.858l-0.424 0.307 70.787-70.826-172.209-241.537zM948.26 613.894l-395.396-473.171-170.673 206.489 227.027 319.235 96.738 106.68c28.563 25.196 65.538 41.46 106.225 44.118l0.532 0.028c48.419-3.777 90.475-28.172 117.823-64.313l0.297-0.409c0.614-0.768 55.394-76.239 17.351-138.657z" />
<glyph unicode="&#xe94d;" glyph-name="icon_theme" d="M511.982 960c-282.78 0-512.018-229.238-512.018-512.018s229.238-512.018 512.018-512.018c282.78 0 512.018 229.238 512.018 512.018v0c0 282.78-229.238 512.018-512.018 512.018v0zM127.986 447.982c0 0.011 0 0.024 0 0.036 0 212.075 171.921 383.995 383.995 383.995v0-768.027c-212.075 0-383.995 171.921-383.995 383.995v0z" />
<glyph unicode="&#xe94e;" glyph-name="icon_twitter" horiz-adv-x="1261" d="M1131.271 704.784c0.784-11.222 0.784-22.395 0.784-33.617 0.011-1.461 0.017-3.188 0.017-4.917 0-403.261-326.908-730.168-730.168-730.168-1.729 0-3.457 0.006-5.183 0.018l0.266-0.001c-0.667-0.002-1.457-0.003-2.247-0.003-146.632 0-283.17 43.223-397.566 117.623l2.826-1.723c17.525-2.038 37.829-3.2 58.406-3.2 1.398 0 2.795 0.005 4.191 0.016l-0.214-0.001c0.409-0.001 0.893-0.002 1.378-0.002 121.053 0 232.398 41.561 320.546 111.191l-1.091-0.831c-112.592 2.129-207.425 75.815-241.068 177.381l-0.525 1.829c14.657-2.448 31.616-3.905 48.893-4.018l0.111-0.001c24.207 0.079 47.63 3.292 69.928 9.255l-1.91-0.435c-119.025 24.718-207.192 128.721-207.192 253.316 0 0.099 0 0.199 0 0.298v-0.016 3.185c33.676-19.134 73.683-31.082 116.328-32.768l0.499-0.016c-69.896 47.071-115.261 125.909-115.261 215.343 0 48.004 13.070 92.956 35.846 131.49l-0.658-1.203c128.004-156.676 317.328-259.081 530.814-270.331l1.817-0.076c-3.963 17.744-6.294 38.164-6.419 59.107v0.091c0.126 142.752 115.877 258.426 258.646 258.426 74.293 0 141.27-31.323 188.445-81.483l0.124-0.134c61.835 12.138 116.817 33.806 166.303 63.662l-2.284-1.279c-20.003-60.752-60.175-110.266-112.433-141.759l-1.159-0.648c55.152 6.411 105.457 20.506 152.121 41.299l-3.294-1.311c-36.059-52.043-78.983-96.23-128.101-132.517l-1.517-1.070z" />
<glyph unicode="&#xe94f;" glyph-name="icon_unchecked" d="M910.196 846.235v-796.432h-796.432v796.432h796.432zM910.196 960h-796.432c-62.751-0.197-113.568-51.014-113.765-113.746v-796.451c0.197-62.751 51.014-113.568 113.746-113.765h796.451c62.751 0.197 113.568 51.014 113.765 113.746v796.451c-0.197 62.751-51.014 113.568-113.746 113.765h-0.019z" />
<glyph unicode="&#xe950;" glyph-name="icon_user_review" horiz-adv-x="1026" d="M188.337 330.77c0.016 0 0.035 0 0.053 0 13.826 0 26.015 7.007 33.21 17.664l0.090 0.142c63.459 93.741 169.423 154.542 289.587 154.542 119.87 0 225.609-60.504 288.343-152.638l0.777-1.209c7.307-10.761 19.487-17.738 33.296-17.738 22.157 0 40.118 17.962 40.118 40.118 0 8.348-2.55 16.1-6.912 22.52l0.090-0.14c-50.89 74.987-123.106 132.12-207.893 163.181l-2.97 0.952c51.074 41.845 83.41 104.92 83.41 175.549 0 125.059-101.38 226.439-226.439 226.439s-226.439-101.38-226.439-226.439c0-70.131 31.881-132.815 81.942-174.35l0.374-0.301c-89.127-31.92-162.453-89.772-212.852-164.385l-0.964-1.514c-4.238-6.257-6.765-13.974-6.765-22.28 0-13.826 7.003-26.017 17.655-33.219l0.142-0.090c6.424-3.179 13.879-5.56 21.724-6.751l0.425-0.053zM513.013 879.859c80.798 0 146.298-65.5 146.298-146.298s-65.5-146.298-146.298-146.298c-80.798 0-146.298 65.5-146.298 146.298v0c0.082 80.765 65.533 146.216 146.29 146.298h0.008zM765.452-64c-0.006 0-0.014 0-0.021 0-12.888 0-23.336 10.448-23.336 23.336 0 1.401 0.124 2.774 0.36 4.107l-0.021-0.141 15.2 88.769-64.536 62.712c-4.381 4.252-7.1 10.195-7.1 16.774 0 11.721 8.631 21.427 19.884 23.107l0.128 0.016 89.030 12.942 39.897 80.807c4.309 7.21 12.073 11.964 20.947 11.964s16.639-4.753 20.886-11.853l0.061-0.111 39.897-80.807 89.232-12.942c11.393-1.685 20.038-11.396 20.038-23.127 0-6.577-2.717-12.519-7.090-16.765l-0.006-0.006-64.565-62.712 15.2-88.769c0.215-1.191 0.338-2.561 0.338-3.96 0-12.904-10.461-23.365-23.365-23.365-3.978 0-7.724 0.994-11.002 2.747l0.125-0.061-79.765 41.952-79.533-41.952c-3.16-1.676-6.908-2.662-10.886-2.664h-0.001zM855.872 30.386c0.005 0 0.012 0 0.018 0 3.966 0 7.699-0.997 10.962-2.753l-0.123 0.061 48.756-25.623-9.265 54.257c-0.216 1.193-0.34 2.567-0.34 3.969 0 6.557 2.701 12.484 7.052 16.727l39.352 38.222-54.431 7.904c-7.764 1.152-14.195 5.984-17.542 12.634l-0.061 0.134-24.378 49.364-24.378-49.364c-3.403-6.777-9.821-11.607-17.446-12.752l-0.129-0.016-54.228-7.875 39.347-38.189c4.37-4.259 7.081-10.203 7.081-16.781 0-1.395-0.122-2.762-0.356-4.090l0.021 0.141-9.294-54.171 48.496 25.565c3.113 1.66 6.807 2.635 10.73 2.635 0.055 0 0.11 0 0.165-0.001h-0.008zM425.489 74.278c-0.006 0-0.014 0-0.021 0-12.888 0-23.336 10.448-23.336 23.336 0 1.401 0.124 2.774 0.36 4.107l-0.021-0.141 15.2 88.769-64.536 62.712c-4.381 4.252-7.1 10.195-7.1 16.774 0 11.721 8.631 21.427 19.884 23.107l0.128 0.016 89.030 12.942 39.897 80.807c4.309 7.21 12.073 11.964 20.947 11.964s16.639-4.753 20.886-11.853l0.061-0.111 39.897-80.807 89.232-12.942c11.393-1.685 20.038-11.396 20.038-23.127 0-6.577-2.717-12.519-7.090-16.765l-0.006-0.006-64.565-62.712 15.2-88.769c0.215-1.191 0.338-2.561 0.338-3.96 0-12.904-10.461-23.365-23.365-23.365-3.978 0-7.724 0.994-11.002 2.747l0.125-0.061-79.765 41.952-79.533-41.952c-3.16-1.676-6.908-2.662-10.886-2.664h-0.001zM515.909 168.664c0.005 0 0.012 0 0.018 0 3.966 0 7.699-0.997 10.962-2.753l-0.123 0.061 48.756-25.623-9.265 54.257c-0.216 1.193-0.34 2.567-0.34 3.969 0 6.557 2.701 12.484 7.052 16.727l39.352 38.222-54.431 7.904c-7.764 1.152-14.195 5.984-17.542 12.634l-0.061 0.134-24.378 49.364-24.378-49.364c-3.403-6.777-9.821-11.607-17.446-12.752l-0.129-0.016-54.228-7.875 39.347-38.189c4.37-4.259 7.081-10.203 7.081-16.781 0-1.395-0.122-2.762-0.356-4.090l0.021 0.141-9.294-54.171 48.496 25.565c3.113 1.66 6.807 2.635 10.73 2.635 0.055 0 0.11 0 0.165-0.001h-0.008zM79.388-64c-0.006 0-0.014 0-0.021 0-12.888 0-23.336 10.448-23.336 23.336 0 1.401 0.124 2.774 0.36 4.107l-0.021-0.141 15.2 88.769-64.536 62.712c-4.381 4.252-7.1 10.195-7.1 16.774 0 11.721 8.631 21.427 19.884 23.107l0.128 0.016 89.030 12.942 39.897 80.807c4.309 7.21 12.073 11.964 20.947 11.964s16.639-4.753 20.886-11.853l0.061-0.111 39.897-80.807 89.232-12.942c11.393-1.685 20.038-11.396 20.038-23.127 0-6.577-2.717-12.519-7.090-16.765l-0.006-0.006-64.565-62.712 15.2-88.769c0.215-1.191 0.338-2.561 0.338-3.96 0-12.904-10.461-23.365-23.365-23.365-3.978 0-7.724 0.994-11.002 2.747l0.125-0.061-79.765 41.952-79.533-41.952c-3.16-1.676-6.908-2.662-10.886-2.664h-0.001zM169.808 30.386c0.005 0 0.012 0 0.018 0 3.966 0 7.699-0.997 10.962-2.753l-0.123 0.061 48.756-25.623-9.265 54.257c-0.216 1.193-0.34 2.567-0.34 3.969 0 6.557 2.701 12.484 7.052 16.727l39.352 38.222-54.431 7.904c-7.764 1.152-14.195 5.984-17.542 12.634l-0.061 0.134-24.378 49.364-24.378-49.364c-3.403-6.777-9.821-11.607-17.446-12.752l-0.129-0.016-54.228-7.875 39.347-38.189c4.37-4.259 7.081-10.203 7.081-16.781 0-1.395-0.122-2.762-0.356-4.090l0.021 0.141-9.294-54.171 48.496 25.565c3.113 1.66 6.807 2.635 10.73 2.635 0.055 0 0.11 0 0.165-0.001h-0.008z" />
<glyph unicode="&#xe951;" glyph-name="icon_views" horiz-adv-x="1486" d="M744.422 960c130.049-2.012 250.254-42.49 350.201-110.517l-2.225 1.429c151.65-99.836 278.453-223.985 378.185-368.276l2.978-4.556c7.476-9.279 12.001-21.21 12.001-34.198 0-12.7-4.326-24.39-11.585-33.677l0.091 0.121c-114.327-164.827-261.396-298.865-432.617-394.981l-6.497-3.351c-85.259-47.666-187.071-75.735-295.438-75.735-10.368 0-20.677 0.257-30.919 0.765l1.441-0.057c-95.195 6.83-182.82 33.377-260.744 75.558l3.398-1.682c-137.563 74.46-253.896 169.923-349.293 283.553l-1.492 1.825c-31.392 35.948-60.206 74.152-89.25 112.126-7.891 9.631-12.674 22.074-12.674 35.634 0 13.118 4.476 25.191 11.985 34.775l-0.093-0.123c102.694 148.187 229.074 271.928 374.958 368.596l5.101 3.178c84.298 56.356 185.072 94.978 293.69 108.164l3.287 0.325c4.097 0.414 8.193 1.105 12.29 1.151 14.407 0.046 28.814-0.046 43.221-0.046zM1342.012 443.328c-25.96 31.023-49.665 60.712-74.797 89.112-76.284 89.498-164.907 165.493-263.885 226.261l-4.784 2.732c-66.247 41.559-145.381 68.858-230.292 75.691l-1.83 0.118c-5.62 0.235-12.214 0.369-18.839 0.369-85.484 0-165.756-22.321-235.303-61.454l2.411 1.247c-100.687-54.586-186.547-122.288-259.218-202.198l-0.706-0.788c-38.526-41.15-74.152-84.969-111.712-128.328 16.34-19.424 30.149-36.547 44.648-53.071 85.377-101.961 186.035-187.621 299.132-254.468l5.347-2.924c59.773-35.118 130.029-59.574 205.003-68.78l2.633-0.263c12.461-1.165 26.946-1.829 41.587-1.829 76.949 0 149.613 18.343 213.86 50.895l-2.703-1.242c120.053 59.951 221.847 138.495 305.988 233.088l0.886 1.014c28.262 30.057 54.498 62.277 82.575 94.819zM742.719 137.836c-171.45 0.289-310.325 139.342-310.325 310.831 0 171.668 139.164 310.832 310.832 310.832s310.832-139.164 310.832-310.832c0-0.243 0-0.485-0.001-0.728v0.038c-0.288-171.348-139.259-310.142-310.647-310.142-0.243 0-0.486 0-0.728 0.001h0.038zM554.83 449.45c-0.002-0.342-0.004-0.746-0.004-1.15 0-103.743 84.1-187.843 187.843-187.843s187.843 84.1 187.843 187.843c0 103.628-83.915 187.657-187.5 187.843h-0.018c-103.246-0.331-186.952-83.521-188.118-186.536l-0.001-0.111z" />
<glyph unicode="&#xe952;" glyph-name="icon_visa" horiz-adv-x="3168" d="M533.65 859.419c-9.077 48.425-51.024 84.581-101.417 84.581-5.14 0-10.192-0.376-15.131-1.103l0.56 0.068h-414.609l-3.054-20.361c284.573-72.755 518.176-227.427 623.372-519.805l-89.722 456.28zM649.637 265.434l-26.265 137.705c-63.71 152.826-182.098 272.207-330.141 335.696l-4.044 1.542 208.831-788.903h270.863l403.75 991.491h-272.492l-250.571-677.531zM1372.030-50.019l160.78 992.984h-256.747l-161.052-992.984zM2072.636 960c-253.692 0-431.508-134.651-433.069-327.873-1.561-142.524 126.846-221.183 223.966-269.234 100.581-47.915 133.022-80.424 133.022-123.656 0-66.511-80.424-95.966-153.111-95.966-6.932-0.353-15.050-0.554-23.216-0.554-79.498 0-154.543 19.063-220.814 52.868l2.757-1.277-33.934 17.035-35.631-222.677c81.723-33.369 176.553-52.736 275.906-52.736 3.596 0 7.187 0.025 10.771 0.076l-0.543-0.006c269.166-1.561 443.996 133.022 447.050 338.732 0 112.933-69.565 197.972-216.568 269.234-89.654 44.793-143.745 77.37-143.745 123.656 0 41.739 46.354 85.107 146.935 85.107 5.023 0.212 10.918 0.333 16.841 0.333 63.383 0 123.538-13.822 177.614-38.617l-2.658 1.092 23.211-12.284 35.495 215.007c-67.426 26.473-145.507 41.817-227.171 41.817-1.259 0-2.517-0.004-3.774-0.011l0.193 0.001zM2762.52 942.965c-4.506 0.567-9.719 0.89-15.009 0.89-54.876 0-101.622-34.81-119.361-83.553l-0.281-0.883-380.539-909.438h269.166c43.368 122.163 54.295 148.496 54.295 148.496h327.873s7.805-33.934 30.88-148.496h238.218l-207.203 992.984h-198.040zM2643.342 302.558s21.65 57.281 102.142 276.903c-1.561-1.561 21.65 57.281 33.934 94.337l18.528-85.107c47.915-236.657 58.842-286.134 58.842-286.134h-213.446z" />
<glyph unicode="&#xe953;" glyph-name="icon_wallet" horiz-adv-x="1022" d="M864.778 172.385c-54.552 0-107.32 0-160.087 0-85.373 2.126-153.768 71.839-153.768 157.526 0 87.024 70.547 157.572 157.572 157.572 0.565 0 1.128-0.003 1.692-0.009l-0.086 0.001h268.975c1.138 0.117 2.458 0.184 3.794 0.184 21.614 0 39.136-17.522 39.136-39.136 0-1.284-0.062-2.553-0.183-3.806l0.012 0.159q0-115.082 0-230.137c0.105-1.076 0.165-2.326 0.165-3.59 0-21.569-17.485-39.055-39.055-39.055-1.42 0-2.823 0.076-4.205 0.224l0.172-0.015c-11.386 0-22.773 0-35.674 0v-34.863c0-28.723 0.162-57.446 0-86.142-1.18-63.247-52.218-114.19-115.39-115.216l-0.098-0.001q-317.469-0.298-634.966 0c-96.332 1.809-175.557 72.785-190.18 165.249l-0.145 1.113c-1.569 10.978-2.464 23.656-2.464 36.543 0 0.465 0.001 0.929 0.003 1.394v-0.072q-0.162 292.289 0 584.606c0.518 107.726 87.647 194.93 195.294 195.572h0.061c26.208 0 52.416 0 78.597 0 0.549 0.028 1.192 0.044 1.839 0.044 21.301 0 38.568-17.267 38.568-38.568 0-0.053 0-0.107 0-0.16v0.008c0.010-0.322 0.015-0.701 0.015-1.081 0-21.54-17.461-39.001-39.001-39.001-0.5 0-0.998 0.009-1.493 0.028l0.071-0.002c-8.205 0.296-17.845 0.464-27.524 0.464-22.678 0-45.141-0.925-67.351-2.738l2.918 0.192c-58.506-6.643-103.545-55.861-103.545-115.598 0-1.635 0.034-3.263 0.101-4.882l-0.008 0.232c-0.216-98.854 0-197.736 0-296.617 0-95.176-0.135-190.352 0-285.528-0.040-1.144-0.062-2.489-0.062-3.839 0-55.71 38.5-102.429 90.345-115l0.809-0.166c9.516-2.306 20.442-3.629 31.677-3.629 0.397 0 0.795 0.002 1.191 0.005h-0.061q308.328-0.325 616.656 0c1.512-0.198 3.261-0.311 5.036-0.311 22.57 0 40.867 18.297 40.867 40.867 0 1.749-0.11 3.473-0.323 5.165l0.021-0.201c0.135 37.080 0.081 73.918 0.081 112.215zM942.347 251.225v157.085c-80.111 0-159.817 1.352-239.468-0.541-41.157-1.924-73.798-35.76-73.798-77.219 0-0.541 0.006-1.082 0.017-1.62l-0.001 0.080c0.515-42.275 34.397-76.47 76.5-77.486l0.095-0.002c78.542-1.001 157.085-0.27 236.655-0.27zM508.768 684.452q-155.3 0-310.573 0c-1.005-0.092-2.175-0.145-3.356-0.145-17.807 0-32.827 11.934-37.498 28.241l-0.067 0.275c-0.89 3.16-1.402 6.79-1.402 10.539 0 18.753 12.801 34.517 30.142 39.029l0.28 0.062c31.238 12.009 62.558 23.774 93.797 35.809q202.171 77.947 404.288 156.030c6.337 4.129 14.092 6.585 22.42 6.585 20.061 0 36.794-14.247 40.634-33.175l0.045-0.266q30.616-75.567 60.448-151.459c1.672-7.557 8.316-13.126 16.26-13.126 0.694 0 1.378 0.043 2.050 0.125l-0.081-0.008c64.632-0.046 117.039-52.32 117.3-116.896v-0.025c0-13.523 0-27.046 0-40.569-1.126-20.784-18.253-37.211-39.217-37.211s-38.092 16.427-39.213 37.111l-0.004 0.1c0 11.062 0 22.151 0 33.213 0.189 1.478 0.296 3.188 0.296 4.923 0 22.66-18.369 41.029-41.029 41.029-1.658 0-3.293-0.098-4.899-0.289l0.194 0.019q-155.516 0.135-310.816 0.081zM415.377 765.591l0.514-1.515h311.519l-42.246 105.481z" />
<glyph unicode="&#xe954;" glyph-name="icon_youtube" horiz-adv-x="1456" d="M1425.884 799.769c-17.169 63.181-65.719 112.014-127.452 129.284l-1.288 0.308c-113.553 30.64-568.99 30.64-568.99 30.64s-455.383 0-568.99-30.64c-63.020-17.578-111.571-66.411-128.441-128.309l-0.298-1.283c-19.38-102.418-30.465-220.234-30.465-340.639 0-4.278 0.014-8.554 0.042-12.825l-0.003 0.657c-0.025-3.615-0.039-7.89-0.039-12.168 0-120.405 11.085-238.221 32.291-352.483l-1.826 11.844c17.293-62.609 65.901-110.811 127.48-127.228l1.259-0.286c113.553-30.64 568.99-30.64 568.99-30.64s455.383 0 568.99 30.64c62.838 16.703 111.447 64.905 128.44 126.247l0.299 1.267c19.38 102.418 30.465 220.234 30.465 340.639 0 4.278-0.014 8.554-0.042 12.825l0.003-0.657c0.025 3.615 0.039 7.89 0.039 12.168 0 120.405-11.085 238.221-32.291 352.483l1.826-11.844zM579.22 230.406v433.11l380.623-216.555-380.623-216.555z" />
</font>
</defs>
</svg>
